<?xml version="1.0" encoding="UTF-8"?>
<svg id="Layer_2" data-name="Layer 2" xmlns="http://www.w3.org/2000/svg" viewBox="0 0 321.36 321.24">
  <defs>
    <style>
      .cls-1, .cls-2 {
        stroke-width: 0px;
      }

      .cls-2 {
        fill: none;
      }
    </style>
  </defs>
  <g id="Layer_1-2" data-name="Layer 1">
    <g>
      <path class="cls-2" d="M85.17,54.59C119.75,38.77,140.88,18.47,153.78.16,80.5,3.35,19.94,55.54,4.07,124.79c19.7-27.47,46.3-54.27,81.1-70.2Z"/>
      <path class="cls-2" d="M274.86,255.2c-29.58,13.53-52.78,36.53-70.41,60.58,40.6-11.4,74.7-38.32,95.49-73.97-7.59,4.7-15.91,9.19-25.08,13.38Z"/>
      <path class="cls-1" d="M94.37,74.71C140.39,53.66,165.6,25.04,179.38,1.06c-6.07-.69-12.24-1.06-18.49-1.06-2.38,0-4.75.06-7.1.16-12.9,18.3-34.03,38.61-68.61,54.43C50.36,70.52,23.77,97.32,4.07,124.79c-2.66,11.6-4.07,23.68-4.07,36.09,0,4.15.16,8.27.47,12.35,18.28-34.9,48.63-77.8,93.9-98.52Z"/>
      <path class="cls-1" d="M130.47,110.81c62.42-28.56,86.56-71.02,95.79-96.96-6.68-2.98-13.6-5.51-20.73-7.57-7.63,21.61-28.42,58.86-84.27,84.41C62.85,117.42,27.56,174.79,9.17,214.52c3.35,9.48,7.56,18.55,12.54,27.12,13.78-34.59,47.69-102.89,108.75-130.83Z"/>
      <path class="cls-1" d="M166.57,146.91c72.42-33.13,93.32-84.98,99.18-108.03-5.72-4.92-11.78-9.45-18.15-13.53l-1.68-.16c-.26,2.61-7.39,64.46-88.56,101.6-66.28,30.32-102.8,100.11-118.62,138.8,5.27,6.15,11,11.89,17.13,17.18,12.39-32.55,46.64-106.56,110.69-135.86Z"/>
      <path class="cls-1" d="M202.67,183.01c67.07-30.68,89.95-77.42,97.62-102.47-3.78-6.54-8.01-12.8-12.64-18.72l-5.63-.53c-.26,2.62-7.39,64.46-88.56,101.6-64.14,29.35-100.4,95.64-117.02,134.95,6.31,3.9,12.91,7.37,19.76,10.38,15.06-35.92,48.54-98.72,106.46-125.22Z"/>
      <path class="cls-1" d="M238.76,219.11c43.46-19.88,68.36-46.5,82.59-69.6-.89-12.76-3.26-25.1-6.96-36.87-7.15,21.25-27.62,60.16-84.84,86.35-55.45,25.37-90.06,78.34-109.16,117.64,7.43,1.92,15.06,3.32,22.86,4.17,18.12-35.46,48.94-80.39,95.5-101.69Z"/>
      <path class="cls-1" d="M274.86,255.2c9.16-4.19,17.49-8.69,25.08-13.38,7.35-12.59,13.04-26.27,16.76-40.74-12.46,12.04-29.02,23.93-51.04,34-41.54,19.01-71.39,53.52-91.78,86.15,10.51-.84,20.73-2.69,30.58-5.45,17.63-24.05,40.83-47.05,70.41-60.58Z"/>
    </g>
  </g>
</svg>