<svg width="1920" height="1080" viewBox="0 0 1920 1080" fill="none" xmlns="http://www.w3.org/2000/svg">
<g clip-path="url(#clip0_49_88)">
<path d="M1080.26 1316H279.594L281.019 1297.01L284.213 1259.2L291.227 1183.34C296.303 1132.7 301.606 1082.17 307.822 1031.75C314.152 981.389 320.939 931.143 328.409 881.239C335.823 831.279 344.548 781.66 353.673 732.441C371.865 634.116 394.961 537.503 423.247 445.966C437.561 400.282 453.7 356.025 471.949 314.904C490.369 274.012 510.613 235.743 532.74 205.059C554.582 174.261 578.305 152.361 596.269 143.236C605.394 138.445 612.921 136.107 621.19 134.966C625.639 134.396 629.459 134.168 631.798 134.225C634.25 134.282 635.504 134.51 636.417 134.567C638.014 135.023 639.953 135.251 645.94 140.441C651.643 145.517 659.798 155.783 667.896 169.756C684.719 197.702 700.117 238.366 712.606 281.882C725.152 325.74 736.102 372.964 745.568 421.727C755.092 470.547 763.817 520.621 772.314 571.552C789.423 673.64 805.619 778.523 829.456 886.486C841.546 940.61 855.746 995.419 875.421 1051.94C885.343 1080.17 896.863 1108.86 911.405 1138C925.833 1167.03 943.398 1196.92 967.121 1226.17C990.56 1255.26 1021.24 1284.46 1060.25 1306.02C1066.75 1309.61 1073.42 1312.92 1080.32 1315.94L1080.26 1316Z" fill="#278ADA"/>
<path d="M1920 -593V-577.202C1912.76 -575.149 1905.63 -572.867 1898.56 -570.415C1882.87 -564.769 1867.48 -558.096 1852.59 -550.511C1822.82 -535.169 1795.28 -516.006 1770.99 -494.276C1722.17 -450.703 1686.53 -398.918 1658.58 -346.733C1630.7 -294.32 1610.11 -240.823 1593.12 -187.44C1576.24 -134.058 1562.66 -80.7889 1551.2 -27.6915C1528.22 78.5035 1512.71 183.9 1498.28 288.213C1483.91 392.412 1471.13 495.755 1455.51 596.874C1439.83 697.708 1421.69 797.287 1393.69 888.14C1379.6 933.253 1362.95 976.142 1342.71 1012.24C1322.58 1048.52 1298.8 1076.52 1274.73 1092.43C1262.64 1100.47 1250.38 1106.01 1236.92 1109.6C1230.53 1111.31 1221.98 1112.85 1215.19 1113.48C1208.18 1114.22 1202.08 1114.22 1196.94 1113.7C1186.56 1112.51 1180.75 1110 1174.08 1105.72C1167.52 1101.5 1159.53 1094.09 1151.04 1082.11C1142.54 1070.25 1133.93 1054.45 1126.17 1036.43C1118.36 1018.35 1111.34 998.099 1105.07 976.769C1092.47 933.938 1083.12 886.943 1075.25 838.579C1059.39 741.509 1049.75 639.078 1037.78 534.366C1031.79 481.953 1025.63 428.742 1017.31 374.618C1008.98 320.436 999.627 265.286 985.028 208.253C977.729 179.737 969.346 150.707 958.738 120.822C948.131 91.0507 935.243 60.3101 917.964 28.7139C900.513 -2.76813 878.329 -35.619 846.451 -66.93C830.597 -82.3859 812.177 -97.3855 791.419 -110.332C770.718 -123.278 747.564 -134.286 723.613 -141.871C699.604 -149.513 675.025 -154.019 651.472 -155.73C627.806 -157.441 605.394 -156.528 583.951 -153.791C540.382 -148.316 497.554 -134.172 460.486 -114.552C423.247 -95.0471 391.653 -70.6942 364.907 -45.2005C338.104 -19.7068 315.578 7.21259 296.075 34.1891C257.068 88.3132 228.611 143.065 205.001 197.588C181.392 252.054 162.401 306.406 146.034 360.416C129.553 414.54 115.81 468.379 104.233 522.275C92.4281 576.171 82.3912 629.896 73.6659 683.564C64.8837 737.175 57.8692 790.785 51.6532 844.339C45.3801 897.95 40.2476 951.333 36.3127 1004.89C32.2067 1058.38 28.9561 1111.82 26.9601 1165.43C25.9907 1192.18 24.9642 1219.04 24.622 1245.85L24.1658 1286.29V1316H-92V540.298C-92 -85.5797 415.32 -593 1041.2 -593H1920Z" fill="#278ADA"/>
<path d="M1920 -399.146V1316H1323.94C1352.17 1304.99 1379.15 1290.22 1403.16 1272.66C1433.61 1250.41 1459.33 1224.29 1480.49 1197.2C1501.81 1170.05 1518.87 1141.99 1533.41 1113.99C1562.32 1057.93 1581.03 1002.03 1596.37 947.055C1611.42 892.076 1622.43 837.837 1631.67 784.113C1640.91 730.331 1648.09 677.119 1654.54 624.193C1667.31 518.511 1676.72 414.141 1687.5 311.083C1698.28 208.196 1710.02 106.392 1728.04 7.78287C1737.11 -41.3794 1747.49 -89.8571 1761.01 -136.396C1774.41 -182.821 1790.55 -227.477 1810.62 -267.913C1830.75 -308.236 1854.99 -343.881 1883.5 -370.8C1895.02 -381.694 1907.17 -391.161 1920.11 -399.089L1920 -399.146Z" fill="#278ADA"/>
</g>
<defs>
<clipPath id="clip0_49_88">
<rect width="2012" height="1909" fill="white" transform="translate(-92 -593)"/>
</clipPath>
</defs>
</svg>
