<svg width="423" height="174" viewBox="0 0 423 174" fill="none" xmlns="http://www.w3.org/2000/svg">
<mask id="path-1-outside-1_25_19" maskUnits="userSpaceOnUse" x="-1" y="0" width="424" height="174" fill="black">
<rect fill="white" x="-1" width="424" height="174"/>
<path d="M5.96 72V3.64799H20.808L21.448 22.848L19.528 22.08C20.2107 17.3013 21.6187 13.4613 23.752 10.56C25.8853 7.65867 28.488 5.52533 31.56 4.16C34.632 2.79467 38.0027 2.112 41.672 2.112C46.7067 2.112 50.9307 3.22133 54.344 5.43999C57.8427 7.65866 60.488 10.7307 62.28 14.656C64.072 18.496 64.968 22.976 64.968 28.096V72H48.584V33.344C48.584 29.504 48.2 26.2613 47.432 23.616C46.664 20.9707 45.384 18.9653 43.592 17.6C41.8853 16.1493 39.5813 15.424 36.68 15.424C32.328 15.424 28.8293 16.96 26.184 20.032C23.624 23.104 22.344 27.5413 22.344 33.344V72H5.96ZM101.175 73.536C94.007 73.536 88.247 71.9147 83.895 68.672C79.543 65.344 77.367 60.736 77.367 54.848C77.367 48.96 79.2017 44.352 82.871 41.024C86.5403 37.696 92.1297 35.3067 99.639 33.856L122.295 29.376C122.295 24.512 121.186 20.8853 118.967 18.496C116.748 16.0213 113.463 14.784 109.111 14.784C105.186 14.784 102.071 15.7227 99.767 17.6C97.5483 19.392 96.0123 21.9947 95.159 25.408L78.519 24.64C79.8843 17.3867 83.2123 11.84 88.503 8C93.7937 4.07467 100.663 2.112 109.111 2.112C118.839 2.112 126.178 4.58666 131.127 9.536C136.162 14.4 138.679 21.3973 138.679 30.528V55.36C138.679 57.152 138.978 58.3893 139.575 59.072C140.258 59.7547 141.239 60.096 142.519 60.096H144.695V72C144.183 72.1707 143.33 72.2987 142.135 72.384C141.026 72.4693 139.874 72.512 138.679 72.512C135.863 72.512 133.346 72.0853 131.127 71.232C128.908 70.2933 127.202 68.7147 126.007 66.496C124.812 64.192 124.215 61.0773 124.215 57.152L125.623 58.176C124.94 61.1627 123.447 63.8507 121.143 66.24C118.924 68.544 116.108 70.336 112.695 71.616C109.282 72.896 105.442 73.536 101.175 73.536ZM104.503 61.632C108.172 61.632 111.33 60.9067 113.975 59.456C116.62 58.0053 118.668 56 120.119 53.44C121.57 50.88 122.295 47.8507 122.295 44.352V40.512L104.631 44.096C100.962 44.864 98.3163 46.016 96.695 47.552C95.159 49.0027 94.391 50.9227 94.391 53.312C94.391 55.9573 95.2443 58.0053 96.951 59.456C98.743 60.9067 101.26 61.632 104.503 61.632ZM155.335 72V3.64799H170.183L170.823 22.848L168.903 22.08C169.586 17.3013 170.994 13.4613 173.127 10.56C175.26 7.65867 177.863 5.52533 180.935 4.16C184.007 2.79467 187.378 2.112 191.047 2.112C196.082 2.112 200.306 3.22133 203.719 5.43999C207.218 7.65866 209.863 10.7307 211.655 14.656C213.447 18.496 214.343 22.976 214.343 28.096V72H197.959V33.344C197.959 29.504 197.575 26.2613 196.807 23.616C196.039 20.9707 194.759 18.9653 192.967 17.6C191.26 16.1493 188.956 15.424 186.055 15.424C181.703 15.424 178.204 16.96 175.559 20.032C172.999 23.104 171.719 27.5413 171.719 33.344V72H155.335ZM260.281 73.536C253.54 73.536 247.609 72.0853 242.489 69.184C237.454 66.1973 233.529 62.016 230.713 56.64C227.982 51.264 226.617 44.992 226.617 37.824C226.617 30.5707 227.982 24.2987 230.713 19.008C233.529 13.632 237.454 9.49333 242.489 6.592C247.609 3.60533 253.54 2.112 260.281 2.112C267.022 2.112 272.91 3.60533 277.945 6.592C282.98 9.49333 286.862 13.632 289.593 19.008C292.409 24.2987 293.817 30.5707 293.817 37.824C293.817 44.992 292.409 51.264 289.593 56.64C286.862 62.016 282.98 66.1973 277.945 69.184C272.91 72.0853 267.022 73.536 260.281 73.536ZM260.281 60.224C265.572 60.224 269.625 58.2613 272.441 54.336C275.342 50.4107 276.793 44.9067 276.793 37.824C276.793 30.8267 275.342 25.3653 272.441 21.44C269.625 17.4293 265.572 15.424 260.281 15.424C254.99 15.424 250.894 17.4293 247.993 21.44C245.092 25.3653 243.641 30.8267 243.641 37.824C243.641 44.9067 245.092 50.4107 247.993 54.336C250.894 58.2613 254.99 60.224 260.281 60.224ZM334.236 73.536C327.495 73.536 321.82 72.5547 317.212 70.592C312.689 68.6293 309.191 65.8987 306.716 62.4C304.241 58.9013 302.833 54.9333 302.492 50.496L319.26 49.728C319.857 53.312 321.351 56.0853 323.74 58.048C326.129 60.0107 329.671 60.992 334.364 60.992C338.204 60.992 341.191 60.3947 343.324 59.2C345.543 57.92 346.652 55.9573 346.652 53.312C346.652 51.776 346.268 50.496 345.5 49.472C344.732 48.448 343.281 47.552 341.148 46.784C339.015 46.016 335.857 45.248 331.676 44.48C324.679 43.2853 319.175 41.8347 315.164 40.128C311.153 38.336 308.295 36.1173 306.588 33.472C304.967 30.8267 304.156 27.5413 304.156 23.616C304.156 17.216 306.588 12.0533 311.452 8.128C316.401 4.11733 323.612 2.112 333.084 2.112C339.228 2.112 344.391 3.136 348.572 5.184C352.753 7.14666 355.996 9.87733 358.3 13.376C360.689 16.7893 362.183 20.7147 362.78 25.152L346.268 25.92C345.841 23.616 345.073 21.6107 343.964 19.904C342.855 18.1973 341.361 16.9173 339.484 16.064C337.607 15.1253 335.388 14.656 332.828 14.656C328.988 14.656 326.087 15.424 324.124 16.96C322.161 18.496 321.18 20.544 321.18 23.104C321.18 24.896 321.607 26.3893 322.46 27.584C323.399 28.7787 324.892 29.76 326.94 30.528C328.988 31.2107 331.719 31.8507 335.132 32.448C342.3 33.5573 347.932 35.008 352.028 36.8C356.209 38.5067 359.153 40.7253 360.86 43.456C362.652 46.1013 363.548 49.3013 363.548 53.056C363.548 57.408 362.311 61.12 359.836 64.192C357.447 67.264 354.033 69.6107 349.596 71.232C345.244 72.768 340.124 73.536 334.236 73.536ZM35.144 171.736C29.1707 171.736 24.0507 170.925 19.784 169.304C15.5173 167.683 12.0613 165.379 9.416 162.392C6.856 159.491 5.064 156.12 4.04 152.28L20.936 151.128C21.7893 153.688 23.24 155.693 25.288 157.144C27.4213 158.595 30.7067 159.32 35.144 159.32C40.1787 159.32 44.0613 158.168 46.792 155.864C49.5227 153.645 50.888 150.147 50.888 145.368V136.664C49.2667 139.992 46.664 142.68 43.08 144.728C39.496 146.691 35.4853 147.672 31.048 147.672C25.416 147.672 20.3813 146.307 15.944 143.576C11.592 140.76 8.17867 136.877 5.704 131.928C3.22933 126.893 1.992 121.091 1.992 114.52C1.992 107.949 3.18667 102.189 5.576 97.24C8.05067 92.2053 11.464 88.28 15.816 85.464C20.168 82.5627 25.16 81.112 30.792 81.112C35.7413 81.112 40.008 82.2213 43.592 84.44C47.176 86.6587 49.7787 89.6027 51.4 93.272V82.648H67.4V144.984C67.4 150.787 66.0347 155.693 63.304 159.704C60.6587 163.715 56.904 166.701 52.04 168.664C47.2613 170.712 41.6293 171.736 35.144 171.736ZM34.888 134.872C39.752 134.872 43.6347 133.08 46.536 129.496C49.4373 125.827 50.9307 120.792 51.016 114.392C51.1013 110.125 50.4613 106.499 49.096 103.512C47.816 100.44 45.9387 98.0933 43.464 96.472C41.0747 94.7653 38.216 93.912 34.888 93.912C29.8533 93.912 25.928 95.7893 23.112 99.544C20.3813 103.213 19.016 108.163 19.016 114.392C19.016 120.621 20.424 125.613 23.24 129.368C26.1413 133.037 30.024 134.872 34.888 134.872ZM105.175 152.536C98.007 152.536 92.247 150.915 87.895 147.672C83.543 144.344 81.367 139.736 81.367 133.848C81.367 127.96 83.2017 123.352 86.871 120.024C90.5403 116.696 96.1297 114.307 103.639 112.856L126.295 108.376C126.295 103.512 125.186 99.8853 122.967 97.496C120.748 95.0213 117.463 93.784 113.111 93.784C109.186 93.784 106.071 94.7227 103.767 96.6C101.548 98.392 100.012 100.995 99.159 104.408L82.519 103.64C83.8843 96.3867 87.2123 90.84 92.503 87C97.7937 83.0747 104.663 81.112 113.111 81.112C122.839 81.112 130.178 83.5867 135.127 88.536C140.162 93.4 142.679 100.397 142.679 109.528V134.36C142.679 136.152 142.978 137.389 143.575 138.072C144.258 138.755 145.239 139.096 146.519 139.096H148.695V151C148.183 151.171 147.33 151.299 146.135 151.384C145.026 151.469 143.874 151.512 142.679 151.512C139.863 151.512 137.346 151.085 135.127 150.232C132.908 149.293 131.202 147.715 130.007 145.496C128.812 143.192 128.215 140.077 128.215 136.152L129.623 137.176C128.94 140.163 127.447 142.851 125.143 145.24C122.924 147.544 120.108 149.336 116.695 150.616C113.282 151.896 109.442 152.536 105.175 152.536ZM108.503 140.632C112.172 140.632 115.33 139.907 117.975 138.456C120.62 137.005 122.668 135 124.119 132.44C125.57 129.88 126.295 126.851 126.295 123.352V119.512L108.631 123.096C104.962 123.864 102.316 125.016 100.695 126.552C99.159 128.003 98.391 129.923 98.391 132.312C98.391 134.957 99.2443 137.005 100.951 138.456C102.743 139.907 105.26 140.632 108.503 140.632ZM159.335 151V82.648H174.695L175.335 101.592L173.927 101.336C174.951 94.7653 176.871 90.0293 179.687 87.128C182.588 84.1413 186.514 82.648 191.463 82.648H197.735V96.728H191.335C187.836 96.728 184.935 97.24 182.631 98.264C180.327 99.288 178.578 100.909 177.383 103.128C176.274 105.261 175.719 108.077 175.719 111.576V151H159.335ZM226.925 152.536C219.757 152.536 213.997 150.915 209.645 147.672C205.293 144.344 203.117 139.736 203.117 133.848C203.117 127.96 204.952 123.352 208.621 120.024C212.29 116.696 217.88 114.307 225.389 112.856L248.045 108.376C248.045 103.512 246.936 99.8853 244.717 97.496C242.498 95.0213 239.213 93.784 234.861 93.784C230.936 93.784 227.821 94.7227 225.517 96.6C223.298 98.392 221.762 100.995 220.909 104.408L204.269 103.64C205.634 96.3867 208.962 90.84 214.253 87C219.544 83.0747 226.413 81.112 234.861 81.112C244.589 81.112 251.928 83.5867 256.877 88.536C261.912 93.4 264.429 100.397 264.429 109.528V134.36C264.429 136.152 264.728 137.389 265.325 138.072C266.008 138.755 266.989 139.096 268.269 139.096H270.445V151C269.933 151.171 269.08 151.299 267.885 151.384C266.776 151.469 265.624 151.512 264.429 151.512C261.613 151.512 259.096 151.085 256.877 150.232C254.658 149.293 252.952 147.715 251.757 145.496C250.562 143.192 249.965 140.077 249.965 136.152L251.373 137.176C250.69 140.163 249.197 142.851 246.893 145.24C244.674 147.544 241.858 149.336 238.445 150.616C235.032 151.896 231.192 152.536 226.925 152.536ZM230.253 140.632C233.922 140.632 237.08 139.907 239.725 138.456C242.37 137.005 244.418 135 245.869 132.44C247.32 129.88 248.045 126.851 248.045 123.352V119.512L230.381 123.096C226.712 123.864 224.066 125.016 222.445 126.552C220.909 128.003 220.141 129.923 220.141 132.312C220.141 134.957 220.994 137.005 222.701 138.456C224.493 139.907 227.01 140.632 230.253 140.632ZM309.519 171.736C303.546 171.736 298.426 170.925 294.159 169.304C289.892 167.683 286.436 165.379 283.791 162.392C281.231 159.491 279.439 156.12 278.415 152.28L295.311 151.128C296.164 153.688 297.615 155.693 299.663 157.144C301.796 158.595 305.082 159.32 309.519 159.32C314.554 159.32 318.436 158.168 321.167 155.864C323.898 153.645 325.263 150.147 325.263 145.368V136.664C323.642 139.992 321.039 142.68 317.455 144.728C313.871 146.691 309.86 147.672 305.423 147.672C299.791 147.672 294.756 146.307 290.319 143.576C285.967 140.76 282.554 136.877 280.079 131.928C277.604 126.893 276.367 121.091 276.367 114.52C276.367 107.949 277.562 102.189 279.951 97.24C282.426 92.2053 285.839 88.28 290.191 85.464C294.543 82.5627 299.535 81.112 305.167 81.112C310.116 81.112 314.383 82.2213 317.967 84.44C321.551 86.6587 324.154 89.6027 325.775 93.272V82.648H341.775V144.984C341.775 150.787 340.41 155.693 337.679 159.704C335.034 163.715 331.279 166.701 326.415 168.664C321.636 170.712 316.004 171.736 309.519 171.736ZM309.263 134.872C314.127 134.872 318.01 133.08 320.911 129.496C323.812 125.827 325.306 120.792 325.391 114.392C325.476 110.125 324.836 106.499 323.471 103.512C322.191 100.44 320.314 98.0933 317.839 96.472C315.45 94.7653 312.591 93.912 309.263 93.912C304.228 93.912 300.303 95.7893 297.487 99.544C294.756 103.213 293.391 108.163 293.391 114.392C293.391 120.621 294.799 125.613 297.615 129.368C300.516 133.037 304.399 134.872 309.263 134.872ZM388.028 152.536C381.201 152.536 375.271 151.085 370.236 148.184C365.201 145.197 361.319 141.016 358.588 135.64C355.857 130.264 354.492 123.992 354.492 116.824C354.492 109.656 355.857 103.427 358.588 98.136C361.319 92.76 365.159 88.5787 370.108 85.592C375.143 82.6053 380.988 81.112 387.644 81.112C394.129 81.112 399.804 82.5627 404.668 85.464C409.617 88.3653 413.415 92.5467 416.06 98.008C418.705 103.469 420.028 110.04 420.028 117.72V121.432H371.516C371.857 127.405 373.479 131.928 376.38 135C379.367 137.987 383.292 139.48 388.156 139.48C391.825 139.48 394.855 138.669 397.244 137.048C399.719 135.341 401.425 132.995 402.364 130.008L419.132 131.032C417.255 137.688 413.543 142.936 407.996 146.776C402.535 150.616 395.879 152.536 388.028 152.536ZM371.516 110.424H403.132C402.791 104.877 401.212 100.781 398.396 98.136C395.58 95.4053 391.996 94.04 387.644 94.04C383.292 94.04 379.665 95.448 376.764 98.264C373.948 101.08 372.199 105.133 371.516 110.424Z"/>
</mask>
<path d="M5.96 72H3.96V74H5.96V72ZM5.96 3.64799V1.64799H3.96V3.64799H5.96ZM20.808 3.64799L22.8069 3.58137L22.7424 1.64799H20.808V3.64799ZM21.448 22.848L20.7052 24.705L23.5489 25.8424L23.4469 22.7814L21.448 22.848ZM19.528 22.08L17.5481 21.7972L17.3258 23.3532L18.7852 23.937L19.528 22.08ZM23.752 10.56L22.1407 9.37522L22.1407 9.37522L23.752 10.56ZM31.56 4.16L30.7477 2.33237L30.7477 2.33237L31.56 4.16ZM54.344 5.43999L53.254 7.11688L53.2634 7.123L53.2729 7.12901L54.344 5.43999ZM62.28 14.656L60.4606 15.4866L60.4641 15.4942L60.4676 15.5018L62.28 14.656ZM64.968 72V74H66.968V72H64.968ZM48.584 72H46.584V74H48.584V72ZM47.432 23.616L49.3527 23.0584L47.432 23.616ZM43.592 17.6L42.2967 19.1239L42.3374 19.1585L42.3799 19.1909L43.592 17.6ZM26.184 20.032L24.6685 18.727L24.6579 18.7392L24.6476 18.7516L26.184 20.032ZM22.344 72V74H24.344V72H22.344ZM7.96 72V3.64799H3.96V72H7.96ZM5.96 5.64799H20.808V1.64799H5.96V5.64799ZM18.8091 3.71462L19.4491 22.9146L23.4469 22.7814L22.8069 3.58137L18.8091 3.71462ZM22.1908 20.991L20.2708 20.223L18.7852 23.937L20.7052 24.705L22.1908 20.991ZM21.5079 22.3628C22.1592 17.804 23.4804 14.3055 25.3633 11.7448L22.1407 9.37522C19.7569 12.6172 18.2622 16.7986 17.5481 21.7972L21.5079 22.3628ZM25.3633 11.7448C27.3059 9.10291 29.6406 7.20172 32.3723 5.98762L30.7477 2.33237C27.3354 3.84895 24.4648 6.21443 22.1407 9.37522L25.3633 11.7448ZM32.3723 5.98762C35.1659 4.74599 38.2566 4.112 41.672 4.112V0.112C37.7487 0.112 34.0981 0.843336 30.7477 2.33237L32.3723 5.98762ZM41.672 4.112C46.4116 4.112 50.2344 5.15411 53.254 7.11688L55.434 3.76311C51.627 1.28856 47.0018 0.112 41.672 0.112V4.112ZM53.2729 7.12901C56.4302 9.13118 58.8225 11.8984 60.4606 15.4866L64.0994 13.8254C62.1535 9.56292 59.2552 6.18615 55.4151 3.75098L53.2729 7.12901ZM60.4676 15.5018C62.113 19.0276 62.968 23.2084 62.968 28.096H66.968C66.968 22.7436 66.031 17.9644 64.0924 13.8102L60.4676 15.5018ZM62.968 28.096V72H66.968V28.096H62.968ZM64.968 70H48.584V74H64.968V70ZM50.584 72V33.344H46.584V72H50.584ZM50.584 33.344C50.584 29.3835 50.1894 25.9405 49.3527 23.0584L45.5113 24.1736C46.2106 26.5822 46.584 29.6245 46.584 33.344H50.584ZM49.3527 23.0584C48.4924 20.0951 47.0069 17.6875 44.8041 16.0091L42.3799 19.1909C43.7611 20.2432 44.8356 21.8462 45.5113 24.1736L49.3527 23.0584ZM44.8873 16.0761C42.7234 14.2368 39.9131 13.424 36.68 13.424V17.424C39.2496 17.424 41.0473 18.0619 42.2967 19.1239L44.8873 16.0761ZM36.68 13.424C31.7943 13.424 27.7243 15.1782 24.6685 18.727L27.6995 21.337C29.9344 18.7417 32.8617 17.424 36.68 17.424V13.424ZM24.6476 18.7516C21.6784 22.3146 20.344 27.2793 20.344 33.344H24.344C24.344 27.8033 25.5696 23.8934 27.7204 21.3124L24.6476 18.7516ZM20.344 33.344V72H24.344V33.344H20.344ZM22.344 70H5.96V74H22.344V70ZM83.895 68.672L82.6801 70.2607L82.69 70.2683L82.7 70.2758L83.895 68.672ZM82.871 41.024L84.2146 42.5054L82.871 41.024ZM99.639 33.856L100.018 35.8197L100.027 35.818L99.639 33.856ZM122.295 29.376L122.683 31.338L124.295 31.0192V29.376H122.295ZM118.967 18.496L117.478 19.8311L117.49 19.8441L117.501 19.8569L118.967 18.496ZM99.767 17.6L101.024 19.1559L101.03 19.1505L99.767 17.6ZM95.159 25.408L95.0668 27.4059L96.7022 27.4813L97.0993 25.8931L95.159 25.408ZM78.519 24.64L76.5535 24.27L76.1278 26.5318L78.4268 26.6379L78.519 24.64ZM88.503 8L89.6778 9.6186L89.6863 9.61244L89.6947 9.6062L88.503 8ZM131.127 9.536L129.713 10.9502L129.725 10.9624L129.737 10.9744L131.127 9.536ZM139.575 59.072L138.07 60.389L138.114 60.4391L138.161 60.4862L139.575 59.072ZM144.695 60.096H146.695V58.096H144.695V60.096ZM144.695 72L145.327 73.8974L146.695 73.4415V72H144.695ZM142.135 72.384L141.993 70.3891L141.982 70.3899L142.135 72.384ZM131.127 71.232L130.348 73.0739L130.378 73.0868L130.409 73.0987L131.127 71.232ZM126.007 66.496L124.231 67.4166L124.239 67.4305L124.246 67.4442L126.007 66.496ZM124.215 57.152L125.391 55.5345L122.215 53.2245V57.152H124.215ZM125.623 58.176L127.573 58.6217L127.867 57.3349L126.799 56.5585L125.623 58.176ZM121.143 66.24L119.703 64.8517L119.702 64.8527L121.143 66.24ZM112.695 71.616L113.397 73.4887L112.695 71.616ZM113.975 59.456L114.937 61.2096L113.975 59.456ZM120.119 53.44L121.859 54.426L120.119 53.44ZM122.295 40.512H124.295V38.0654L121.897 38.5519L122.295 40.512ZM104.631 44.096L104.233 42.1359L104.221 42.1384L104.631 44.096ZM96.695 47.552L98.0683 49.006L98.0705 49.0039L96.695 47.552ZM96.951 59.456L95.6557 60.9799L95.674 60.9954L95.6926 61.0105L96.951 59.456ZM101.175 71.536C94.3001 71.536 89.0007 69.9821 85.09 67.0682L82.7 70.2758C87.4933 73.8472 93.7139 75.536 101.175 75.536V71.536ZM85.1099 67.0833C81.294 64.1653 79.367 60.1669 79.367 54.848H75.367C75.367 61.3051 77.792 66.5227 82.6801 70.2607L85.1099 67.0833ZM79.367 54.848C79.367 49.4082 81.0422 45.3828 84.2146 42.5054L81.5274 39.5426C77.3612 43.3212 75.367 48.5118 75.367 54.848H79.367ZM84.2146 42.5054C87.5033 39.5227 92.6888 37.2356 100.018 35.8197L99.2597 31.8923C91.5706 33.3777 85.5774 35.8693 81.5274 39.5426L84.2146 42.5054ZM100.027 35.818L122.683 31.338L121.907 27.414L99.251 31.894L100.027 35.818ZM124.295 29.376C124.295 24.2504 123.131 20.0406 120.433 17.1351L117.501 19.8569C119.241 21.7301 120.295 24.7736 120.295 29.376H124.295ZM120.456 17.1609C117.749 14.1419 113.845 12.784 109.111 12.784V16.784C113.081 16.784 115.747 17.9007 117.478 19.8311L120.456 17.1609ZM109.111 12.784C104.874 12.784 101.265 13.7997 98.5037 16.0495L101.03 19.1505C102.877 17.6457 105.497 16.784 109.111 16.784V12.784ZM98.5103 16.0441C95.8809 18.1679 94.1524 21.1884 93.2187 24.9229L97.0993 25.8931C97.8723 22.8009 99.2158 20.6161 101.024 19.1559L98.5103 16.0441ZM95.2512 23.4101L78.6112 22.6421L78.4268 26.6379L95.0668 27.4059L95.2512 23.4101ZM80.4845 25.01C81.7685 18.1885 84.8547 13.1192 89.6778 9.6186L87.3282 6.3814C81.57 10.5608 78.0002 16.5848 76.5535 24.27L80.4845 25.01ZM89.6947 9.6062C94.5542 6.00073 100.97 4.112 109.111 4.112V0.112C100.356 0.112 93.0331 2.1486 87.3113 6.3938L89.6947 9.6062ZM109.111 4.112C118.519 4.112 125.265 6.50233 129.713 10.9502L132.541 8.12178C127.09 2.671 119.159 0.112 109.111 0.112V4.112ZM129.737 10.9744C134.273 15.3563 136.679 21.767 136.679 30.528H140.679C140.679 21.0277 138.05 13.4437 132.517 8.09761L129.737 10.9744ZM136.679 30.528V55.36H140.679V30.528H136.679ZM136.679 55.36C136.679 57.2313 136.962 59.1225 138.07 60.389L141.08 57.755C140.994 57.6562 140.679 57.0727 140.679 55.36H136.679ZM138.161 60.4862C139.328 61.6539 140.887 62.096 142.519 62.096V58.096C141.591 58.096 141.187 57.8554 140.989 57.6578L138.161 60.4862ZM142.519 62.096H144.695V58.096H142.519V62.096ZM142.695 60.096V72H146.695V60.096H142.695ZM144.063 70.1026C143.808 70.1876 143.172 70.3048 141.993 70.3891L142.277 74.3789C143.487 74.2925 144.558 74.1537 145.327 73.8974L144.063 70.1026ZM141.982 70.3899C140.927 70.471 139.826 70.512 138.679 70.512V74.512C139.921 74.512 141.124 74.4676 142.288 74.3781L141.982 70.3899ZM138.679 70.512C136.064 70.512 133.796 70.1159 131.845 69.3653L130.409 73.0987C132.895 74.0548 135.662 74.512 138.679 74.512V70.512ZM131.906 69.3901C130.127 68.6375 128.757 67.3854 127.768 65.5478L124.246 67.4442C125.646 70.044 127.689 71.9492 130.348 73.0739L131.906 69.3901ZM127.783 65.5754C126.792 63.6645 126.215 60.9072 126.215 57.152H122.215C122.215 61.2475 122.833 64.7195 124.231 67.4166L127.783 65.5754ZM123.039 58.7695L124.447 59.7935L126.799 56.5585L125.391 55.5345L123.039 58.7695ZM123.673 57.7304C123.078 60.3328 121.777 62.7017 119.703 64.8517L122.583 67.6283C125.117 64.9996 126.802 61.9925 127.573 58.6217L123.673 57.7304ZM119.702 64.8527C117.718 66.9137 115.166 68.5534 111.993 69.7433L113.397 73.4887C117.051 72.1186 120.131 70.1743 122.584 67.6273L119.702 64.8527ZM111.993 69.7433C108.839 70.9261 105.242 71.536 101.175 71.536V75.536C105.641 75.536 109.725 74.8659 113.397 73.4887L111.993 69.7433ZM104.503 63.632C108.436 63.632 111.939 62.8534 114.937 61.2096L113.013 57.7024C110.72 58.9599 107.908 59.632 104.503 59.632V63.632ZM114.937 61.2096C117.899 59.5851 120.22 57.3177 121.859 54.426L118.379 52.454C117.116 54.6823 115.342 56.4256 113.013 57.7024L114.937 61.2096ZM121.859 54.426C123.51 51.5131 124.295 48.1308 124.295 44.352H120.295C120.295 47.5705 119.63 50.2469 118.379 52.454L121.859 54.426ZM124.295 44.352V40.512H120.295V44.352H124.295ZM121.897 38.5519L104.233 42.1359L105.029 46.0561L122.693 42.4721L121.897 38.5519ZM104.221 42.1384C100.408 42.9365 97.3355 44.1902 95.3195 46.1001L98.0705 49.0039C99.2971 47.8418 101.515 46.7915 105.041 46.0536L104.221 42.1384ZM95.3218 46.098C93.3315 47.9776 92.391 50.4516 92.391 53.312H96.391C96.391 51.3937 96.9865 50.0277 98.0682 49.006L95.3218 46.098ZM92.391 53.312C92.391 56.4267 93.4197 59.0793 95.6557 60.9799L98.2463 57.9321C97.069 56.9314 96.391 55.4879 96.391 53.312H92.391ZM95.6926 61.0105C97.9608 62.8467 100.985 63.632 104.503 63.632V59.632C101.535 59.632 99.5252 58.9667 98.2094 57.9015L95.6926 61.0105ZM155.335 72H153.335V74H155.335V72ZM155.335 3.64799V1.64799H153.335V3.64799H155.335ZM170.183 3.64799L172.182 3.58137L172.117 1.64799H170.183V3.64799ZM170.823 22.848L170.08 24.705L172.924 25.8424L172.822 22.7814L170.823 22.848ZM168.903 22.08L166.923 21.7972L166.701 23.3532L168.16 23.937L168.903 22.08ZM173.127 10.56L171.516 9.37522V9.37522L173.127 10.56ZM180.935 4.16L180.123 2.33237V2.33237L180.935 4.16ZM203.719 5.43999L202.629 7.11688L202.638 7.123L202.648 7.12901L203.719 5.43999ZM211.655 14.656L209.836 15.4866L209.839 15.4942L209.843 15.5018L211.655 14.656ZM214.343 72V74H216.343V72H214.343ZM197.959 72H195.959V74H197.959V72ZM196.807 23.616L198.728 23.0584L196.807 23.616ZM192.967 17.6L191.672 19.1239L191.712 19.1585L191.755 19.1909L192.967 17.6ZM175.559 20.032L174.043 18.727L174.033 18.7392L174.023 18.7516L175.559 20.032ZM171.719 72V74H173.719V72H171.719ZM157.335 72V3.64799H153.335V72H157.335ZM155.335 5.64799H170.183V1.64799H155.335V5.64799ZM168.184 3.71462L168.824 22.9146L172.822 22.7814L172.182 3.58137L168.184 3.71462ZM171.566 20.991L169.646 20.223L168.16 23.937L170.08 24.705L171.566 20.991ZM170.883 22.3628C171.534 17.804 172.855 14.3055 174.738 11.7448L171.516 9.37522C169.132 12.6172 167.637 16.7986 166.923 21.7972L170.883 22.3628ZM174.738 11.7448C176.681 9.10291 179.016 7.20172 181.747 5.98762L180.123 2.33237C176.71 3.84895 173.84 6.21443 171.516 9.37522L174.738 11.7448ZM181.747 5.98762C184.541 4.74599 187.632 4.112 191.047 4.112V0.112C187.124 0.112 183.473 0.843336 180.123 2.33237L181.747 5.98762ZM191.047 4.112C195.787 4.112 199.609 5.15411 202.629 7.11688L204.809 3.76311C201.002 1.28856 196.377 0.112 191.047 0.112V4.112ZM202.648 7.12901C205.805 9.13118 208.198 11.8984 209.836 15.4866L213.474 13.8254C211.528 9.56292 208.63 6.18615 204.79 3.75098L202.648 7.12901ZM209.843 15.5018C211.488 19.0276 212.343 23.2084 212.343 28.096H216.343C216.343 22.7436 215.406 17.9644 213.467 13.8102L209.843 15.5018ZM212.343 28.096V72H216.343V28.096H212.343ZM214.343 70H197.959V74H214.343V70ZM199.959 72V33.344H195.959V72H199.959ZM199.959 33.344C199.959 29.3835 199.564 25.9405 198.728 23.0584L194.886 24.1736C195.586 26.5822 195.959 29.6245 195.959 33.344H199.959ZM198.728 23.0584C197.867 20.0951 196.382 17.6875 194.179 16.0091L191.755 19.1909C193.136 20.2432 194.211 21.8462 194.886 24.1736L198.728 23.0584ZM194.262 16.0761C192.098 14.2368 189.288 13.424 186.055 13.424V17.424C188.625 17.424 190.422 18.0619 191.672 19.1239L194.262 16.0761ZM186.055 13.424C181.169 13.424 177.099 15.1782 174.043 18.727L177.075 21.337C179.309 18.7417 182.237 17.424 186.055 17.424V13.424ZM174.023 18.7516C171.053 22.3146 169.719 27.2793 169.719 33.344H173.719C173.719 27.8033 174.945 23.8934 177.095 21.3124L174.023 18.7516ZM169.719 33.344V72H173.719V33.344H169.719ZM171.719 70H155.335V74H171.719V70ZM242.489 69.184L241.469 70.9041L241.486 70.9142L241.503 70.924L242.489 69.184ZM230.713 56.64L228.93 57.5457L228.936 57.5569L228.941 57.568L230.713 56.64ZM230.713 19.008L228.941 18.08L228.936 18.0907L230.713 19.008ZM242.489 6.592L243.488 8.32488L243.497 8.31955L242.489 6.592ZM277.945 6.592L276.925 8.31211L276.935 8.31855L276.946 8.32486L277.945 6.592ZM289.593 19.008L287.81 19.9137L287.819 19.9308L287.828 19.9477L289.593 19.008ZM289.593 56.64L287.821 55.712L287.816 55.7231L287.81 55.7343L289.593 56.64ZM277.945 69.184L278.944 70.9169L278.955 70.9106L278.965 70.9041L277.945 69.184ZM272.441 54.336L270.833 53.1472L270.824 53.1586L270.816 53.1702L272.441 54.336ZM272.441 21.44L270.804 22.5893L270.818 22.6092L270.833 22.6288L272.441 21.44ZM247.993 21.44L249.601 22.6288L249.607 22.6205L249.613 22.6122L247.993 21.44ZM247.993 54.336L249.601 53.1472L247.993 54.336ZM260.281 71.536C253.834 71.536 248.253 70.1514 243.475 67.444L241.503 70.924C246.965 74.0193 253.245 75.536 260.281 75.536V71.536ZM243.509 67.4639C238.806 64.6736 235.135 60.7721 232.485 55.712L228.941 57.568C231.923 63.2599 236.103 67.721 241.469 70.9041L243.509 67.4639ZM232.496 55.7343C229.933 50.6872 228.617 44.7363 228.617 37.824H224.617C224.617 45.2477 226.032 51.8408 228.93 57.5457L232.496 55.7343ZM228.617 37.824C228.617 30.821 229.935 24.877 232.49 19.9253L228.936 18.0907C226.03 23.7204 224.617 30.3203 224.617 37.824H228.617ZM232.485 19.936C235.133 14.8805 238.797 11.028 243.488 8.32486L241.49 4.85913C236.112 7.95862 231.925 12.3835 228.941 18.08L232.485 19.936ZM243.497 8.31955C248.271 5.53471 253.844 4.112 260.281 4.112V0.112C253.235 0.112 246.947 1.67595 241.481 4.86444L243.497 8.31955ZM260.281 4.112C266.719 4.112 272.243 5.53495 276.925 8.31211L278.965 4.87189C273.578 1.67571 267.326 0.112 260.281 0.112V4.112ZM276.946 8.32486C281.632 11.0249 285.248 14.8699 287.81 19.9137L291.376 18.1023C288.477 12.394 284.328 7.96179 278.944 4.85913L276.946 8.32486ZM287.828 19.9477C290.46 24.8942 291.817 30.8301 291.817 37.824H295.817C295.817 30.3113 294.358 23.7031 291.358 18.0683L287.828 19.9477ZM291.817 37.824C291.817 44.7272 290.462 50.67 287.821 55.712L291.365 57.568C294.356 51.858 295.817 45.2568 295.817 37.824H291.817ZM287.81 55.7343C285.246 60.7827 281.623 64.6769 276.925 67.4639L278.965 70.9041C284.337 67.7178 288.479 63.2493 291.376 57.5457L287.81 55.7343ZM276.946 67.4511C272.261 70.1511 266.729 71.536 260.281 71.536V75.536C267.316 75.536 273.56 74.0195 278.944 70.9169L276.946 67.4511ZM260.281 62.224C266.145 62.224 270.835 60.0063 274.066 55.5018L270.816 53.1702C268.415 56.5164 264.999 58.224 260.281 58.224V62.224ZM274.049 55.5248C277.297 51.1312 278.793 45.1491 278.793 37.824H274.793C274.793 44.6642 273.388 49.6901 270.833 53.1472L274.049 55.5248ZM278.793 37.824C278.793 30.5779 277.294 24.6412 274.049 20.2512L270.833 22.6288C273.391 26.0894 274.793 31.0755 274.793 37.824H278.793ZM274.078 20.2907C270.854 15.6988 266.162 13.424 260.281 13.424V17.424C264.981 17.424 268.396 19.1599 270.804 22.5893L274.078 20.2907ZM260.281 13.424C254.4 13.424 249.679 15.6967 246.373 20.2678L249.613 22.6122C252.109 19.162 255.58 17.424 260.281 17.424V13.424ZM246.385 20.2512C243.14 24.6412 241.641 30.5779 241.641 37.824H245.641C245.641 31.0755 247.043 26.0894 249.601 22.6288L246.385 20.2512ZM241.641 37.824C241.641 45.1491 243.137 51.1312 246.385 55.5248L249.601 53.1472C247.046 49.6901 245.641 44.6642 245.641 37.824H241.641ZM246.385 55.5248C249.698 60.0081 254.418 62.224 260.281 62.224V58.224C255.563 58.224 252.09 56.5146 249.601 53.1472L246.385 55.5248ZM317.212 70.592L316.416 72.4267L316.428 72.432L317.212 70.592ZM306.716 62.4L308.349 61.2451L306.716 62.4ZM302.492 50.496L302.4 48.4981L300.34 48.5925L300.498 50.6494L302.492 50.496ZM319.26 49.728L321.233 49.3992L320.941 47.6489L319.168 47.7301L319.26 49.728ZM323.74 58.048L325.009 56.5025L323.74 58.048ZM343.324 59.2L344.301 60.945L344.312 60.9388L344.323 60.9324L343.324 59.2ZM345.5 49.472L347.1 48.272L345.5 49.472ZM331.676 44.48L332.037 42.5129L332.025 42.5106L332.013 42.5085L331.676 44.48ZM315.164 40.128L314.348 41.954L314.364 41.9613L314.381 41.9683L315.164 40.128ZM306.588 33.472L304.883 34.5171L304.895 34.5368L304.907 34.5563L306.588 33.472ZM311.452 8.128L312.708 9.6844L312.711 9.68186L311.452 8.128ZM348.572 5.184L347.692 6.98012L347.707 6.98742L347.722 6.99447L348.572 5.184ZM358.3 13.376L356.63 14.476L356.645 14.4997L356.662 14.5229L358.3 13.376ZM362.78 25.152L362.873 27.1498L365.053 27.0484L364.762 24.8852L362.78 25.152ZM346.268 25.92L344.301 26.2842L344.619 27.9989L346.361 27.9178L346.268 25.92ZM343.964 19.904L342.287 20.994V20.994L343.964 19.904ZM339.484 16.064L338.59 17.8529L338.623 17.8694L338.656 17.8847L339.484 16.064ZM324.124 16.96L325.357 18.535L324.124 16.96ZM322.46 27.584L320.833 28.7465L320.859 28.7837L320.887 28.8196L322.46 27.584ZM326.94 30.528L326.238 32.4007L326.272 32.4137L326.308 32.4254L326.94 30.528ZM335.132 32.448L334.787 34.4181L334.807 34.4215L334.826 34.4245L335.132 32.448ZM352.028 36.8L351.226 38.6323L351.249 38.6423L351.272 38.6517L352.028 36.8ZM360.86 43.456L359.164 44.516L359.184 44.5472L359.204 44.5777L360.86 43.456ZM359.836 64.192L358.279 62.9373L358.268 62.9506L358.257 62.9641L359.836 64.192ZM349.596 71.232L350.262 73.118L350.272 73.1143L350.282 73.1105L349.596 71.232ZM334.236 71.536C327.676 71.536 322.286 70.5794 317.996 68.752L316.428 72.432C321.354 74.53 327.313 75.536 334.236 75.536V71.536ZM318.008 68.7573C313.77 66.9181 310.582 64.4021 308.349 61.2451L305.083 63.5549C307.799 67.3952 311.609 70.3406 316.416 72.4267L318.008 68.7573ZM308.349 61.2451C306.091 58.0531 304.801 54.4341 304.486 50.3426L300.498 50.6494C300.866 55.4326 302.392 59.7495 305.083 63.5549L308.349 61.2451ZM302.583 52.4939L319.352 51.7259L319.168 47.7301L302.4 48.4981L302.583 52.4939ZM317.287 50.0568C317.949 54.0298 319.644 57.2713 322.471 59.5935L325.009 56.5025C323.058 54.8994 321.765 52.5942 321.233 49.3992L317.287 50.0568ZM322.471 59.5935C325.362 61.9685 329.437 62.992 334.364 62.992V58.992C329.904 58.992 326.897 58.0528 325.009 56.5025L322.471 59.5935ZM334.364 62.992C338.369 62.992 341.746 62.3761 344.301 60.945L342.347 57.455C340.636 58.4132 338.039 58.992 334.364 58.992V62.992ZM344.323 60.9324C347.186 59.281 348.652 56.6432 348.652 53.312H344.652C344.652 55.2715 343.899 56.559 342.325 57.4676L344.323 60.9324ZM348.652 53.312C348.652 51.4323 348.176 49.7072 347.1 48.272L343.9 50.672C344.36 51.2848 344.652 52.1197 344.652 53.312H348.652ZM347.1 48.272C345.978 46.7763 344.079 45.7134 341.825 44.9022L340.471 48.6658C342.484 49.3906 343.486 50.1197 343.9 50.672L347.1 48.272ZM341.825 44.9022C339.536 44.078 336.25 43.2867 332.037 42.5129L331.315 46.4471C335.464 47.2093 338.493 47.954 340.471 48.6658L341.825 44.9022ZM332.013 42.5085C325.086 41.3259 319.754 39.9075 315.947 38.2877L314.381 41.9683C318.596 43.7618 324.272 45.2448 331.339 46.4515L332.013 42.5085ZM315.98 38.302C312.189 36.608 309.697 34.6022 308.269 32.3877L304.907 34.5563C306.892 37.6325 310.118 40.064 314.348 41.954L315.98 38.302ZM308.293 32.4269C306.91 30.1695 306.156 27.2692 306.156 23.616H302.156C302.156 27.8134 303.024 31.4839 304.883 34.5171L308.293 32.4269ZM306.156 23.616C306.156 17.8038 308.327 13.2196 312.708 9.68439L310.196 6.5716C304.849 10.8871 302.156 16.6282 302.156 23.616H306.156ZM312.711 9.68186C317.167 6.07104 323.856 4.112 333.084 4.112V0.112C323.368 0.112 315.636 2.16363 310.193 6.57413L312.711 9.68186ZM333.084 4.112C339.016 4.112 343.858 5.10204 347.692 6.98012L349.452 3.38787C344.923 1.16995 339.44 0.112 333.084 0.112V4.112ZM347.722 6.99447C351.605 8.81706 354.549 11.3163 356.63 14.476L359.97 12.276C357.443 8.43835 353.902 5.47627 349.422 3.37352L347.722 6.99447ZM356.662 14.5229C358.854 17.6552 360.24 21.2739 360.798 25.4188L364.762 24.8852C364.125 20.1554 362.525 15.9234 359.938 12.2291L356.662 14.5229ZM362.687 23.1542L346.175 23.9222L346.361 27.9178L362.873 27.1498L362.687 23.1542ZM348.235 25.5558C347.767 23.0319 346.914 20.772 345.641 18.814L342.287 20.994C343.233 22.4493 343.915 24.2001 344.301 26.2842L348.235 25.5558ZM345.641 18.814C344.321 16.7834 342.531 15.2521 340.312 14.2433L338.656 17.8847C340.192 18.5826 341.388 19.6112 342.287 20.994L345.641 18.814ZM340.378 14.2751C338.169 13.1704 335.631 12.656 332.828 12.656V16.656C335.145 16.656 337.044 17.0802 338.59 17.8529L340.378 14.2751ZM332.828 12.656C328.77 12.656 325.351 13.4599 322.891 15.385L325.357 18.535C326.822 17.3881 329.206 16.656 332.828 16.656V12.656ZM322.891 15.385C320.429 17.3119 319.18 19.9484 319.18 23.104H323.18C323.18 21.1396 323.893 19.6801 325.357 18.535L322.891 15.385ZM319.18 23.104C319.18 25.2193 319.688 27.1437 320.833 28.7465L324.087 26.4215C323.526 25.635 323.18 24.5727 323.18 23.104H319.18ZM320.887 28.8196C322.131 30.4022 323.989 31.5575 326.238 32.4007L327.642 28.6553C325.795 27.9625 324.667 27.1551 324.033 26.3484L320.887 28.8196ZM326.308 32.4254C328.488 33.1523 331.327 33.8125 334.787 34.4181L335.477 30.4779C332.11 29.8888 329.488 29.2691 327.572 28.6306L326.308 32.4254ZM334.826 34.4245C341.915 35.5216 347.356 36.9389 351.226 38.6323L352.83 34.9677C348.508 33.0771 342.685 31.5931 335.438 30.4715L334.826 34.4245ZM351.272 38.6517C355.217 40.2617 357.753 42.259 359.164 44.516L362.556 42.396C360.553 39.1917 357.202 36.7516 352.784 34.9483L351.272 38.6517ZM359.204 44.5777C360.735 46.8372 361.548 49.6296 361.548 53.056H365.548C365.548 48.9731 364.569 45.3655 362.516 42.3343L359.204 44.5777ZM361.548 53.056C361.548 57.0017 360.437 60.258 358.279 62.9373L361.394 65.4467C364.184 61.982 365.548 57.8143 365.548 53.056H361.548ZM358.257 62.9641C356.143 65.682 353.07 67.8333 348.91 69.3535L350.282 73.1105C354.997 71.3881 358.75 68.846 361.415 65.4199L358.257 62.9641ZM348.93 69.346C344.842 70.789 339.957 71.536 334.236 71.536V75.536C340.291 75.536 345.646 74.747 350.262 73.118L348.93 69.346ZM19.784 169.304L19.0736 171.174L19.784 169.304ZM9.416 162.392L7.91632 163.715L7.91882 163.718L9.416 162.392ZM4.04 152.28L3.90395 150.285L1.48205 150.45L2.10753 152.795L4.04 152.28ZM20.936 151.128L22.8334 150.496L22.344 149.027L20.8 149.133L20.936 151.128ZM25.288 157.144L24.132 158.776L24.1476 158.787L24.1634 158.798L25.288 157.144ZM46.792 155.864L45.5308 154.312L45.5164 154.323L45.5023 154.335L46.792 155.864ZM50.888 136.664H52.888L49.09 135.788L50.888 136.664ZM43.08 144.728L44.0406 146.482L44.0565 146.473L44.0723 146.464L43.08 144.728ZM15.944 143.576L14.8575 145.255L14.8765 145.267L14.8958 145.279L15.944 143.576ZM5.704 131.928L3.90906 132.81L3.91515 132.822L5.704 131.928ZM5.576 97.24L3.7811 96.3578L3.77798 96.3641L3.7749 96.3705L5.576 97.24ZM15.816 85.464L16.9025 87.1431L16.914 87.1357L16.9254 87.1281L15.816 85.464ZM43.592 84.44L44.6447 82.7395H44.6447L43.592 84.44ZM51.4 93.272L49.5706 94.0803L53.4 93.272H51.4ZM51.4 82.648V80.648H49.4V82.648H51.4ZM67.4 82.648H69.4V80.648H67.4V82.648ZM63.304 159.704L61.6508 158.578L61.6425 158.591L61.6345 158.603L63.304 159.704ZM52.04 168.664L51.2916 166.809L51.2718 166.817L51.2522 166.826L52.04 168.664ZM46.536 129.496L48.0905 130.754L48.0977 130.745L48.1048 130.736L46.536 129.496ZM51.016 114.392L49.0164 114.352L49.0162 114.365L51.016 114.392ZM49.096 103.512L47.2498 104.281L47.2629 104.313L47.2771 104.344L49.096 103.512ZM43.464 96.472L42.3015 98.0995L42.3343 98.1229L42.3679 98.1449L43.464 96.472ZM23.112 99.544L21.512 98.344L21.5075 98.35L23.112 99.544ZM23.24 129.368L21.64 130.568L21.6553 130.588L21.6712 130.608L23.24 129.368ZM35.144 169.736C29.3424 169.736 24.4761 168.947 20.4944 167.434L19.0736 171.174C23.6252 172.903 28.9989 173.736 35.144 173.736V169.736ZM20.4944 167.434C16.4862 165.911 13.315 163.778 10.9132 161.066L7.91882 163.718C10.8077 166.98 14.5484 169.454 19.0736 171.174L20.4944 167.434ZM10.9157 161.069C8.5662 158.406 6.91893 155.314 5.97247 151.765L2.10753 152.795C3.20907 156.926 5.1458 160.575 7.91632 163.715L10.9157 161.069ZM4.17605 154.275L21.072 153.123L20.8 149.133L3.90395 150.285L4.17605 154.275ZM19.0386 151.76C20.0158 154.692 21.7102 157.061 24.132 158.776L26.444 155.512C24.7698 154.326 23.5629 152.684 22.8334 150.496L19.0386 151.76ZM24.1634 158.798C26.791 160.585 30.5621 161.32 35.144 161.32V157.32C30.8513 157.32 28.0517 156.605 26.4126 155.49L24.1634 158.798ZM35.144 161.32C40.4599 161.32 44.8672 160.105 48.0817 157.393L45.5023 154.335C43.2554 156.231 39.8974 157.32 35.144 157.32V161.32ZM48.0532 157.416C51.404 154.694 52.888 150.52 52.888 145.368H48.888C48.888 149.774 47.6413 152.597 45.5308 154.312L48.0532 157.416ZM52.888 145.368V136.664H48.888V145.368H52.888ZM49.09 135.788C47.6646 138.714 45.3645 141.119 42.0877 142.992L44.0723 146.464C47.9635 144.241 50.8687 141.27 52.686 137.54L49.09 135.788ZM42.1194 142.974C38.8548 144.762 35.1792 145.672 31.048 145.672V149.672C35.7915 149.672 40.1372 148.62 44.0406 146.482L42.1194 142.974ZM31.048 145.672C25.755 145.672 21.0888 144.394 16.9922 141.873L14.8958 145.279C19.6738 148.22 25.077 149.672 31.048 149.672V145.672ZM17.0305 141.897C12.9989 139.288 9.81891 135.686 7.49286 131.034L3.91515 132.822C6.53843 138.069 10.1851 142.232 14.8575 145.255L17.0305 141.897ZM7.4989 131.046C5.18043 126.329 3.992 120.837 3.992 114.52H-0.0079999C-0.0079999 121.344 1.27823 127.458 3.9091 132.81L7.4989 131.046ZM3.992 114.52C3.992 108.192 5.14182 102.74 7.3771 98.1095L3.7749 96.3705C1.23151 101.639 -0.0079999 107.706 -0.0079999 114.52H3.992ZM7.3709 98.1222C9.69949 93.3848 12.8793 89.7464 16.9025 87.1431L14.7295 83.7849C10.0487 86.8136 6.40184 91.0259 3.7811 96.3578L7.3709 98.1222ZM16.9254 87.1281C20.9234 84.4628 25.5231 83.112 30.792 83.112V79.112C24.7969 79.112 19.4126 80.6626 14.7066 83.7999L16.9254 87.1281ZM30.792 83.112C35.4351 83.112 39.3231 84.1495 42.5393 86.1405L44.6447 82.7395C40.6929 80.2931 36.0476 79.112 30.792 79.112V83.112ZM42.5393 86.1405C45.7988 88.1583 48.1208 90.7992 49.5706 94.0803L53.2294 92.4637C51.4365 88.4061 48.5532 85.159 44.6447 82.7395L42.5393 86.1405ZM53.4 93.272V82.648H49.4V93.272H53.4ZM51.4 84.648H67.4V80.648H51.4V84.648ZM65.4 82.648V144.984H69.4V82.648H65.4ZM65.4 144.984C65.4 150.465 64.1143 154.96 61.6508 158.578L64.9572 160.83C67.9551 156.426 69.4 151.108 69.4 144.984H65.4ZM61.6345 158.603C59.2332 162.243 55.8154 164.984 51.2916 166.809L52.7884 170.519C57.9926 168.419 62.0842 165.186 64.9735 160.805L61.6345 158.603ZM51.2522 166.826C46.7759 168.744 41.4234 169.736 35.144 169.736V173.736C41.8353 173.736 47.7468 172.68 52.8278 170.502L51.2522 166.826ZM34.888 136.872C40.3174 136.872 44.7861 134.836 48.0905 130.754L44.9815 128.238C42.4833 131.324 39.1866 132.872 34.888 132.872V136.872ZM48.1048 130.736C51.3649 126.613 52.9268 121.099 53.0158 114.419L49.0162 114.365C48.9346 120.485 47.5098 125.04 44.9672 128.256L48.1048 130.736ZM53.0156 114.432C53.1052 109.951 52.4368 106.009 50.915 102.68L47.2771 104.344C48.4859 106.988 49.0975 110.299 49.0164 114.352L53.0156 114.432ZM50.9422 102.743C49.5281 99.3491 47.4104 96.6666 44.5601 94.7991L42.3679 98.1449C44.4669 99.5201 46.1039 101.531 47.2498 104.281L50.9422 102.743ZM44.6265 94.8445C41.8537 92.864 38.575 91.912 34.888 91.912V95.912C37.857 95.912 40.2956 96.6667 42.3015 98.0995L44.6265 94.8445ZM34.888 91.912C29.277 91.912 24.7365 94.0446 21.512 98.344L24.712 100.744C27.1195 97.534 30.4296 95.912 34.888 95.912V91.912ZM21.5075 98.35C18.4415 102.47 17.016 107.886 17.016 114.392H21.016C21.016 108.44 22.3211 103.957 24.7165 100.738L21.5075 98.35ZM17.016 114.392C17.016 120.913 18.4909 126.369 21.64 130.568L24.84 128.168C22.3571 124.857 21.016 120.329 21.016 114.392H17.016ZM21.6712 130.608C24.969 134.779 29.4407 136.872 34.888 136.872V132.872C30.6073 132.872 27.3137 131.295 24.8088 128.128L21.6712 130.608ZM87.895 147.672L86.6801 149.261L86.69 149.268L86.7 149.276L87.895 147.672ZM86.871 120.024L88.2146 121.505L86.871 120.024ZM103.639 112.856L104.018 114.82L104.027 114.818L103.639 112.856ZM126.295 108.376L126.683 110.338L128.295 110.019V108.376H126.295ZM122.967 97.496L121.478 98.8311L121.49 98.8441L121.501 98.8569L122.967 97.496ZM103.767 96.6L105.024 98.1559L105.03 98.1505L103.767 96.6ZM99.159 104.408L99.0668 106.406L100.702 106.481L101.099 104.893L99.159 104.408ZM82.519 103.64L80.5535 103.27L80.1278 105.532L82.4268 105.638L82.519 103.64ZM92.503 87L93.6778 88.6186L93.6863 88.6124L93.6947 88.6062L92.503 87ZM135.127 88.536L133.713 89.9502L133.725 89.9624L133.737 89.9744L135.127 88.536ZM143.575 138.072L142.07 139.389L142.114 139.439L142.161 139.486L143.575 138.072ZM148.695 139.096H150.695V137.096H148.695V139.096ZM148.695 151L149.327 152.897L150.695 152.442V151H148.695ZM146.135 151.384L145.993 149.389L145.982 149.39L146.135 151.384ZM135.127 150.232L134.348 152.074L134.378 152.087L134.409 152.099L135.127 150.232ZM130.007 145.496L128.231 146.417L128.239 146.43L128.246 146.444L130.007 145.496ZM128.215 136.152L129.391 134.535L126.215 132.224V136.152H128.215ZM129.623 137.176L131.573 137.622L131.867 136.335L130.799 135.559L129.623 137.176ZM125.143 145.24L123.703 143.852L123.702 143.853L125.143 145.24ZM116.695 150.616L117.397 152.489L116.695 150.616ZM117.975 138.456L118.937 140.21L117.975 138.456ZM124.119 132.44L125.859 133.426L124.119 132.44ZM126.295 119.512H128.295V117.065L125.897 117.552L126.295 119.512ZM108.631 123.096L108.233 121.136L108.221 121.138L108.631 123.096ZM100.695 126.552L102.068 128.006L102.07 128.004L100.695 126.552ZM100.951 138.456L99.6557 139.98L99.674 139.995L99.6926 140.01L100.951 138.456ZM105.175 150.536C98.3001 150.536 93.0007 148.982 89.09 146.068L86.7 149.276C91.4933 152.847 97.7139 154.536 105.175 154.536V150.536ZM89.1099 146.083C85.294 143.165 83.367 139.167 83.367 133.848H79.367C79.367 140.305 81.792 145.523 86.6801 149.261L89.1099 146.083ZM83.367 133.848C83.367 128.408 85.0422 124.383 88.2146 121.505L85.5274 118.543C81.3612 122.321 79.367 127.512 79.367 133.848H83.367ZM88.2146 121.505C91.5033 118.523 96.6888 116.236 104.018 114.82L103.26 110.892C95.5706 112.378 89.5774 114.869 85.5274 118.543L88.2146 121.505ZM104.027 114.818L126.683 110.338L125.907 106.414L103.251 110.894L104.027 114.818ZM128.295 108.376C128.295 103.25 127.131 99.0406 124.433 96.1351L121.501 98.8569C123.241 100.73 124.295 103.774 124.295 108.376H128.295ZM124.456 96.1609C121.749 93.1419 117.845 91.784 113.111 91.784V95.784C117.081 95.784 119.747 96.9007 121.478 98.8311L124.456 96.1609ZM113.111 91.784C108.874 91.784 105.265 92.7997 102.504 95.0495L105.03 98.1505C106.877 96.6457 109.497 95.784 113.111 95.784V91.784ZM102.51 95.0441C99.8809 97.1679 98.1524 100.188 97.2187 103.923L101.099 104.893C101.872 101.801 103.216 99.6161 105.024 98.1559L102.51 95.0441ZM99.2512 102.41L82.6112 101.642L82.4268 105.638L99.0668 106.406L99.2512 102.41ZM84.4845 104.01C85.7685 97.1885 88.8547 92.1192 93.6778 88.6186L91.3282 85.3814C85.57 89.5608 82.0002 95.5848 80.5535 103.27L84.4845 104.01ZM93.6947 88.6062C98.5542 85.0007 104.97 83.112 113.111 83.112V79.112C104.356 79.112 97.0331 81.1486 91.3113 85.3938L93.6947 88.6062ZM113.111 83.112C122.519 83.112 129.265 85.5023 133.713 89.9502L136.541 87.1218C131.09 81.671 123.159 79.112 113.111 79.112V83.112ZM133.737 89.9744C138.273 94.3563 140.679 100.767 140.679 109.528H144.679C144.679 100.028 142.05 92.4437 136.517 87.0976L133.737 89.9744ZM140.679 109.528V134.36H144.679V109.528H140.679ZM140.679 134.36C140.679 136.231 140.962 138.122 142.07 139.389L145.08 136.755C144.994 136.656 144.679 136.073 144.679 134.36H140.679ZM142.161 139.486C143.328 140.654 144.887 141.096 146.519 141.096V137.096C145.591 137.096 145.187 136.855 144.989 136.658L142.161 139.486ZM146.519 141.096H148.695V137.096H146.519V141.096ZM146.695 139.096V151H150.695V139.096H146.695ZM148.063 149.103C147.808 149.188 147.172 149.305 145.993 149.389L146.277 153.379C147.487 153.293 148.558 153.154 149.327 152.897L148.063 149.103ZM145.982 149.39C144.927 149.471 143.826 149.512 142.679 149.512V153.512C143.921 153.512 145.124 153.468 146.288 153.378L145.982 149.39ZM142.679 149.512C140.064 149.512 137.796 149.116 135.845 148.365L134.409 152.099C136.895 153.055 139.662 153.512 142.679 153.512V149.512ZM135.906 148.39C134.127 147.637 132.757 146.385 131.768 144.548L128.246 146.444C129.646 149.044 131.689 150.949 134.348 152.074L135.906 148.39ZM131.783 144.575C130.792 142.665 130.215 139.907 130.215 136.152H126.215C126.215 140.248 126.833 143.719 128.231 146.417L131.783 144.575ZM127.039 137.769L128.447 138.793L130.799 135.559L129.391 134.535L127.039 137.769ZM127.673 136.73C127.078 139.333 125.777 141.702 123.703 143.852L126.583 146.628C129.117 144 130.802 140.993 131.573 137.622L127.673 136.73ZM123.702 143.853C121.718 145.914 119.166 147.553 115.993 148.743L117.397 152.489C121.051 151.119 124.131 149.174 126.584 146.627L123.702 143.853ZM115.993 148.743C112.839 149.926 109.242 150.536 105.175 150.536V154.536C109.641 154.536 113.725 153.866 117.397 152.489L115.993 148.743ZM108.503 142.632C112.436 142.632 115.939 141.853 118.937 140.21L117.013 136.702C114.72 137.96 111.908 138.632 108.503 138.632V142.632ZM118.937 140.21C121.899 138.585 124.22 136.318 125.859 133.426L122.379 131.454C121.116 133.682 119.342 135.426 117.013 136.702L118.937 140.21ZM125.859 133.426C127.51 130.513 128.295 127.131 128.295 123.352H124.295C124.295 126.571 123.63 129.247 122.379 131.454L125.859 133.426ZM128.295 123.352V119.512H124.295V123.352H128.295ZM125.897 117.552L108.233 121.136L109.029 125.056L126.693 121.472L125.897 117.552ZM108.221 121.138C104.408 121.937 101.336 123.19 99.3195 125.1L102.07 128.004C103.297 126.842 105.515 125.791 109.041 125.054L108.221 121.138ZM99.3218 125.098C97.3315 126.978 96.391 129.452 96.391 132.312H100.391C100.391 130.394 100.986 129.028 102.068 128.006L99.3218 125.098ZM96.391 132.312C96.391 135.427 97.4197 138.079 99.6557 139.98L102.246 136.932C101.069 135.931 100.391 134.488 100.391 132.312H96.391ZM99.6926 140.01C101.961 141.847 104.985 142.632 108.503 142.632V138.632C105.535 138.632 103.525 137.967 102.209 136.902L99.6926 140.01ZM159.335 151H157.335V153H159.335V151ZM159.335 82.648V80.648H157.335V82.648H159.335ZM174.695 82.648L176.694 82.5805L176.629 80.648H174.695V82.648ZM175.335 101.592L174.977 103.56L177.418 104.003L177.334 101.524L175.335 101.592ZM173.927 101.336L171.951 101.028L171.651 102.955L173.569 103.304L173.927 101.336ZM179.687 87.128L178.252 85.7344L178.252 85.735L179.687 87.128ZM197.735 82.648H199.735V80.648H197.735V82.648ZM197.735 96.728V98.728H199.735V96.728H197.735ZM182.631 98.264L181.819 96.4364L182.631 98.264ZM177.383 103.128L175.622 102.18L175.615 102.192L175.609 102.205L177.383 103.128ZM175.719 151V153H177.719V151H175.719ZM161.335 151V82.648H157.335V151H161.335ZM159.335 84.648H174.695V80.648H159.335V84.648ZM172.696 82.7155L173.336 101.66L177.334 101.524L176.694 82.5805L172.696 82.7155ZM175.693 99.6243L174.285 99.3683L173.569 103.304L174.977 103.56L175.693 99.6243ZM175.903 101.644C176.901 95.2425 178.727 90.989 181.122 88.521L178.252 85.735C175.015 89.0697 173.001 94.2882 171.951 101.028L175.903 101.644ZM181.122 88.5216C183.576 85.9949 186.944 84.648 191.463 84.648V80.648C186.083 80.648 181.601 82.2877 178.252 85.7344L181.122 88.5216ZM191.463 84.648H197.735V80.648H191.463V84.648ZM195.735 82.648V96.728H199.735V82.648H195.735ZM197.735 94.728H191.335V98.728H197.735V94.728ZM191.335 94.728C187.658 94.728 184.457 95.2637 181.819 96.4364L183.443 100.092C185.413 99.2163 188.015 98.728 191.335 98.728V94.728ZM181.819 96.4364C179.11 97.6402 177.027 99.5708 175.622 102.18L179.144 104.076C180.128 102.248 181.544 100.936 183.443 100.092L181.819 96.4364ZM175.609 102.205C174.299 104.724 173.719 107.892 173.719 111.576H177.719C177.719 108.263 178.248 105.799 179.157 104.051L175.609 102.205ZM173.719 111.576V151H177.719V111.576H173.719ZM175.719 149H159.335V153H175.719V149ZM209.645 147.672L208.43 149.261L208.44 149.268L208.45 149.276L209.645 147.672ZM208.621 120.024L209.965 121.505L208.621 120.024ZM225.389 112.856L225.768 114.82L225.777 114.818L225.389 112.856ZM248.045 108.376L248.433 110.338L250.045 110.019V108.376H248.045ZM244.717 97.496L243.228 98.8311L243.24 98.8441L243.251 98.8569L244.717 97.496ZM225.517 96.6L226.774 98.1559L226.78 98.1505L225.517 96.6ZM220.909 104.408L220.817 106.406L222.452 106.481L222.849 104.893L220.909 104.408ZM204.269 103.64L202.304 103.27L201.878 105.532L204.177 105.638L204.269 103.64ZM214.253 87L215.428 88.6186L215.436 88.6124L215.445 88.6062L214.253 87ZM256.877 88.536L255.463 89.9502L255.475 89.9624L255.487 89.9744L256.877 88.536ZM265.325 138.072L263.82 139.389L263.864 139.439L263.911 139.486L265.325 138.072ZM270.445 139.096H272.445V137.096H270.445V139.096ZM270.445 151L271.077 152.897L272.445 152.442V151H270.445ZM267.885 151.384L267.742 149.389L267.732 149.39L267.885 151.384ZM256.877 150.232L256.098 152.074L256.128 152.087L256.159 152.099L256.877 150.232ZM251.757 145.496L249.981 146.417L249.989 146.43L249.996 146.444L251.757 145.496ZM249.965 136.152L251.141 134.535L247.965 132.224V136.152H249.965ZM251.373 137.176L253.323 137.622L253.617 136.335L252.549 135.559L251.373 137.176ZM246.893 145.24L245.453 143.852L245.452 143.853L246.893 145.24ZM238.445 150.616L239.147 152.489L238.445 150.616ZM239.725 138.456L240.687 140.21L239.725 138.456ZM245.869 132.44L247.609 133.426L245.869 132.44ZM248.045 119.512H250.045V117.065L247.647 117.552L248.045 119.512ZM230.381 123.096L229.983 121.136L229.971 121.138L230.381 123.096ZM222.445 126.552L223.818 128.006L223.82 128.004L222.445 126.552ZM222.701 138.456L221.406 139.98L221.424 139.995L221.443 140.01L222.701 138.456ZM226.925 150.536C220.05 150.536 214.751 148.982 210.84 146.068L208.45 149.276C213.243 152.847 219.464 154.536 226.925 154.536V150.536ZM210.86 146.083C207.044 143.165 205.117 139.167 205.117 133.848H201.117C201.117 140.305 203.542 145.523 208.43 149.261L210.86 146.083ZM205.117 133.848C205.117 128.408 206.792 124.383 209.965 121.505L207.277 118.543C203.111 122.321 201.117 127.512 201.117 133.848H205.117ZM209.965 121.505C213.253 118.523 218.439 116.236 225.768 114.82L225.01 110.892C217.321 112.378 211.327 114.869 207.277 118.543L209.965 121.505ZM225.777 114.818L248.433 110.338L247.657 106.414L225.001 110.894L225.777 114.818ZM250.045 108.376C250.045 103.25 248.881 99.0406 246.183 96.1351L243.251 98.8569C244.991 100.73 246.045 103.774 246.045 108.376H250.045ZM246.206 96.1609C243.499 93.1419 239.595 91.784 234.861 91.784V95.784C238.831 95.784 241.497 96.9007 243.228 98.8311L246.206 96.1609ZM234.861 91.784C230.624 91.784 227.015 92.7997 224.254 95.0495L226.78 98.1505C228.627 96.6457 231.247 95.784 234.861 95.784V91.784ZM224.26 95.0441C221.631 97.1679 219.902 100.188 218.969 103.923L222.849 104.893C223.622 101.801 224.966 99.6161 226.774 98.1559L224.26 95.0441ZM221.001 102.41L204.361 101.642L204.177 105.638L220.817 106.406L221.001 102.41ZM206.234 104.01C207.519 97.1885 210.605 92.1192 215.428 88.6186L213.078 85.3814C207.32 89.5608 203.75 95.5848 202.304 103.27L206.234 104.01ZM215.445 88.6062C220.304 85.0007 226.72 83.112 234.861 83.112V79.112C226.106 79.112 218.783 81.1486 213.061 85.3938L215.445 88.6062ZM234.861 83.112C244.269 83.112 251.015 85.5023 255.463 89.9502L258.291 87.1218C252.84 81.671 244.909 79.112 234.861 79.112V83.112ZM255.487 89.9744C260.023 94.3563 262.429 100.767 262.429 109.528H266.429C266.429 100.028 263.8 92.4437 258.267 87.0976L255.487 89.9744ZM262.429 109.528V134.36H266.429V109.528H262.429ZM262.429 134.36C262.429 136.231 262.712 138.122 263.82 139.389L266.83 136.755C266.744 136.656 266.429 136.073 266.429 134.36H262.429ZM263.911 139.486C265.078 140.654 266.637 141.096 268.269 141.096V137.096C267.341 137.096 266.937 136.855 266.739 136.658L263.911 139.486ZM268.269 141.096H270.445V137.096H268.269V141.096ZM268.445 139.096V151H272.445V139.096H268.445ZM269.813 149.103C269.558 149.188 268.922 149.305 267.743 149.389L268.027 153.379C269.237 153.293 270.308 153.154 271.077 152.897L269.813 149.103ZM267.732 149.39C266.677 149.471 265.576 149.512 264.429 149.512V153.512C265.671 153.512 266.874 153.468 268.038 153.378L267.732 149.39ZM264.429 149.512C261.814 149.512 259.546 149.116 257.595 148.365L256.159 152.099C258.645 153.055 261.412 153.512 264.429 153.512V149.512ZM257.656 148.39C255.877 147.637 254.507 146.385 253.518 144.548L249.996 146.444C251.396 149.044 253.439 150.949 256.098 152.074L257.656 148.39ZM253.533 144.575C252.542 142.665 251.965 139.907 251.965 136.152H247.965C247.965 140.248 248.583 143.719 249.981 146.417L253.533 144.575ZM248.789 137.769L250.197 138.793L252.549 135.559L251.141 134.535L248.789 137.769ZM249.423 136.73C248.828 139.333 247.527 141.702 245.453 143.852L248.333 146.628C250.867 144 252.552 140.993 253.323 137.622L249.423 136.73ZM245.452 143.853C243.468 145.914 240.916 147.553 237.743 148.743L239.147 152.489C242.801 151.119 245.881 149.174 248.334 146.627L245.452 143.853ZM237.743 148.743C234.589 149.926 230.992 150.536 226.925 150.536V154.536C231.391 154.536 235.475 153.866 239.147 152.489L237.743 148.743ZM230.253 142.632C234.186 142.632 237.689 141.853 240.687 140.21L238.763 136.702C236.47 137.96 233.658 138.632 230.253 138.632V142.632ZM240.687 140.21C243.649 138.585 245.97 136.318 247.609 133.426L244.129 131.454C242.866 133.682 241.092 135.426 238.763 136.702L240.687 140.21ZM247.609 133.426C249.26 130.513 250.045 127.131 250.045 123.352H246.045C246.045 126.571 245.38 129.247 244.129 131.454L247.609 133.426ZM250.045 123.352V119.512H246.045V123.352H250.045ZM247.647 117.552L229.983 121.136L230.779 125.056L248.443 121.472L247.647 117.552ZM229.971 121.138C226.158 121.937 223.086 123.19 221.07 125.1L223.82 128.004C225.047 126.842 227.265 125.791 230.791 125.054L229.971 121.138ZM221.072 125.098C219.082 126.978 218.141 129.452 218.141 132.312H222.141C222.141 130.394 222.736 129.028 223.818 128.006L221.072 125.098ZM218.141 132.312C218.141 135.427 219.17 138.079 221.406 139.98L223.996 136.932C222.819 135.931 222.141 134.488 222.141 132.312H218.141ZM221.443 140.01C223.711 141.847 226.735 142.632 230.253 142.632V138.632C227.285 138.632 225.275 137.967 223.959 136.902L221.443 140.01ZM294.159 169.304L293.449 171.174L294.159 169.304ZM283.791 162.392L282.291 163.715L282.294 163.718L283.791 162.392ZM278.415 152.28L278.279 150.285L275.857 150.45L276.483 152.795L278.415 152.28ZM295.311 151.128L297.208 150.496L296.719 149.027L295.175 149.133L295.311 151.128ZM299.663 157.144L298.507 158.776L298.523 158.787L298.538 158.798L299.663 157.144ZM321.167 155.864L319.906 154.312L319.891 154.323L319.877 154.335L321.167 155.864ZM325.263 136.664H327.263L323.465 135.788L325.263 136.664ZM317.455 144.728L318.416 146.482L318.432 146.473L318.447 146.464L317.455 144.728ZM290.319 143.576L289.232 145.255L289.252 145.267L289.271 145.279L290.319 143.576ZM280.079 131.928L278.284 132.81L278.29 132.822L280.079 131.928ZM279.951 97.24L278.156 96.3578L278.153 96.3641L278.15 96.3705L279.951 97.24ZM290.191 85.464L291.277 87.1431L291.289 87.1357L291.3 87.1281L290.191 85.464ZM317.967 84.44L319.02 82.7395L317.967 84.44ZM325.775 93.272L323.946 94.0803L327.775 93.272H325.775ZM325.775 82.648V80.648H323.775V82.648H325.775ZM341.775 82.648H343.775V80.648H341.775V82.648ZM337.679 159.704L336.026 158.578L336.018 158.591L336.009 158.603L337.679 159.704ZM326.415 168.664L325.667 166.809L325.647 166.817L325.627 166.826L326.415 168.664ZM320.911 129.496L322.465 130.754L322.473 130.745L322.48 130.736L320.911 129.496ZM325.391 114.392L323.391 114.352L323.391 114.365L325.391 114.392ZM323.471 103.512L321.625 104.281L321.638 104.313L321.652 104.344L323.471 103.512ZM317.839 96.472L316.677 98.0995L316.709 98.1229L316.743 98.1449L317.839 96.472ZM297.487 99.544L295.887 98.344L295.883 98.35L297.487 99.544ZM297.615 129.368L296.015 130.568L296.03 130.588L296.046 130.608L297.615 129.368ZM309.519 169.736C303.717 169.736 298.851 168.947 294.869 167.434L293.449 171.174C298 172.903 303.374 173.736 309.519 173.736V169.736ZM294.869 167.434C290.861 165.911 287.69 163.778 285.288 161.066L282.294 163.718C285.183 166.98 288.923 169.454 293.449 171.174L294.869 167.434ZM285.291 161.069C282.941 158.406 281.294 155.314 280.347 151.765L276.483 152.795C277.584 156.926 279.521 160.575 282.291 163.715L285.291 161.069ZM278.551 154.275L295.447 153.123L295.175 149.133L278.279 150.285L278.551 154.275ZM293.414 151.76C294.391 154.692 296.085 157.061 298.507 158.776L300.819 155.512C299.145 154.326 297.938 152.684 297.208 150.496L293.414 151.76ZM298.538 158.798C301.166 160.585 304.937 161.32 309.519 161.32V157.32C305.226 157.32 302.427 156.605 300.788 155.49L298.538 158.798ZM309.519 161.32C314.835 161.32 319.242 160.105 322.457 157.393L319.877 154.335C317.63 156.231 314.272 157.32 309.519 157.32V161.32ZM322.428 157.416C325.779 154.694 327.263 150.52 327.263 145.368H323.263C323.263 149.774 322.016 152.597 319.906 154.312L322.428 157.416ZM327.263 145.368V136.664H323.263V145.368H327.263ZM323.465 135.788C322.04 138.714 319.74 141.119 316.463 142.992L318.447 146.464C322.338 144.241 325.244 141.27 327.061 137.54L323.465 135.788ZM316.494 142.974C313.23 144.762 309.554 145.672 305.423 145.672V149.672C310.167 149.672 314.512 148.62 318.416 146.482L316.494 142.974ZM305.423 145.672C300.13 145.672 295.464 144.394 291.367 141.873L289.271 145.279C294.049 148.22 299.452 149.672 305.423 149.672V145.672ZM291.406 141.897C287.374 139.288 284.194 135.686 281.868 131.034L278.29 132.822C280.913 138.069 284.56 142.232 289.232 145.255L291.406 141.897ZM281.874 131.046C279.555 126.329 278.367 120.837 278.367 114.52H274.367C274.367 121.344 275.653 127.458 278.284 132.81L281.874 131.046ZM278.367 114.52C278.367 108.192 279.517 102.74 281.752 98.1095L278.15 96.3705C275.607 101.639 274.367 107.706 274.367 114.52H278.367ZM281.746 98.1222C284.074 93.3848 287.254 89.7464 291.277 87.1431L289.104 83.7849C284.424 86.8136 280.777 91.0259 278.156 96.3578L281.746 98.1222ZM291.3 87.1281C295.298 84.4628 299.898 83.112 305.167 83.112V79.112C299.172 79.112 293.788 80.6626 289.082 83.7999L291.3 87.1281ZM305.167 83.112C309.81 83.112 313.698 84.1495 316.914 86.1405L319.02 82.7395C315.068 80.2931 310.423 79.112 305.167 79.112V83.112ZM316.914 86.1405C320.174 88.1583 322.496 90.7992 323.946 94.0803L327.604 92.4637C325.811 88.4061 322.928 85.159 319.02 82.7395L316.914 86.1405ZM327.775 93.272V82.648H323.775V93.272H327.775ZM325.775 84.648H341.775V80.648H325.775V84.648ZM339.775 82.648V144.984H343.775V82.648H339.775ZM339.775 144.984C339.775 150.465 338.489 154.96 336.026 158.578L339.332 160.83C342.33 156.426 343.775 151.108 343.775 144.984H339.775ZM336.009 158.603C333.608 162.243 330.19 164.984 325.667 166.809L327.163 170.519C332.368 168.419 336.459 165.186 339.349 160.805L336.009 158.603ZM325.627 166.826C321.151 168.744 315.798 169.736 309.519 169.736V173.736C316.21 173.736 322.122 172.68 327.203 170.502L325.627 166.826ZM309.263 136.872C314.692 136.872 319.161 134.836 322.465 130.754L319.357 128.238C316.858 131.324 313.562 132.872 309.263 132.872V136.872ZM322.48 130.736C325.74 126.613 327.302 121.099 327.391 114.419L323.391 114.365C323.31 120.485 321.885 125.04 319.342 128.256L322.48 130.736ZM327.391 114.432C327.48 109.951 326.812 106.009 325.29 102.68L321.652 104.344C322.861 106.988 323.472 110.299 323.391 114.352L327.391 114.432ZM325.317 102.743C323.903 99.3491 321.785 96.6666 318.935 94.7991L316.743 98.1449C318.842 99.5201 320.479 101.531 321.625 104.281L325.317 102.743ZM319.001 94.8445C316.229 92.864 312.95 91.912 309.263 91.912V95.912C312.232 95.912 314.671 96.6667 316.677 98.0995L319.001 94.8445ZM309.263 91.912C303.652 91.912 299.112 94.0446 295.887 98.344L299.087 100.744C301.494 97.534 304.805 95.912 309.263 95.912V91.912ZM295.883 98.35C292.817 102.47 291.391 107.886 291.391 114.392H295.391C295.391 108.44 296.696 103.957 299.091 100.738L295.883 98.35ZM291.391 114.392C291.391 120.913 292.866 126.369 296.015 130.568L299.215 128.168C296.732 124.857 295.391 120.329 295.391 114.392H291.391ZM296.046 130.608C299.344 134.779 303.816 136.872 309.263 136.872V132.872C304.982 132.872 301.689 131.295 299.184 128.128L296.046 130.608ZM370.236 148.184L369.216 149.904L369.226 149.911L369.237 149.917L370.236 148.184ZM358.588 135.64L356.805 136.546L358.588 135.64ZM358.588 98.136L360.365 99.0533L360.371 99.0417L358.588 98.136ZM370.108 85.592L369.088 83.8719L369.081 83.8757L369.075 83.8796L370.108 85.592ZM404.668 85.464L403.643 87.1816L403.65 87.1855L403.657 87.1894L404.668 85.464ZM416.06 98.008L417.86 97.1361L416.06 98.008ZM420.028 121.432V123.432H422.028V121.432H420.028ZM371.516 121.432V119.432H369.398L369.519 121.546L371.516 121.432ZM376.38 135L374.926 136.373L374.946 136.394L374.966 136.414L376.38 135ZM397.244 137.048L398.367 138.703L398.373 138.699L398.379 138.694L397.244 137.048ZM402.364 130.008L402.486 128.012L400.925 127.916L400.456 129.408L402.364 130.008ZM419.132 131.032L421.057 131.575L421.73 129.187L419.254 129.036L419.132 131.032ZM407.996 146.776L406.858 145.132L406.852 145.136L406.846 145.14L407.996 146.776ZM371.516 110.424L369.532 110.168L369.241 112.424H371.516V110.424ZM403.132 110.424V112.424H405.259L405.128 110.301L403.132 110.424ZM398.396 98.136L397.004 99.5718L397.015 99.5828L397.027 99.5937L398.396 98.136ZM376.764 98.264L375.371 96.8288L375.36 96.8392L375.35 96.8498L376.764 98.264ZM388.028 150.536C381.49 150.536 375.916 149.149 371.235 146.451L369.237 149.917C374.625 153.022 380.913 154.536 388.028 154.536V150.536ZM371.256 146.464C366.558 143.677 362.935 139.783 360.371 134.734L356.805 136.546C359.702 142.249 363.844 146.718 369.216 149.904L371.256 146.464ZM360.371 134.734C357.808 129.687 356.492 123.736 356.492 116.824H352.492C352.492 124.248 353.907 130.841 356.805 136.546L360.371 134.734ZM356.492 116.824C356.492 109.911 357.808 104.008 360.365 99.0533L356.811 97.2187C353.907 102.845 352.492 109.401 352.492 116.824H356.492ZM360.371 99.0417C362.94 93.9844 366.527 90.0891 371.141 87.3044L369.075 83.8796C363.791 87.0683 359.697 91.5356 356.805 97.2303L360.371 99.0417ZM371.128 87.3121C375.814 84.5327 381.297 83.112 387.644 83.112V79.112C380.679 79.112 374.472 80.678 369.088 83.8719L371.128 87.3121ZM387.644 83.112C393.822 83.112 399.132 84.4906 403.643 87.1816L405.693 83.7464C400.476 80.6347 394.437 79.112 387.644 79.112V83.112ZM403.657 87.1894C408.244 89.8787 411.777 93.7531 414.26 98.8799L417.86 97.1361C415.053 91.3402 410.99 86.852 405.679 83.7386L403.657 87.1894ZM414.26 98.8799C416.744 104.007 418.028 110.264 418.028 117.72H422.028C422.028 109.816 420.667 102.932 417.86 97.1361L414.26 98.8799ZM418.028 117.72V121.432H422.028V117.72H418.028ZM420.028 119.432H371.516V123.432H420.028V119.432ZM369.519 121.546C369.876 127.797 371.589 132.84 374.926 136.373L377.834 133.627C375.368 131.016 373.838 127.014 373.513 121.318L369.519 121.546ZM374.966 136.414C378.385 139.833 382.849 141.48 388.156 141.48V137.48C383.735 137.48 380.348 136.14 377.794 133.586L374.966 136.414ZM388.156 141.48C392.118 141.48 395.567 140.603 398.367 138.703L396.121 135.393C394.142 136.736 391.533 137.48 388.156 137.48V141.48ZM398.379 138.694C401.237 136.724 403.206 134.001 404.272 130.608L400.456 129.408C399.645 131.989 398.2 133.959 396.109 135.402L398.379 138.694ZM402.242 132.004L419.01 133.028L419.254 129.036L402.486 128.012L402.242 132.004ZM417.207 130.489C415.453 136.71 412.012 141.563 406.858 145.132L409.134 148.42C415.074 144.309 419.057 138.666 421.057 131.575L417.207 130.489ZM406.846 145.14C401.777 148.704 395.541 150.536 388.028 150.536V154.536C396.216 154.536 403.292 152.528 409.146 148.412L406.846 145.14ZM371.516 112.424H403.132V108.424H371.516V112.424ZM405.128 110.301C404.769 104.468 403.088 99.7996 399.765 96.6783L397.027 99.5937C399.336 101.763 400.812 105.287 401.136 110.547L405.128 110.301ZM399.788 96.7002C396.557 93.5667 392.454 92.04 387.644 92.04V96.04C391.538 96.04 394.603 97.244 397.004 99.5718L399.788 96.7002ZM387.644 92.04C382.816 92.04 378.676 93.6213 375.371 96.8288L378.157 99.6992C380.655 97.2747 383.768 96.04 387.644 96.04V92.04ZM375.35 96.8498C372.13 100.07 370.253 104.587 369.532 110.168L373.5 110.68C374.145 105.68 375.766 102.09 378.178 99.6782L375.35 96.8498Z" fill="white" mask="url(#path-1-outside-1_25_19)"/>
</svg>
