<svg width="57" height="55" viewBox="0 0 57 55" fill="none" xmlns="http://www.w3.org/2000/svg">
<g clip-path="url(#clip0_23_8)">
<path d="M17.8478 1.56156L29.5186 9.12198C30.4596 9.73199 31.6457 9.84794 32.6913 9.43455L45.6613 4.29568C48.2941 3.25211 51.0057 5.62157 50.2481 8.30527L46.52 21.5238C46.2201 22.5892 46.4738 23.732 47.1988 24.5789L56.1923 35.0835C58.0177 37.216 56.5574 40.4761 53.719 40.6005L39.7445 41.2088C38.6184 41.2575 37.5882 41.8474 36.9901 42.7851L29.5786 54.4173C28.0737 56.7783 24.4605 56.4238 23.4629 53.8157L18.554 40.9735C18.158 39.9384 17.2684 39.1603 16.1732 38.8931L2.59979 35.5776C-0.156363 34.9037 -0.927676 31.4251 1.2937 29.6892L12.2343 21.144C13.1171 20.455 13.597 19.3846 13.5182 18.2822L12.5394 4.60152C12.3406 1.82371 15.4773 0.0289737 17.8478 1.56324V1.56156Z" fill="white"/>
</g>
<defs>
<clipPath id="clip0_23_8">
<rect width="57" height="55" fill="white"/>
</clipPath>
</defs>
</svg>
