<svg width="45" height="44" viewBox="0 0 45 44" fill="none" xmlns="http://www.w3.org/2000/svg">
<g clip-path="url(#clip0_45_13)">
<path d="M7.2607 14.4291C11.2707 14.4291 14.5214 11.199 14.5214 7.21455C14.5214 3.23006 11.2707 0 7.2607 0C3.25073 0 0 3.23006 0 7.21455C0 11.199 3.25073 14.4291 7.2607 14.4291Z" fill="white"/>
<path d="M22.5007 14.4291C26.5107 14.4291 29.7614 11.199 29.7614 7.21455C29.7614 3.23006 26.5107 0 22.5007 0C18.4907 0 15.24 3.23006 15.24 7.21455C15.24 11.199 18.4907 14.4291 22.5007 14.4291Z" fill="white"/>
<path d="M37.7393 14.4291C41.7493 14.4291 45 11.199 45 7.21455C45 3.23006 41.7493 0 37.7393 0C33.7294 0 30.4786 3.23006 30.4786 7.21455C30.4786 11.199 33.7294 14.4291 37.7393 14.4291Z" fill="white"/>
<path d="M7.2607 29.2145C11.2707 29.2145 14.5214 25.9844 14.5214 21.9999C14.5214 18.0155 11.2707 14.7854 7.2607 14.7854C3.25073 14.7854 0 18.0155 0 21.9999C0 25.9844 3.25073 29.2145 7.2607 29.2145Z" fill="white"/>
<path d="M22.5007 29.2145C26.5107 29.2145 29.7614 25.9844 29.7614 21.9999C29.7614 18.0155 26.5107 14.7854 22.5007 14.7854C18.4907 14.7854 15.24 18.0155 15.24 21.9999C15.24 25.9844 18.4907 29.2145 22.5007 29.2145Z" fill="white"/>
<path d="M37.7393 29.2145C41.7493 29.2145 45 25.9844 45 21.9999C45 18.0155 41.7493 14.7854 37.7393 14.7854C33.7294 14.7854 30.4786 18.0155 30.4786 21.9999C30.4786 25.9844 33.7294 29.2145 37.7393 29.2145Z" fill="white"/>
<path d="M7.2607 44C11.2707 44 14.5214 40.77 14.5214 36.7855C14.5214 32.801 11.2707 29.5709 7.2607 29.5709C3.25073 29.5709 0 32.801 0 36.7855C0 40.77 3.25073 44 7.2607 44Z" fill="white"/>
<path d="M22.5007 44C26.5107 44 29.7614 40.77 29.7614 36.7855C29.7614 32.801 26.5107 29.5709 22.5007 29.5709C18.4907 29.5709 15.24 32.801 15.24 36.7855C15.24 40.77 18.4907 44 22.5007 44Z" fill="white"/>
<path d="M37.7393 44C41.7493 44 45 40.77 45 36.7855C45 32.801 41.7493 29.5709 37.7393 29.5709C33.7294 29.5709 30.4786 32.801 30.4786 36.7855C30.4786 40.77 33.7294 44 37.7393 44Z" fill="white"/>
</g>
<defs>
<clipPath id="clip0_45_13">
<rect width="45" height="44" fill="white"/>
</clipPath>
</defs>
</svg>
