<?xml version="1.0" encoding="UTF-8"?>
<svg id="Layer_2" data-name="Layer 2" xmlns="http://www.w3.org/2000/svg" viewBox="0 0 160 138.01">
  <defs>
    <style>
      .cls-1 {
        stroke-width: 0px;
      }
    </style>
  </defs>
  <g id="Y2K_Shapes" data-name="Y2K Shapes">
    <path class="cls-1" d="M152.4,137.27c0-1.93-.04-3.86-.11-5.79,2.34-.05,4.69-.08,7.02-.07,0,1.96,0,3.92-.01,5.87-2.29,0-4.6,0-6.9,0h0ZM129.54,137.26c-.38-1.69-1.05-3.3-1.88-4.84,2.51-.08,5.01-.18,7.49-.29.59,1.68,1.07,3.39,1.33,5.13h-6.94ZM88.45,137.3c-1.47,0-2.94,0-4.41,0-.59-2.54-1.4-4.99-2.35-7.37,2.32.08,4.65.23,6.95.43.93,2.21,1.71,4.5,2.28,6.93h-2.48,0ZM38.57,137.34c-.29-2.68-.68-5.35-1.13-8.01,1.24-.03,2.48-.05,3.72-.04,1.06,0,2.13.02,3.2.04.48,2.65.87,5.32,1.13,8.01h-6.92ZM.69,131.43c2.28.02,4.56-.03,6.84-.13.05,2,.07,4,.07,5.99-2.31,0-4.62-.01-6.92-.02,0-1.94,0-3.9,0-5.85h0ZM7.6.69c0,1.93-.04,3.86-.12,5.78-2.26.05-4.53.08-6.79.07,0-1.96,0-3.91-.01-5.87,2.32,0,4.63,0,6.92.01h0ZM159.29,6.54c-2.29.01-4.6-.02-6.91-.09-.01-1.93-.01-3.85,0-5.77,2.31,0,4.62,0,6.92-.01,0,1.95,0,3.91,0,5.87h0ZM152.64,24.17c-.04-1.72-.07-3.44-.1-5.16,2.2.56,4.44,1,6.74,1.23v5.83c-2.34-.36-4.54-1.04-6.64-1.9ZM152.79,30.49c-.05-1.85-.09-3.72-.14-5.58,2.09.83,4.28,1.49,6.62,1.84v5.86c-2.37-.39-4.5-1.15-6.49-2.12h0ZM152.96,37.16c-.05-1.96-.1-3.93-.15-5.9,1.98.93,4.1,1.67,6.47,2.04v5.84c-2.27-.39-4.36-1.09-6.32-1.97h0ZM159.32,85c-2.32.19-4.68.59-7.05,1.12.25-1.98.5-3.97.72-5.99,2.1-.48,4.22-.84,6.33-1,0,1.95,0,3.9,0,5.86h0ZM159.32,91.54c-2.67.23-5.27.59-7.84,1.05.21-1.94.45-3.86.7-5.75,2.41-.55,4.8-.96,7.14-1.16,0,1.95,0,3.91,0,5.86h0ZM159.33,111.16c-2.76.24-5.5.6-8.23,1.03-.1-1.91-.19-3.83-.23-5.75,2.8-.49,5.63-.88,8.46-1.14v5.86ZM159.33,117.68c-2.56.16-5.18.48-7.82.89-.13-1.89-.26-3.8-.37-5.71,2.72-.43,5.45-.78,8.19-1.03v5.85h0ZM159.32,124.2c-2.45.06-4.92.22-7.4.43-.1-1.52-.21-3.03-.31-4.53-.02-.28-.04-.57-.06-.85,2.63-.41,5.23-.73,7.77-.89,0,1.95,0,3.9,0,5.84h0ZM151.97,125.3c2.46-.21,4.92-.36,7.35-.43,0,1.95,0,3.9,0,5.85-2.34-.01-4.7.02-7.05.07-.08-1.83-.18-3.67-.3-5.49h0ZM144.04,131.06c-.28-1.62-.62-3.22-.97-4.8,2.72-.33,5.47-.64,8.22-.89.11,1.8.22,3.62.29,5.44-2.52.06-5.04.15-7.54.25ZM144.16,131.73c2.47-.1,4.96-.19,7.46-.25.07,1.93.11,3.86.11,5.77-2.31,0-4.62,0-6.94,0-.1-1.85-.33-3.7-.63-5.52h0ZM138.07,131.99c1.79-.08,3.59-.16,5.41-.23.3,1.82.53,3.65.64,5.49h-6.95c-.26-1.76-.72-3.48-1.31-5.16.74-.03,1.48-.06,2.22-.1h0ZM133.93,127.36c1.97-.23,3.93-.47,5.88-.71.86-.1,1.73-.21,2.59-.32.35,1.57.69,3.16.97,4.75-1.78.07-3.56.15-5.32.23-.81.04-1.62.07-2.43.11-.51-1.38-1.08-2.73-1.69-4.06h0ZM124.99,128.2c2.75-.19,5.5-.46,8.24-.76.6,1.32,1.18,2.66,1.69,4.01-2.52.11-5.06.21-7.62.29-.7-1.21-1.48-2.39-2.3-3.54h0ZM119.45,131.9c-.83-1.2-1.79-2.34-2.79-3.44.34,0,.69.01,1.03.01,2.17,0,4.33-.08,6.5-.22.82,1.15,1.62,2.31,2.33,3.51-2.35.07-4.71.12-7.07.13h0ZM119.9,132.57c2.33-.02,4.67-.07,7-.15.86,1.54,1.55,3.14,1.95,4.82h-6.89c-.41-1.69-1.14-3.24-2.06-4.68h0ZM112.38,132.5c.67.02,1.33.04,2,.05,1.14.02,2.28.03,3.43.03.43,0,.86,0,1.29,0,.97,1.45,1.74,2.99,2.17,4.67-2.29,0-4.59,0-6.88,0-.39-1.7-1.1-3.27-2.01-4.75h0ZM104.69,131.99c2.28.21,4.57.38,6.87.48.97,1.5,1.73,3.08,2.14,4.79-2.3,0-4.6,0-6.89,0-.42-1.83-1.17-3.58-2.12-5.28h0ZM96.86,131.18c.09.01.18.02.27.03,2.22.24,4.46.49,6.73.7,1.01,1.73,1.8,3.5,2.25,5.35-2.3,0-4.6,0-6.89,0-.48-2.05-1.3-4.08-2.35-6.09h0ZM96.05,131.09c1.09,2.04,1.97,4.11,2.47,6.18-2.3,0-4.6,0-6.89,0-.56-2.4-1.31-4.68-2.22-6.86,2.23.2,4.44.44,6.64.67h0ZM85.11,121.93c2.08.53,4.15,1.12,6.18,1.73,1.57,2.21,3.09,4.45,4.36,6.72-2.16-.23-4.35-.46-6.54-.66-1.16-2.68-2.52-5.25-4-7.79h0ZM77.06,120.33c2.41.32,4.78.8,7.12,1.37,1.54,2.6,2.96,5.22,4.16,7.95-2.3-.19-4.61-.34-6.92-.41-1.26-3.07-2.76-6.02-4.36-8.91h0ZM77.67,129.18c-1.28.01-2.57.01-3.86.01-1.31-3.22-2.85-6.34-4.49-9.38,1.07.05,2.15.1,3.22.13,1.24.04,2.48.14,3.71.28,1.65,2.95,3.18,5.91,4.46,8.99-1.01-.02-2.02-.04-3.03-.03h0ZM74.07,129.87c1.2,0,2.4,0,3.6-.01,1.1-.01,2.2,0,3.3.04.96,2.38,1.77,4.83,2.38,7.39-2.29,0-4.59,0-6.9,0-.62-2.55-1.43-5.02-2.38-7.43h0ZM66.7,129.8c2.21.04,4.43.06,6.65.07.96,2.41,1.78,4.89,2.41,7.43-2.29,0-4.58,0-6.88,0-.57-2.56-1.31-5.05-2.18-7.5h0ZM59.52,129.65c2.14.05,4.29.1,6.45.14.88,2.46,1.63,4.96,2.21,7.52-2.29,0-4.57,0-6.87,0-.45-2.59-1.06-5.15-1.79-7.67ZM52.36,129.47c1.32.03,2.63.06,3.93.1.83.02,1.67.04,2.51.06.73,2.52,1.35,5.08,1.81,7.68-2.29,0-4.58,0-6.88,0-.33-2.64-.8-5.26-1.39-7.85h0ZM51.67,129.45c.58,2.59,1.06,5.22,1.4,7.86h-6.9c-.26-2.68-.65-5.35-1.12-8,2.21.03,4.42.08,6.62.14h0ZM42.59,118.13c2.02.07,4.04.18,6.06.3,1.06,3.41,2.05,6.85,2.87,10.35-2.19-.05-4.39-.1-6.59-.13-.66-3.54-1.47-7.05-2.34-10.52h0ZM35.18,118.12c1.16-.08,2.32-.12,3.49-.1,1.07.02,2.14.05,3.21.08.88,3.48,1.69,6.99,2.35,10.53-1.03-.01-2.05-.03-3.07-.04-1.28-.01-2.56.01-3.84.04-.62-3.53-1.36-7.04-2.14-10.52ZM29.86,128.99c-.54-3.32-1.17-6.61-1.84-9.88,2.14-.42,4.29-.75,6.48-.94.78,3.47,1.52,6.96,2.14,10.48-2.27.06-4.53.18-6.78.33h0ZM29.97,129.66c2.26-.15,4.52-.26,6.79-.33.46,2.66.84,5.32,1.14,7.99h-6.91c-.26-2.56-.61-5.12-1.02-7.66h0ZM22.58,130.22c2.22-.19,4.46-.36,6.71-.52.4,2.53.75,5.07,1.01,7.62-2.3,0-4.6,0-6.9,0-.18-2.34-.47-4.72-.83-7.1ZM15.44,130.8c1.86-.14,3.72-.3,5.55-.45.3-.02.6-.05.91-.07.36,2.36.65,4.72.83,7.04-2.3,0-4.6,0-6.89-.01-.07-2.16-.21-4.33-.4-6.5h0ZM14.77,130.85c.18,2.15.32,4.3.4,6.45-2.3,0-4.6-.01-6.89-.01,0-2-.02-4.01-.07-6.02,2.2-.1,4.39-.25,6.56-.41ZM7.96,123.94c2-.38,3.99-.83,5.94-1.33.3,2.5.58,5.03.81,7.56-2.16.16-4.34.31-6.52.41-.06-2.22-.14-4.44-.23-6.65ZM.7,124.86c2.23-.12,4.42-.4,6.59-.79.09,2.17.17,4.36.23,6.55-2.27.1-4.55.15-6.82.13,0-1.96,0-3.92,0-5.89h0ZM.71,118.27c2.18-.32,4.25-.9,6.25-1.63.03.64.06,1.27.08,1.91.07,1.6.15,3.22.21,4.85-2.16.39-4.35.67-6.56.79,0-1.97,0-3.94,0-5.91h0ZM.71,111.69c2.15-.49,4.11-1.31,5.95-2.35.07,2.21.17,4.4.26,6.58-2,.75-4.06,1.33-6.22,1.66,0-1.96,0-3.92,0-5.89h0ZM.72,105.16c2.15-.51,4.06-1.4,5.79-2.53.02,1.98.07,3.97.13,5.95-1.84,1.06-3.79,1.91-5.93,2.42,0-1.94,0-3.89,0-5.84h0ZM.73,92.09c2.14-.41,4.13-1.07,6.03-1.92-.08,1.7-.15,3.41-.2,5.12-1.78,1.15-3.7,2.07-5.84,2.62,0-1.94,0-3.88,0-5.81h0ZM.74,85.61c2.15-.2,4.26-.57,6.32-1.06-.09,1.6-.18,3.23-.26,4.86-1.91.88-3.92,1.57-6.07,1.99,0-1.93,0-3.86,0-5.8h0ZM.73,33.28c1.89-.28,3.55-.88,5.07-1.66-.07,1.8-.1,3.61-.09,5.41,0,.16,0,.32.01.49-1.54.74-3.18,1.32-4.98,1.61,0-1.95,0-3.9,0-5.85h0ZM.72,20.23c2-.18,3.96-.54,5.89-1.02-.14,1.73-.28,3.48-.41,5.24-1.73.74-3.54,1.32-5.48,1.61,0-1.94,0-3.89,0-5.83h0ZM.71,13.73c2.13-.06,4.25-.23,6.37-.47-.13,1.76-.27,3.51-.41,5.24-1.95.49-3.93.88-5.95,1.06,0-1.94,0-3.89-.01-5.83h0ZM7.13,12.58c-2.14.24-4.28.41-6.42.48,0-1.95,0-3.89-.01-5.84,2.25.01,4.5-.02,6.76-.07-.08,1.82-.2,3.64-.33,5.44h0ZM14.3,6.91c-.33,1.64-.72,3.26-1.13,4.87-1.77.27-3.56.51-5.36.72.13-1.78.24-3.58.32-5.38,2.06-.05,4.12-.13,6.16-.21h0ZM14.43,6.22c-2.08.08-4.17.16-6.27.22.08-1.92.13-3.85.12-5.77,2.3,0,4.6,0,6.88.01-.13,1.87-.39,3.72-.73,5.54ZM21.13,5.93c-.12,0-.23.01-.35.02-1.87.09-3.76.17-5.66.25.34-1.81.59-3.65.71-5.51,2.29,0,4.57,0,6.85.01-.32,1.81-.87,3.55-1.55,5.23h0ZM27.94,5.63c-2.03.08-4.06.17-6.06.26.66-1.67,1.18-3.39,1.49-5.2,2.29,0,4.57,0,6.84,0-.5,1.77-1.29,3.4-2.27,4.93h0ZM35.33,5.4c-2.2.04-4.39.11-6.58.2.93-1.51,1.69-3.13,2.16-4.9,2.3,0,4.6,0,6.88,0-.53,1.75-1.39,3.29-2.46,4.69ZM43.04,5.38c-.9-.02-1.79-.03-2.69-.03-1.38,0-2.77.01-4.16.04,1-1.4,1.81-2.94,2.3-4.68,2.3,0,4.6,0,6.88,0-.51,1.71-1.32,3.24-2.33,4.67h0ZM50.89,5.71c-2.34-.14-4.69-.25-7.04-.31.96-1.43,1.74-2.97,2.23-4.69,2.31,0,4.61,0,6.9,0-.44,1.74-1.18,3.4-2.09,4.99h0ZM58.83,6.25c-2.37-.18-4.77-.35-7.18-.49.89-1.6,1.6-3.26,2.03-5.03,2.32,0,4.63,0,6.93,0-.35,1.86-.98,3.7-1.78,5.52ZM66.96,6.82c-2.48-.16-4.94-.34-7.37-.52-.02,0-.03,0-.05,0,.79-1.83,1.41-3.69,1.75-5.57h6.93c-.28,2.12-.71,4.13-1.26,6.09h0ZM74.69,7.19c-2.35-.07-4.7-.19-7.04-.33.55-1.97.98-4,1.26-6.13h6.91c-.25,2.21-.64,4.36-1.12,6.46h0ZM82.21,7.21c-1.09.03-2.19.05-3.27.05-1.18,0-2.37-.02-3.55-.05.48-2.11.86-4.25,1.11-6.47h6.88c-.3,2.2-.69,4.36-1.16,6.48h0ZM90.01,6.85c-2.36.16-4.73.28-7.11.34.46-2.12.85-4.26,1.15-6.46h6.91c-.21,1.99-.54,4.03-.95,6.12ZM98.54,6.2c-2.58.21-5.2.42-7.83.6.4-2.06.73-4.08.94-6.07h6.97c-.01,1.81-.03,3.64-.07,5.47h0ZM107.07,5.55c-2.64.18-5.27.39-7.86.6.03-1.81.06-3.62.07-5.42h6.98c.2,1.63.48,3.24.8,4.82h0ZM115.34,5.15c-2.53.06-5.06.19-7.58.35-.33-1.57-.6-3.16-.81-4.77,2.32,0,4.64,0,6.94,0,.36,1.7.85,3.14,1.45,4.43h0ZM122.94,5.15c-1.93-.04-3.85-.05-5.77-.03-.36,0-.73.01-1.1.02-.62-1.28-1.12-2.7-1.49-4.41,2.3,0,4.59,0,6.87,0,.35,1.81.85,3.23,1.48,4.43h0ZM130.47,5.4c-2.25-.1-4.5-.18-6.76-.23-.67-1.19-1.2-2.6-1.56-4.45,2.31,0,4.61,0,6.9,0,.33,1.81.82,3.32,1.43,4.69h0ZM137.54,5.76c-2.09-.11-4.2-.23-6.32-.33-.64-1.36-1.14-2.88-1.49-4.72,2.3,0,4.59,0,6.87,0,.2,1.74.53,3.42.94,5.06h0ZM144.59,6.14c-1.98-.1-3.95-.21-5.9-.31-.15,0-.29-.02-.44-.02-.42-1.66-.76-3.35-.97-5.1,2.3,0,4.59,0,6.87-.01.08,1.82.24,3.64.45,5.44h0ZM145.27,6.17c-.21-1.82-.37-3.65-.45-5.48,2.3,0,4.6,0,6.89-.01,0,1.91,0,3.83,0,5.75-2.15-.07-4.3-.16-6.44-.26h0ZM151.76,12.41c-1.92-.25-3.83-.55-5.73-.86-.25-1.55-.47-3.12-.67-4.69,2.11.1,4.23.19,6.36.26.01,1.76.03,3.53.05,5.29h0ZM152.43,12.49c-.02-1.79-.04-3.57-.05-5.36,2.3.06,4.61.1,6.9.08,0,1.95,0,3.89,0,5.84-2.29-.08-4.57-.29-6.85-.57h0ZM152.44,13.17c2.27.28,4.55.48,6.84.56v5.82c-2.3-.23-4.55-.68-6.76-1.25-.03-1.71-.06-3.42-.08-5.14h0ZM146.86,16.61c-.04-.24-.08-.48-.12-.72-.2-1.21-.41-2.42-.61-3.65,1.86.31,3.74.6,5.63.84.02,1.68.05,3.36.08,5.04-1.68-.46-3.34-.98-4.98-1.52h0ZM147.71,21.88c-.23-1.51-.47-3.02-.72-4.51,1.6.52,3.22,1.03,4.86,1.47.03,1.69.06,3.38.1,5.06-1.45-.61-2.86-1.3-4.24-2.01ZM148.47,28.01c-.16-1.79-.38-3.56-.63-5.32,1.35.69,2.72,1.35,4.14,1.94.04,1.84.08,3.68.13,5.51-1.26-.65-2.46-1.38-3.64-2.14h0ZM148.74,34.98v-1.05c0-1.7-.07-3.39-.21-5.07,1.16.73,2.34,1.43,3.59,2.06.05,1.98.1,3.96.16,5.93-1.21-.57-2.39-1.21-3.53-1.87h0ZM152.32,38.26c.05,1.97.1,3.96.16,5.96-1.25-.38-2.48-.8-3.68-1.23-.02-2.4-.04-4.82-.04-7.23,1.15.65,2.33,1.28,3.55,1.84,0,.22.01.44.02.66h0ZM153.15,44.42c-.05-2.07-.11-4.13-.16-6.18,0-.11,0-.22-.01-.33,1.95.85,4.03,1.53,6.3,1.91,0,1.96,0,3.92,0,5.88-2.13-.25-4.16-.71-6.13-1.27ZM153.51,73.51c1.91-.44,3.83-.77,5.79-.91,0,1.95,0,3.9,0,5.86-2.09.15-4.18.5-6.26.97.2-1.96.36-3.94.46-5.92ZM146.78,81.1c.6-2.01,1.11-4.06,1.45-6.15,1.52-.46,3.05-.9,4.6-1.28-.1,1.98-.27,3.95-.47,5.92-1.87.44-3.73.97-5.57,1.51ZM144.34,88.23c.76-2.09,1.53-4.2,2.2-6.36,1.9-.57,3.81-1.12,5.74-1.58-.22,2.01-.47,4.01-.72,5.98-2.41.56-4.83,1.24-7.22,1.95h0ZM142.1,94.64c.6-1.9,1.28-3.77,1.95-5.61,2.46-.73,4.95-1.44,7.42-2.02-.24,1.89-.48,3.79-.69,5.72-2.91.54-5.79,1.2-8.69,1.92h0ZM150.25,99.33c-3.32.6-6.61,1.32-9.86,2.1.35-2.04.87-4.05,1.48-6.03,2.96-.74,5.89-1.42,8.85-1.97-.2,1.96-.37,3.93-.47,5.91h0ZM159.32,98.08c-2.82.25-5.62.64-8.39,1.12.1-1.98.27-3.95.48-5.91,2.59-.47,5.22-.84,7.91-1.07v5.86h0ZM150.82,102.77c0-.96.03-1.91.08-2.87,2.79-.49,5.6-.88,8.42-1.14v5.86c-2.84.26-5.67.65-8.48,1.14-.02-1-.03-2-.03-2.99h0ZM139.91,108.03c-.02-.94-.02-1.89.04-2.84.06-1.02.17-2.03.32-3.04,3.28-.79,6.6-1.52,9.95-2.13-.04.92-.07,1.83-.07,2.74,0,1.04.01,2.07.03,3.12-3.46.61-6.88,1.36-10.27,2.15ZM140.49,114.17c-.28-1.8-.49-3.62-.56-5.45,3.39-.79,6.81-1.54,10.26-2.16.05,1.92.13,3.83.24,5.74-3.34.54-6.65,1.18-9.93,1.87h0ZM141.72,120.39c-.41-1.83-.8-3.69-1.11-5.55,3.26-.68,6.55-1.32,9.86-1.86.11,1.92.24,3.82.37,5.71-3.03.49-6.09,1.08-9.12,1.7h0ZM132.77,124.88c-.29-.62-.58-1.24-.86-1.85,2.57-.48,5.14-1,7.68-1.52.54-.11,1.07-.22,1.61-.33.16.72.33,1.43.49,2.14.18.78.36,1.57.54,2.36-.84.1-1.69.21-2.53.31-2.02.25-4.05.5-6.09.73-.28-.61-.57-1.23-.85-1.84h0ZM123.37,126c-.38-.51-.74-1.01-1.11-1.51,2.98-.31,5.98-.78,8.97-1.33.31.68.62,1.34.94,2.01.25.54.51,1.08.76,1.63-2.79.31-5.6.58-8.41.76-.38-.53-.77-1.05-1.15-1.57h0ZM114.67,126.35c-.47-.49-.94-.99-1.4-1.48.56.02,1.12.03,1.68.03,2.16,0,4.34-.12,6.53-.33.44.61.89,1.23,1.34,1.84.3.41.6.81.9,1.22-2.57.15-5.14.22-7.69.17-.45-.48-.91-.96-1.36-1.44h0ZM110.9,127.52c-.9-.08-1.8-.19-2.69-.32-.45-.5-.91-.99-1.36-1.48-.56-.6-1.11-1.2-1.66-1.8.45.1.9.19,1.36.28,1.9.35,3.83.55,5.77.65.61.67,1.24,1.33,1.86,1.98.3.31.6.63.9.95-1.4-.04-2.79-.12-4.18-.25h0ZM108.9,127.97c.64.08,1.29.16,1.94.22,1.63.15,3.26.23,4.89.27,1.03,1.11,2.03,2.25,2.9,3.46-1.42,0-2.83,0-4.24-.02-.82-.01-1.64-.04-2.46-.07-.9-1.34-1.94-2.61-3.03-3.85h0ZM100.82,126.38c2.32.59,4.67,1.09,7.04,1.45,1.15,1.27,2.26,2.58,3.22,3.95-2.28-.11-4.55-.29-6.82-.5-1.01-1.68-2.2-3.31-3.45-4.91h0ZM92.88,124.14c2.26.67,4.54,1.35,6.86,1.96,1.32,1.67,2.6,3.36,3.69,5.11-2.09-.2-4.17-.43-6.22-.65-.24-.03-.49-.05-.73-.08-1.2-2.19-2.64-4.36-4.14-6.49.18.05.36.11.54.16h0ZM90.21,121.01c-1.06-1.48-2.13-2.96-3.15-4.46.26.13.52.26.78.39,2.43,1.22,4.9,2.45,7.43,3.57.92,1.2,1.88,2.39,2.83,3.57.3.37.6.75.91,1.12-2.01-.54-3.99-1.14-5.95-1.72-.45-.14-.91-.27-1.36-.41-.49-.7-.99-1.39-1.49-2.08h0ZM81.26,115.67c-.54-.86-1.1-1.75-1.65-2.65,2.12.91,4.19,1.91,6.23,2.92,1.22,1.84,2.53,3.66,3.82,5.46.33.46.66.92.99,1.37-1.99-.58-4-1.15-6.03-1.65-1.08-1.81-2.21-3.63-3.36-5.46h0ZM72.7,112.86c-.54-.9-1.07-1.81-1.61-2.72,2.55.59,5.03,1.44,7.45,2.43.72,1.17,1.44,2.33,2.15,3.45,1.03,1.64,2.04,3.26,3.01,4.88-2.32-.55-4.67-1.01-7.05-1.3-1.28-2.28-2.62-4.53-3.95-6.75h0ZM65.33,112.71c-.69-1.2-1.39-2.44-2.08-3.67,1.03.12,2.07.23,3.09.32,1.3.12,2.59.32,3.85.58.64,1.09,1.29,2.18,1.94,3.26,1.27,2.12,2.51,4.21,3.7,6.31-1.08-.11-2.18-.2-3.28-.23-1.2-.04-2.41-.09-3.61-.15-1.18-2.17-2.4-4.31-3.61-6.43h0ZM61.98,118.71c-1.06-2.21-2.15-4.39-3.23-6.54-.67-1.34-1.34-2.68-2.01-4.02,1.88.28,3.78.55,5.67.79.77,1.38,1.56,2.77,2.33,4.11,1.14,1.99,2.29,4.01,3.4,6.05-2.06-.11-4.12-.24-6.17-.39h0ZM62.31,119.41c2.06.14,4.14.27,6.21.38,1.65,3.06,3.22,6.19,4.54,9.42-2.21-.01-4.41-.03-6.62-.07-1.21-3.32-2.63-6.55-4.14-9.73h0ZM55.81,118.94c.43.03.85.06,1.28.09,1.47.11,2.96.22,4.45.32,1.52,3.19,2.96,6.44,4.18,9.77-2.15-.04-4.28-.09-6.4-.14-1.01-3.41-2.22-6.75-3.51-10.04h0ZM55.06,118.88c1.3,3.3,2.52,6.66,3.55,10.08-.77-.02-1.53-.04-2.3-.06-1.35-.03-2.73-.07-4.1-.1-.8-3.49-1.79-6.92-2.84-10.32,1.91.12,3.81.25,5.7.39h0ZM46.76,110.47c-.44-1.32-.87-2.64-1.3-3.96,1.6.19,3.21.42,4.8.65.6,1.48,1.21,2.95,1.82,4.43.9,2.18,1.81,4.38,2.7,6.6-1.87-.14-3.75-.27-5.64-.39-.77-2.47-1.58-4.91-2.39-7.33h0ZM40.41,109.87c-.35-1.3-.7-2.61-1.04-3.92,1.78.11,3.56.27,5.35.48.46,1.42.93,2.84,1.4,4.25.77,2.33,1.55,4.69,2.3,7.07-2-.12-4.01-.22-6.01-.3-.65-2.55-1.32-5.08-2-7.59h0ZM33.19,109.66c-.29-1.21-.57-2.42-.86-3.63,1.03-.13,2.08-.21,3.16-.21h.16c1,0,2,.04,3.01.09.36,1.38.73,2.76,1.1,4.13.66,2.44,1.31,4.91,1.95,7.39-1.01-.03-2.02-.06-3.03-.07-1.23-.02-2.44.02-3.65.11-.6-2.63-1.22-5.23-1.83-7.81h0ZM26.43,111.65c-.28-1.29-.55-2.59-.83-3.89,1.95-.74,3.95-1.32,6.04-1.65.29,1.23.58,2.47.88,3.7.61,2.55,1.22,5.12,1.81,7.71-2.18.19-4.34.52-6.47.94-.47-2.28-.96-4.55-1.44-6.8h0ZM20.74,120.13c-.15-.72-.29-1.45-.44-2.17-.47-2.35-.95-4.72-1.39-7.1,2.01-1.05,4.01-2.03,6.06-2.85.27,1.26.53,2.52.8,3.78.48,2.25.97,4.51,1.44,6.8-2.19.45-4.35.99-6.48,1.54h0ZM20.87,120.8c2.14-.56,4.29-1.09,6.48-1.54.66,3.24,1.29,6.51,1.82,9.79-2.25.16-4.49.33-6.71.52-.46-2.93-1.02-5.86-1.59-8.76h0ZM18.35,121.46c.62-.17,1.24-.33,1.86-.49.57,2.87,1.12,5.76,1.57,8.65-.29.02-.57.05-.86.07-1.83.16-3.69.31-5.55.45-.23-2.57-.52-5.14-.82-7.68,1.27-.32,2.54-.66,3.8-1ZM14.12,118.83c-.21-1.7-.42-3.4-.61-5.12,1.04-.53,2.07-1.07,3.09-1.62.57-.3,1.13-.6,1.7-.9.43,2.31.9,4.62,1.35,6.91.15.73.3,1.47.44,2.21-.64.17-1.27.33-1.9.5-1.23.33-2.46.66-3.7.97-.12-.99-.24-1.98-.36-2.96h0ZM12.02,105.66c.2,2.56.46,5.12.75,7.66-1.69.85-3.41,1.67-5.19,2.37-.1-2.22-.19-4.46-.27-6.71,1.65-.98,3.2-2.12,4.7-3.31h0ZM11.68,98.29c.03,2.18.13,4.37.29,6.55-1.49,1.21-3.03,2.36-4.67,3.36-.06-2-.11-4.01-.13-6.01,1.62-1.14,3.1-2.48,4.5-3.9h0ZM12.57,87.03c-.22,1.29-.42,2.59-.57,3.9-1.51,1.41-3.07,2.76-4.75,3.92.05-1.66.12-3.33.2-4.98,1.78-.84,3.47-1.81,5.12-2.84h0ZM7.74,84.4c1.91-.47,3.79-1.03,5.64-1.63-.22,1.11-.44,2.23-.64,3.36-1.69,1.07-3.43,2.09-5.24,2.97.08-1.56.16-3.11.25-4.65v-.05h0ZM.74,79.13c2.19-.03,4.4-.12,6.62-.27-.08,1.68-.17,3.35-.26,5.01-2.08.49-4.2.87-6.36,1.08,0-1.94,0-3.87,0-5.81h0ZM6.01,44.54c-1.71.53-3.46.95-5.27,1.16,0-1.96,0-3.91,0-5.87,1.81-.28,3.45-.83,4.99-1.55.04,2.09.15,4.18.28,6.26ZM9.51,36.17c.24,2.25.6,4.49,1.05,6.71-1.27.52-2.56,1.02-3.88,1.45-.14-2.12-.24-4.25-.28-6.37,1.08-.54,2.11-1.16,3.11-1.79h0ZM11.57,17.79c-.39,1.5-.77,3.02-1.1,4.55-1.17.64-2.35,1.27-3.57,1.82.13-1.71.26-3.42.4-5.11,1.44-.38,2.87-.81,4.27-1.26ZM12.25,15.22c-.16.6-.32,1.2-.48,1.79-1.46.47-2.93.93-4.42,1.32.14-1.7.27-3.41.4-5.14,1.75-.2,3.5-.44,5.22-.7-.24.91-.48,1.82-.72,2.72h0ZM16.65,11.94c.56-.09,1.12-.18,1.69-.26-.29.54-.58,1.07-.88,1.6-.42.76-.83,1.52-1.24,2.28-.81.26-1.61.52-2.41.78-.42.14-.84.28-1.26.42.12-.46.24-.92.37-1.37.27-.99.54-2,.8-3,.99-.15,1.97-.3,2.95-.45h0ZM18.73,10.93c-.73.11-1.46.23-2.19.34-.88.14-1.77.27-2.66.41.4-1.58.78-3.17,1.09-4.78,1.95-.08,3.9-.17,5.82-.26h.03c-.63,1.47-1.35,2.9-2.1,4.3h0ZM24.49,10.12c-1.65.2-3.29.44-4.92.68.72-1.37,1.42-2.77,2.02-4.21,1.95-.09,3.91-.18,5.88-.26-.9,1.31-1.92,2.56-2.98,3.78h0ZM31.41,9.51c-1.99.09-3.97.27-5.93.49,1.01-1.19,1.97-2.41,2.82-3.7,2.15-.08,4.31-.15,6.47-.2-1.01,1.21-2.16,2.33-3.36,3.4h0ZM39.29,9.66c-1-.08-2.01-.15-3.02-.19-1.27-.04-2.54-.04-3.8,0,1.15-1.06,2.24-2.17,3.2-3.38,1.56-.03,3.12-.05,4.68-.04.73,0,1.46.01,2.2.02-.97,1.27-2.09,2.45-3.25,3.59ZM47.4,10.76c-2.39-.42-4.8-.78-7.23-1.02,1.15-1.15,2.25-2.35,3.2-3.65,2.38.05,4.75.16,7.12.3-.92,1.5-1.98,2.95-3.09,4.37h0ZM55.62,12.39s-.06-.01-.09-.02c-2.43-.51-4.9-1.03-7.38-1.48,1.12-1.44,2.19-2.92,3.11-4.46,2.44.15,4.87.32,7.27.5-.85,1.84-1.85,3.67-2.9,5.47h0ZM72.43,15.13c-2.47-.18-4.92-.5-7.35-.91.89-2.19,1.71-4.4,2.38-6.68,2.35.15,4.71.26,7.07.33-.59,2.45-1.31,4.85-2.1,7.25h0ZM80.16,15.18c-1.18.07-2.35.11-3.53.11h-.06c-1.15,0-2.29-.04-3.44-.11.78-2.41,1.5-4.82,2.09-7.28,1.24.03,2.48.05,3.71.06h.09c1.01,0,2.02-.02,3.04-.04-.55,2.44-1.2,4.84-1.9,7.26ZM88.37,14.26c-2.49.39-4.99.7-7.5.87.69-2.41,1.33-4.81,1.88-7.24,2.38-.07,4.75-.19,7.12-.34-.44,2.18-.96,4.42-1.5,6.71ZM98.46,10.2c-.01.72-.03,1.44-.04,2.16-3.07.65-6.19,1.28-9.33,1.79.53-2.26,1.04-4.48,1.48-6.64,2.67-.18,5.33-.4,7.95-.61-.02,1.1-.04,2.21-.06,3.3h0ZM108.21,10.36c-2.74.51-5.45,1.08-8.13,1.64-.33.07-.66.14-.99.21.01-.67.03-1.34.04-2,.02-1.11.04-2.24.06-3.37,2.64-.22,5.32-.43,8.02-.61.3,1.39.64,2.77,1,4.13h0ZM117.59,9.01c-2.92.27-5.83.71-8.71,1.23-.35-1.33-.68-2.69-.98-4.05,2.58-.17,5.17-.29,7.76-.35.57,1.13,1.23,2.16,1.94,3.17h0ZM125.59,8.78c-1.97-.08-3.95-.07-5.94.06-.43.03-.85.06-1.28.09-.73-1.02-1.39-2.02-1.97-3.11.25,0,.51-.01.77-.01,2.04-.02,4.09,0,6.15.04.66,1.09,1.42,2.02,2.27,2.93h0ZM132.72,9.41c-2.04-.26-4.09-.47-6.16-.58-.93-.97-1.75-1.89-2.45-2.96,2.23.05,4.45.14,6.67.24.57,1.17,1.23,2.24,1.94,3.3h0ZM138.87,10.34c-1.74-.29-3.49-.57-5.25-.81-.77-1.13-1.47-2.21-2.07-3.39,2.07.1,4.12.21,6.16.32.35,1.31.75,2.6,1.16,3.88h0ZM142.27,10.92c-.88-.15-1.76-.3-2.65-.46-.43-1.3-.84-2.62-1.21-3.96.07,0,.15,0,.23.01,1.99.11,4,.22,6.02.32.19,1.55.41,3.08.65,4.61-1.02-.17-2.04-.35-3.05-.52h0ZM145.43,20.69c-.96-.51-1.91-1.01-2.86-1.49-.38-1.26-.79-2.49-1.21-3.72.88.29,1.75.59,2.64.89.75.25,1.51.51,2.26.76.24,1.44.49,2.9.71,4.37-.52-.27-1.03-.54-1.54-.81h0ZM145.86,26.29c-.63-.42-1.25-.84-1.88-1.25-.29-1.69-.69-3.33-1.15-4.94.76.39,1.52.79,2.28,1.19.66.34,1.31.69,1.98,1.04.25,1.73.48,3.47.65,5.22-.63-.42-1.26-.84-1.88-1.26ZM145.94,41.95c-.45-.17-.91-.34-1.36-.51-.05-2.72-.09-5.47-.11-8.2.43.25.86.51,1.29.77.76.46,1.53.92,2.31,1.36,0,2.46.02,4.93.04,7.38-.73-.27-1.45-.53-2.17-.8h0ZM148.14,45.86c.02,1.85.04,3.72.05,5.59-1.15-.12-2.3-.26-3.44-.39-.03-2.45-.08-4.89-.13-7.31-.01-.52-.02-1.05-.03-1.58.37.14.74.27,1.11.41.8.3,1.6.6,2.41.89,0,.8.01,1.59.02,2.38ZM152.65,51.89c-1.27-.11-2.53-.23-3.79-.37-.01-1.9-.03-3.79-.05-5.67,0-.71-.01-1.42-.02-2.13,1.21.43,2.44.84,3.7,1.22.06,2.31.11,4.63.17,6.95h0ZM153.33,51.95c-.05-2.28-.1-4.55-.16-6.81,1.96.55,3.99,1,6.11,1.25,0,1.97,0,3.94,0,5.9-1.99-.05-3.97-.17-5.95-.33ZM153.58,67.03c1.9-.42,3.8-.76,5.72-.93v.35c0,1.82,0,3.66,0,5.49-1.95.14-3.88.46-5.77.89.04-1.06.07-2.13.06-3.19,0-.86-.01-1.73-.02-2.6h0ZM148.63,71.04c.04-.93.07-1.85.1-2.78,1.38-.38,2.77-.74,4.18-1.07,0,.81.01,1.63.02,2.45,0,1.11-.02,2.23-.07,3.35-1.52.36-3.03.79-4.52,1.24.15-1.05.25-2.11.29-3.18ZM145.95,74.95c-.74.23-1.48.46-2.21.68.21-.95.36-1.91.45-2.9.09-1.09.17-2.2.24-3.3.93-.25,1.85-.5,2.77-.75.28-.08.57-.16.85-.23-.03.86-.05,1.72-.09,2.57-.05,1.16-.16,2.29-.33,3.43-.56.17-1.12.34-1.67.51h0ZM144.3,81.86c-1.06.32-2.13.65-3.21.96,1.04-2.06,1.91-4.19,2.47-6.43.86-.26,1.73-.52,2.58-.79.45-.14.9-.28,1.35-.42-.35,2.09-.89,4.14-1.5,6.16-.57.17-1.14.34-1.7.51h0ZM135.55,96.33c-1.06.28-2.13.56-3.2.83,1.11-1.97,2.34-3.88,3.57-5.77,2.09-.57,4.17-1.19,6.23-1.8.36-.11.72-.22,1.08-.32-.67,1.83-1.33,3.69-1.92,5.56-1.91.48-3.83.98-5.77,1.49h0ZM133.18,103.22c-1.29.32-2.61.66-3.93.99.65-2.16,1.58-4.22,2.66-6.23,1.28-.33,2.55-.66,3.82-.99,1.81-.47,3.59-.94,5.37-1.39-.59,1.97-1.09,3.97-1.43,6.01-2.18.53-4.34,1.07-6.48,1.61h0ZM133.41,115.7c-1.34.29-2.71.59-4.08.89-.51-1.65-.86-3.32-.99-5.04,1.51-.36,3.02-.74,4.49-1.1,2.12-.52,4.26-1.05,6.41-1.56.08,1.82.29,3.64.57,5.43-2.15.45-4.29.92-6.41,1.39ZM129.54,117.24c1.35-.29,2.7-.59,4.02-.88,2.11-.46,4.23-.93,6.37-1.38.31,1.87.7,3.72,1.11,5.55-.53.11-1.07.22-1.6.33-2.59.53-5.21,1.06-7.83,1.55-.78-1.73-1.5-3.44-2.07-5.17h0ZM119.04,119.51c1.64-.33,3.27-.69,4.89-1.05,1.13-.25,2.24-.5,3.34-.74.54-.11,1.07-.23,1.61-.34.57,1.75,1.28,3.46,2.05,5.15-3.05.55-6.11,1.02-9.14,1.33-1.03-1.44-1.98-2.88-2.75-4.35h0ZM109.81,120.66c2.83-.05,5.7-.47,8.55-1.01.75,1.47,1.68,2.9,2.66,4.29-2.83.26-5.64.36-8.4.25-1.04-1.15-2.01-2.31-2.8-3.52h0ZM101.78,119.65c.33.09.66.19.99.27,2.06.52,4.15.74,6.26.75.75,1.21,1.67,2.35,2.64,3.46-1.69-.11-3.37-.3-5.02-.6-.76-.14-1.51-.3-2.26-.49-.97-1.11-1.86-2.23-2.61-3.39h0ZM82.93,109.54c.16.1.31.21.47.31,2.74,1.85,5.52,3.73,8.42,5.39.75,1.42,1.65,2.81,2.64,4.16-2.13-.98-4.23-2.03-6.3-3.06-.61-.31-1.23-.61-1.84-.92-1.28-1.94-2.44-3.9-3.37-5.89h0ZM78.67,111.52c-.35-.58-.72-1.18-1.09-1.78-1.13-1.83-2.32-3.74-3.35-5.71,2.62,1.46,5.15,3.12,7.64,4.79.87,2.04,2,4.04,3.25,6.02-2.01-.99-4.05-1.95-6.13-2.81-.1-.17-.21-.34-.32-.51h0ZM70.29,108.8c-.39-.67-.8-1.36-1.22-2.06-1.25-2.09-2.56-4.28-3.69-6.53,2.71.79,5.3,1.93,7.79,3.25,1.15,2.3,2.52,4.53,3.83,6.64.32.51.63,1.01.93,1.51-2.38-.94-4.81-1.73-7.33-2.27-.1-.18-.21-.36-.32-.54h0ZM62.79,108.23c-.46-.82-.94-1.66-1.44-2.53-1.29-2.24-2.65-4.59-3.78-7,1.11.21,2.22.39,3.32.54,1.24.17,2.44.41,3.62.72,1.2,2.46,2.62,4.85,3.98,7.12.42.7.83,1.39,1.22,2.05,0,0,0,.01.01.02-1.09-.21-2.2-.37-3.32-.47-1.18-.11-2.37-.24-3.56-.39-.01-.02-.03-.05-.04-.07h0ZM56.37,107.4c-.43-.86-.88-1.74-1.35-2.66-1.2-2.35-2.47-4.82-3.51-7.33,1.74.41,3.49.8,5.23,1.14,1.18,2.58,2.64,5.1,4.01,7.49.43.74.84,1.46,1.24,2.16-1.88-.24-3.76-.52-5.63-.8h0ZM54.21,107.76c.57.09,1.14.17,1.71.26.73,1.49,1.48,2.97,2.22,4.45,1.02,2.04,2.06,4.1,3.06,6.19-1.36-.1-2.72-.2-4.06-.29-.53-.04-1.07-.08-1.6-.12-.92-2.33-1.88-4.63-2.82-6.91-.56-1.35-1.12-2.7-1.67-4.05,1.06.16,2.12.32,3.17.48h0ZM49.46,103.5c-1-2.32-2.04-4.77-2.9-7.25,1.05.24,2.09.48,3.13.73.34.08.68.16,1.02.24,1.08,2.69,2.43,5.33,3.71,7.83.4.77.77,1.51,1.14,2.23-.41-.06-.83-.12-1.24-.19-1.19-.18-2.38-.36-3.57-.54-.4-.98-.83-1.99-1.29-3.05h0ZM45.21,105.75c-.38-1.15-.78-2.33-1.22-3.58-.77-2.23-1.58-4.57-2.25-6.93,1.35.25,2.69.53,4.04.83.89,2.63,2,5.23,3.05,7.69.4.93.77,1.81,1.13,2.67-1.57-.23-3.16-.44-4.74-.63,0-.02-.01-.03-.02-.05h0ZM39.13,105.04c-.34-1.31-.73-2.66-1.14-4.08-.6-2.1-1.23-4.29-1.75-6.51,1.58.15,3.17.38,4.77.66.69,2.49,1.54,4.95,2.35,7.28.4,1.16.78,2.26,1.13,3.33-1.77-.2-3.54-.36-5.3-.46-.02-.07-.04-.15-.06-.22h0ZM32.06,104.92c-.35-1.51-.78-3.1-1.24-4.79-.48-1.79-.99-3.65-1.43-5.53,1.08-.21,2.21-.33,3.4-.33h.21c.83.01,1.68.05,2.52.12.54,2.3,1.19,4.58,1.81,6.75.41,1.42.79,2.76,1.13,4.07h0c-.94-.04-1.89-.06-2.82-.07-1.19,0-2.35.07-3.48.23-.03-.15-.07-.3-.1-.45h0ZM25.37,106.66c-.31-1.5-.68-3.03-1.07-4.65-.4-1.65-.79-3.32-1.15-4.99,1.74-1.01,3.57-1.81,5.57-2.28.45,1.89.95,3.76,1.44,5.56.46,1.68.89,3.27,1.24,4.76.03.13.06.26.09.39-2.09.34-4.09.92-6.03,1.65-.03-.15-.06-.3-.09-.45ZM17.44,101.15c1.67-1.38,3.35-2.67,5.12-3.76.35,1.63.73,3.23,1.1,4.78.39,1.61.75,3.14,1.06,4.63.04.19.08.37.12.55-2.07.82-4.08,1.8-6.04,2.81-.54-3-1.02-6.01-1.35-9.02h0ZM15.26,102.98c.52-.44,1.04-.88,1.56-1.31.33,2.94.81,5.89,1.34,8.83-.63.33-1.26.66-1.89.99-.94.5-1.9,1-2.85,1.5-.3-2.6-.56-5.22-.75-7.85.88-.71,1.74-1.44,2.59-2.16h0ZM14.79,94.98c.51-.55,1.01-1.1,1.51-1.65,0,2.5.16,5.01.43,7.53-.64.53-1.27,1.06-1.91,1.6-.73.62-1.47,1.24-2.21,1.85-.15-2.24-.25-4.48-.26-6.72.83-.86,1.64-1.74,2.44-2.62h0ZM16.12,84.74c.55-.36,1.11-.73,1.66-1.09-.31.82-.59,1.66-.81,2.52-.85.8-1.7,1.61-2.53,2.43-.55.54-1.11,1.08-1.67,1.62.16-1.23.36-2.45.58-3.67.94-.59,1.86-1.2,2.77-1.8h0ZM14.12,82.53c1.56-.52,3.1-1.06,4.64-1.59.07-.02.15-.05.22-.07-.26.56-.51,1.13-.75,1.7-.83.53-1.65,1.07-2.47,1.61-.74.49-1.49.98-2.24,1.46.19-1.01.39-2.02.58-3.01,0-.03.01-.06.02-.09h0ZM14.24,78.24c-.22,1.27-.47,2.53-.72,3.77-1.89.62-3.8,1.2-5.75,1.68.09-1.62.18-3.25.25-4.89,2.07-.15,4.14-.34,6.21-.57ZM8.26,72.76c2.23.05,4.48.1,6.73.13-.15,1.56-.36,3.11-.62,4.65-2.1.23-4.2.43-6.3.58.08-1.78.15-3.57.19-5.36ZM.74,72.6c1.97.04,3.96.08,5.98.13.29,0,.58.01.86.02-.04,1.81-.11,3.62-.2,5.43-2.23.15-4.45.25-6.65.28v-5.85h0ZM6.59,51.66c-1.93.29-3.88.5-5.85.61v-5.89c1.84-.21,3.61-.62,5.32-1.15.15,2.16.34,4.31.52,6.43ZM12.22,50.28c.03.12.06.24.08.36-1.67.33-3.35.65-5.04.91-.19-2.16-.38-4.34-.53-6.54,1.35-.44,2.67-.95,3.97-1.48.47,2.27,1,4.52,1.52,6.74ZM13.19,42.5c.59-.25,1.18-.5,1.76-.74.74,2.09,1.54,4.16,2.34,6.2.2.5.4,1.01.59,1.52-.56.12-1.12.24-1.68.35-1.07.23-2.15.45-3.23.67-.03-.13-.06-.26-.09-.38-.53-2.25-1.07-4.54-1.54-6.85.62-.26,1.24-.52,1.85-.78h0ZM11.64,34.76c.35-.24.71-.47,1.06-.7.51,2.38,1.22,4.74,2.02,7.06-.6.25-1.2.5-1.8.75-.57.24-1.15.48-1.73.72-.45-2.27-.82-4.56-1.05-6.86.5-.32,1-.66,1.49-.98h0ZM12.19,22.15c.44-.24.88-.49,1.31-.73-.58,1.59-1.03,3.23-1.26,4.94-.42.32-.84.64-1.26.96-.25.19-.5.39-.75.58.2-1.73.49-3.44.85-5.13.38-.21.75-.42,1.12-.62h0ZM13.87,20.44c-.68.36-1.35.74-2.02,1.11-.2.11-.4.22-.59.33.33-1.46.7-2.92,1.07-4.36.56-.18,1.13-.37,1.68-.55.58-.19,1.16-.38,1.75-.57-.69,1.32-1.33,2.66-1.89,4.03h0ZM20.15,15.09c-.93,1.13-1.79,2.3-2.52,3.52-.96.41-1.9.86-2.82,1.34.56-1.29,1.2-2.56,1.88-3.83,1.15-.36,2.3-.72,3.47-1.03h0ZM22.87,11.95c-.66.74-1.33,1.49-1.97,2.24-1.26.32-2.52.69-3.76,1.07.3-.55.6-1.11.91-1.67.38-.68.75-1.37,1.13-2.06,1.54-.23,3.09-.46,4.65-.66-.32.36-.64.72-.95,1.07ZM29.16,11.45c-.65.55-1.29,1.1-1.92,1.65-1.77.14-3.51.43-5.22.82.44-.51.9-1.01,1.35-1.52.49-.54.98-1.09,1.46-1.65,1.91-.23,3.84-.42,5.77-.53-.48.42-.96.82-1.44,1.23h0ZM36.97,11.85c-.61.57-1.23,1.15-1.83,1.73-1.24-.21-2.5-.38-3.75-.48-1.03-.08-2.04-.09-3.04-.06.42-.36.83-.72,1.26-1.07.7-.59,1.4-1.19,2.09-1.8,1.52-.06,3.04-.08,4.56-.03.8.03,1.6.07,2.4.13-.55.53-1.11,1.05-1.68,1.58h0ZM54.08,14.99c-.71,1.19-1.43,2.4-2.12,3.61-.27-.1-.54-.2-.81-.29-2.3-.83-4.64-1.67-7-2.42.59-.75,1.2-1.5,1.82-2.26.57-.71,1.15-1.42,1.72-2.14,2.55.46,5.08.99,7.58,1.51-.39.67-.79,1.33-1.18,1.99h0ZM62.24,19.15c-.35.82-.72,1.65-1.08,2.49-2.89-.81-5.74-1.8-8.55-2.81.67-1.17,1.36-2.33,2.05-3.49.43-.73.87-1.46,1.3-2.19,2.69.56,5.41,1.13,8.17,1.6-.6,1.46-1.24,2.92-1.89,4.4h0ZM70.51,20.76c-.29.85-.59,1.72-.9,2.59-2.63-.28-5.23-.83-7.79-1.53.35-.81.7-1.61,1.04-2.4.67-1.53,1.32-3.04,1.95-4.56,2.45.41,4.92.74,7.4.92-.54,1.65-1.12,3.3-1.7,4.97h0ZM78.47,20.87c-.25.82-.5,1.65-.75,2.49-1.28.12-2.57.19-3.87.2h-.33c-1.08,0-2.15-.06-3.22-.15.28-.82.56-1.64.84-2.44.6-1.73,1.19-3.44,1.76-5.15,1.22.08,2.43.12,3.66.12h.06c1.11,0,2.22-.04,3.33-.1-.48,1.66-.98,3.33-1.49,5.02h0ZM86.66,21.86c-2.72.64-5.45,1.14-8.21,1.43.22-.75.45-1.49.67-2.22.53-1.77,1.06-3.52,1.56-5.26,2.52-.17,5.04-.47,7.53-.85-.54,2.29-1.07,4.59-1.55,6.9h0ZM98.33,18.48c-3.6,1.17-7.25,2.3-10.94,3.21.47-2.28,1.01-4.56,1.54-6.82h0c3.19-.53,6.36-1.17,9.48-1.82-.03,1.8-.06,3.62-.08,5.44h0ZM109.14,13.79c.1.38.21.75.31,1.13-2.84.84-5.66,1.76-8.44,2.68-.67.22-1.33.44-2,.66.02-1.79.05-3.58.08-5.36.38-.08.76-.16,1.15-.24,2.69-.57,5.41-1.14,8.16-1.65.25.94.5,1.87.75,2.79h0ZM118.96,10.89c.35.49.72.98,1.09,1.49-3.34.56-6.67,1.4-9.95,2.35-.1-.38-.2-.75-.3-1.12-.25-.9-.49-1.81-.74-2.73,2.98-.54,5.98-.99,8.99-1.25.3.42.6.83.92,1.26h0ZM126.89,10.12c.55.56,1.1,1.13,1.68,1.75-1.95-.15-3.94-.12-5.98.13-.6.07-1.2.16-1.8.26-.44-.61-.87-1.2-1.29-1.77-.23-.31-.45-.62-.67-.92.29-.02.57-.04.86-.06,2.2-.15,4.39-.14,6.57-.02.21.21.41.43.63.64h0ZM133.96,11.2c.4.57.8,1.16,1.22,1.77-1.84-.45-3.71-.8-5.62-1-.78-.87-1.52-1.63-2.19-2.31-.04-.04-.07-.07-.11-.11,2,.13,3.99.34,5.97.61.24.34.48.69.73,1.04h0ZM136.16,13.21c-.56-.85-1.11-1.64-1.65-2.4-.13-.18-.25-.36-.37-.53,1.67.24,3.32.5,4.97.78.33.98.67,1.96,1.01,2.92.05.15.1.3.16.45-1.36-.43-2.73-.84-4.12-1.21ZM138.34,17.24c-.4-1.02-.91-2.04-1.56-3.07-.02-.04-.05-.08-.07-.11,1.28.35,2.56.75,3.85,1.17.41,1.17.81,2.36,1.19,3.56-1.13-.55-2.25-1.07-3.4-1.54h0ZM139.58,22.41c-.16-1.45-.44-2.88-.92-4.3,1.13.48,2.24,1.01,3.35,1.56.47,1.58.89,3.19,1.2,4.85-1.19-.76-2.39-1.48-3.63-2.12ZM140,39.86c-.08-3.04-.16-6.13-.19-9.16,1.35.64,2.67,1.37,3.99,2.14.01,2.78.05,5.58.11,8.35-1.28-.47-2.58-.92-3.91-1.33ZM144.09,60.41c-1.26.13-2.53.25-3.8.34.07-3.17.05-6.37,0-9.55.97.11,1.93.23,2.89.34.3.04.61.07.91.11.03,2.92.04,5.85,0,8.76h0ZM148.2,59.95c-1.14.13-2.29.26-3.44.39.04-2.87.03-5.75,0-8.61,1.14.14,2.28.26,3.43.39.02,2.6.02,5.22,0,7.84h0ZM152.81,59.43c-1.28.14-2.56.29-3.82.44-.04,0-.07.01-.11.01.02-2.57.01-5.13,0-7.68,1.26.14,2.53.26,3.8.37.05,2.28.09,4.57.14,6.87h0ZM153.49,59.36c-.04-2.25-.08-4.49-.13-6.73,1.97.16,3.96.28,5.94.33,0,1.97,0,3.94,0,5.91-1.92.11-3.87.29-5.81.49h0ZM153.5,60.04c1.94-.21,3.89-.39,5.8-.49,0,1.96,0,3.92,0,5.87-1.92.17-3.83.5-5.72.92-.02-2.09-.05-4.2-.08-6.3h0ZM148.88,60.56c.06,0,.13-.01.19-.02,1.24-.15,2.5-.29,3.75-.43.03,2.13.06,4.26.08,6.38-1.4.32-2.78.68-4.15,1.05.06-2.32.1-4.65.12-6.98h0ZM144.75,61.03c1.15-.12,2.3-.25,3.45-.39-.02,2.37-.05,4.73-.12,7.09-.35.09-.7.19-1.05.29-.84.23-1.69.47-2.55.69.15-2.55.23-5.11.28-7.68h0ZM139.84,69.83c.23-2.77.37-5.57.44-8.39,1.27-.09,2.54-.21,3.8-.34-.04,2.61-.14,5.21-.29,7.79-1.31.34-2.63.66-3.95.94h0ZM135.39,84.3c1.36-2.06,2.5-4.24,3.24-6.6,1.41-.32,2.8-.69,4.19-1.09-.6,2.25-1.52,4.4-2.6,6.47-1.6.46-3.2.88-4.82,1.23h0ZM130.4,97.67c-.59.15-1.19.3-1.78.46-1.98.51-3.99,1.03-6,1.46,1.7-2.23,3.63-4.36,5.53-6.45,2.27-.37,4.55-.89,6.82-1.49-1.22,1.88-2.42,3.78-3.49,5.74-.36.09-.71.19-1.07.27h0ZM126.86,104.79c-.99.24-2,.49-3.01.75-1.81.46-3.64.92-5.46,1.33.88-2.29,2.14-4.43,3.62-6.46,2.27-.47,4.53-1.05,6.77-1.63.6-.16,1.19-.31,1.78-.46.16-.04.31-.08.47-.12-1.04,1.99-1.93,4.04-2.54,6.19-.54.14-1.09.27-1.63.4h0ZM117.28,114.22c1.79-.39,3.54-.83,5.24-1.26,1.19-.3,2.31-.58,3.44-.84.57-.14,1.15-.27,1.73-.41.14,1.71.5,3.38.99,5.02-.52.11-1.03.22-1.55.33-1.1.23-2.22.48-3.35.74-1.68.38-3.36.75-5.05,1.09-.72-1.5-1.24-3.04-1.45-4.66ZM107.75,115.51c2.96-.06,5.95-.53,8.88-1.15.22,1.62.73,3.17,1.43,4.65-2.89.55-5.79.95-8.66.97-.83-1.39-1.42-2.86-1.66-4.48h0ZM99.64,114.38c.4.12.79.25,1.19.35,2.03.55,4.12.78,6.24.79.22,1.61.78,3.08,1.56,4.46-1.92-.03-3.82-.25-5.69-.72-.57-.15-1.13-.31-1.69-.48-.8-1.39-1.38-2.83-1.62-4.4h0ZM90.63,110.04c2.63,1.66,5.38,3.08,8.3,4.09.2,1.54.71,2.98,1.42,4.35-2.8-.96-5.47-2.27-8.05-3.75-.78-1.52-1.37-3.07-1.67-4.69h0ZM80.89,102.93s.09.07.13.1c2.87,2.25,5.78,4.53,8.85,6.52.23,1.58.72,3.1,1.4,4.58-2.56-1.52-5.05-3.2-7.49-4.85-.45-.3-.9-.61-1.36-.92-.75-1.79-1.29-3.61-1.53-5.44h0ZM71.38,96.01c3.04,1.91,5.93,4.12,8.77,6.34.17,1.81.62,3.6,1.28,5.36-2.51-1.68-5.07-3.32-7.74-4.75-1.1-2.25-1.97-4.58-2.31-6.95h0ZM62.52,91.79c2.86.9,5.55,2.21,8.12,3.76.26,2.36,1.03,4.66,2.05,6.89-2.46-1.26-5.02-2.32-7.7-3.05-1.19-2.48-2.11-5.03-2.47-7.6h0ZM54.99,90.25c1,.21,1.99.38,2.98.52,1.32.18,2.59.46,3.84.81.31,2.57,1.19,5.11,2.33,7.59-1.03-.25-2.08-.45-3.16-.59-1.24-.17-2.49-.38-3.75-.62-1.14-2.53-1.99-5.12-2.24-7.7h0ZM49.32,88.83c1.65.46,3.31.9,4.97,1.26.21,2.58,1.02,5.17,2.12,7.69-1.74-.35-3.48-.75-5.2-1.15-1.01-2.59-1.75-5.22-1.89-7.8h0ZM44.71,87.5c.63.18,1.26.36,1.89.54.68.2,1.36.39,2.04.59.1,2.59.8,5.23,1.78,7.81-.19-.04-.38-.09-.57-.13-1.17-.28-2.35-.55-3.54-.82-.88-2.67-1.51-5.38-1.6-7.99h0ZM40.22,86.31c1.27.31,2.54.65,3.81,1.01.06,2.64.66,5.34,1.51,8.01-1.33-.29-2.66-.57-3.99-.81-.75-2.75-1.28-5.53-1.33-8.21h0ZM34.96,85.31c1.52.2,3.05.49,4.58.84.03,2.69.54,5.48,1.28,8.24-1.58-.27-3.17-.49-4.74-.63-.65-2.84-1.11-5.7-1.12-8.45h0ZM28.09,85.37c1.11-.23,2.29-.34,3.56-.31.88.02,1.75.08,2.63.18,0,2.76.45,5.63,1.09,8.47-.79-.06-1.57-.09-2.35-.1h-.21c-1.24,0-2.43.12-3.56.35-.66-2.9-1.14-5.83-1.16-8.58h0ZM21.99,88.1c1.64-1.16,3.42-2.07,5.43-2.58.03,2.77.52,5.69,1.17,8.57-1.99.48-3.83,1.27-5.56,2.25-.57-2.78-.99-5.55-1.04-8.24h0ZM22.85,80.58c-.28.45-.53.93-.74,1.45-1.48.96-2.86,2.07-4.19,3.26.25-.78.53-1.54.84-2.28,1.35-.86,2.71-1.69,4.09-2.43ZM23.87,79.18c-.06.07-.12.15-.18.22-1.54.76-3.02,1.62-4.47,2.52.21-.46.42-.92.63-1.37,1.33-.46,2.67-.93,4.02-1.36h0ZM21.31,77.38c1.66-.22,3.3-.44,4.94-.67-.09.09-.19.19-.29.28-.4.39-.8.79-1.2,1.2-1.52.48-3.03.99-4.52,1.51.36-.76.72-1.53,1.06-2.32h0ZM20.53,77.48c-.31.7-.64,1.39-.96,2.08-.07.15-.14.3-.21.44-.28.1-.56.2-.83.29-1.41.49-2.83.99-4.26,1.47.24-1.19.47-2.4.68-3.61,1.87-.21,3.73-.44,5.58-.68h0ZM22.16,72.94c-.33,1.32-.8,2.59-1.32,3.82-1.92.25-3.85.49-5.78.71.25-1.51.46-3.03.6-4.56,2.16.03,4.33.05,6.49.04ZM15.75,66.42c2.26.05,4.53.1,6.8.11.06.78.11,1.56.11,2.35,0,1.18-.13,2.3-.35,3.39-2.19.01-4.39,0-6.59-.04.08-1.08.13-2.17.12-3.26,0-.85-.04-1.71-.09-2.55h0ZM8.27,66.21c.86.02,1.72.05,2.57.07,1.41.04,2.82.08,4.23.11.05.86.09,1.72.09,2.57,0,1.08-.04,2.17-.12,3.24-2.26-.03-4.53-.08-6.77-.13.02-1.02.04-2.04.04-3.06,0-.94-.02-1.88-.04-2.82h0ZM.74,66.06c2.25.02,4.55.08,6.85.14.03.95.04,1.89.04,2.83,0,1.01-.02,2.03-.04,3.04-.29,0-.57-.01-.86-.02-2.02-.05-4.02-.09-5.99-.13v-5.87h0ZM6.66,52.59c.18,2.01.36,4.05.52,6.1-2.16.06-4.3.11-6.44.12v-5.89c1.99-.1,3.95-.32,5.9-.61,0,.09.02.19.02.28h0ZM14,58.41c-2.04.1-4.1.2-6.15.26-.16-2.06-.34-4.11-.52-6.14-.01-.11-.02-.22-.03-.32,1.73-.27,3.44-.59,5.14-.93.55,2.35,1.1,4.73,1.56,7.13h0ZM20.87,57.99c-2.04.14-4.11.27-6.18.38-.46-2.44-1.01-4.85-1.57-7.23,1.08-.22,2.15-.45,3.22-.67.59-.12,1.19-.25,1.78-.38,1,2.6,1.97,5.23,2.75,7.9h0ZM24,48.96c1.4,2.79,2.74,5.63,3.81,8.51-2.05.17-4.14.33-6.25.48-.79-2.7-1.77-5.36-2.77-7.99,1.72-.35,3.46-.7,5.21-1h0ZM16.36,31.83c.75,2.55,1.77,5.07,2.91,7.56-1.33.44-2.64.93-3.92,1.46-.82-2.38-1.54-4.78-2.04-7.21,1.01-.65,2.02-1.27,3.06-1.81h0ZM15.53,24.12c-.89.51-1.73,1.07-2.55,1.67.28-1.68.78-3.29,1.41-4.88.89-.48,1.79-.94,2.69-1.35-.74,1.42-1.29,2.93-1.55,4.56h0ZM22.8,17.78c-.93,1.33-1.63,2.78-1.98,4.41-1.67.26-3.17.8-4.55,1.52.32-1.64.96-3.15,1.8-4.58,1.52-.62,3.07-1.11,4.73-1.35h0ZM23.36,17.03c-1.65.18-3.2.59-4.7,1.15.77-1.17,1.65-2.29,2.6-3.41,1.69-.42,3.39-.75,5.13-.94-1.11,1.02-2.15,2.07-3.03,3.19h0ZM31.3,17.8c-1.4-.34-2.81-.6-4.24-.76-.95-.11-1.87-.13-2.76-.08.94-1.13,2.04-2.18,3.21-3.22,1.26-.09,2.53-.09,3.81.01,1.07.08,2.14.22,3.21.4-1.18,1.16-2.29,2.37-3.23,3.66h0ZM39.95,20.76c-2.6-1.1-5.25-2.08-7.95-2.78.97-1.29,2.13-2.5,3.36-3.7,2.58.46,5.14,1.14,7.67,1.93-1.13,1.47-2.19,2.98-3.07,4.55ZM48.84,24.89c-.42-.2-.83-.4-1.24-.6-2.31-1.11-4.66-2.24-7.03-3.27.89-1.57,1.97-3.08,3.15-4.6,2.43.77,4.84,1.64,7.21,2.49.23.08.47.17.71.25-1.05,1.88-2.02,3.79-2.79,5.72h0ZM60.01,24.35c-.54,1.32-1.19,2.92-1.78,4.67-2.98-1.1-5.9-2.46-8.78-3.83.77-1.96,1.75-3.88,2.82-5.79,2.83,1.01,5.71,2.01,8.63,2.84-.3.7-.59,1.4-.89,2.11h0ZM68.54,26.52c-.16.47-.32.98-.51,1.52-.35,1.03-.72,2.14-1.08,3.3-2.75-.39-5.44-1.13-8.09-2.08.58-1.74,1.24-3.34,1.77-4.65.3-.73.61-1.46.92-2.19,2.58.7,5.19,1.26,7.84,1.56-.29.84-.57,1.69-.85,2.54h0ZM76.8,26.48c-.2.69-.44,1.46-.69,2.26-.26.84-.54,1.73-.81,2.66-1.29.14-2.59.21-3.89.23-1.27.02-2.52-.06-3.77-.21.35-1.13.71-2.21,1.04-3.17.18-.54.35-1.05.51-1.52.29-.9.59-1.79.9-2.68,1.14.11,2.29.17,3.44.17h.33c1.22-.01,2.44-.07,3.65-.18-.24.81-.48,1.63-.72,2.44h0ZM85.43,29.33c-3.11.9-6.24,1.6-9.4,1.98.24-.83.49-1.63.72-2.38.25-.81.49-1.57.69-2.27.26-.9.52-1.8.79-2.7,2.78-.28,5.54-.77,8.27-1.4-.45,2.27-.83,4.53-1.08,6.77h0ZM98.33,24.67c-4.01,1.64-8.08,3.21-12.2,4.45.26-2.22.65-4.48,1.1-6.73,3.74-.9,7.44-2.04,11.09-3.22-.01,1.83-.01,3.67.01,5.51h0ZM110.69,19.69c-3.01,1.13-6,2.36-8.94,3.58-.91.38-1.82.75-2.74,1.13-.02-1.82-.02-3.64,0-5.45.74-.24,1.48-.48,2.22-.73,2.77-.91,5.58-1.83,8.41-2.67.37,1.36.73,2.74,1.06,4.14h0ZM121.24,14.08c.45.68.83,1.34,1.16,2.01-3.72.82-7.42,2.01-11.08,3.37-.33-1.38-.69-2.74-1.05-4.09,3.38-.98,6.79-1.83,10.21-2.39.25.35.5.72.76,1.1h0ZM129.81,13.25c.58.69,1.06,1.39,1.46,2.09-1.9-.21-3.9-.18-6.05.18-.71.12-1.43.26-2.14.41-.35-.74-.77-1.49-1.28-2.24-.2-.29-.39-.57-.58-.85.48-.07.97-.14,1.45-.2,2.26-.28,4.43-.27,6.55-.07.19.22.39.44.58.68h0ZM133.54,20.3c-.18-1.39-.51-2.75-1.1-4.1,1.87.31,3.65.85,5.38,1.54.53,1.42.84,2.84,1.03,4.28-1.67-.79-3.42-1.4-5.31-1.73h0ZM133.97,38.41c-.09-3.24-.18-6.51-.2-9.72,1.89.33,3.65.92,5.36,1.68.03,3.06.1,6.18.19,9.26-1.73-.51-3.5-.94-5.34-1.21h0ZM133.8,70.62c.26-2.95.41-5.95.49-8.96h.05c1.75,0,3.5-.07,5.25-.2-.07,2.85-.21,5.68-.45,8.48-1.77.34-3.55.59-5.35.68ZM128.93,85.19c1.52-2.05,2.78-4.24,3.58-6.65,1.8-.09,3.58-.34,5.34-.71-.79,2.37-1.99,4.55-3.42,6.63-1.82.36-3.66.63-5.5.72h0ZM121.63,93.01c2.41-2.26,4.78-4.58,6.76-7.11,1.83-.07,3.66-.29,5.47-.63-1.82,2.52-3.96,4.88-6.08,7.21-2.06.32-4.12.52-6.16.53h0ZM113.87,100.65c1.98-2.25,4.24-4.35,6.46-6.43.19-.18.39-.36.58-.54.18,0,.37,0,.55,0,1.86,0,3.73-.16,5.61-.42-1.91,2.1-3.81,4.24-5.47,6.5-2.58.52-5.17.88-7.73.89ZM108.96,108.1c1.03-2.45,2.55-4.67,4.32-6.77.14,0,.28,0,.42,0,2.44,0,4.89-.31,7.33-.77-1.41,2.02-2.62,4.15-3.44,6.44-2.89.61-5.78,1.06-8.64,1.09h0ZM99.69,110.63c.19-1.1.49-2.15.87-3.16.58.19,1.17.38,1.77.54,1.84.49,3.74.72,5.66.75-.37,1.02-.66,2.07-.84,3.17-.17,1.02-.21,1.98-.14,2.9-2.03-.01-4.03-.24-5.99-.78-.49-.14-.98-.28-1.46-.44-.08-.95-.05-1.93.14-2.98h0ZM90.57,105.5c.15-.92.37-1.8.66-2.65,2.75,1.77,5.62,3.31,8.69,4.4-.39,1.04-.69,2.13-.9,3.26-.18.99-.22,1.94-.16,2.85-2.95-1.05-5.71-2.53-8.37-4.24-.14-1.17-.12-2.37.08-3.62h0ZM80.91,98.61c.14-.97.38-1.9.68-2.8.22.17.43.33.65.5,2.73,2.11,5.5,4.25,8.4,6.16-.32.94-.57,1.91-.74,2.92-.18,1.11-.22,2.2-.13,3.26-2.88-1.91-5.63-4.06-8.33-6.18-.21-.17-.43-.33-.64-.5-.08-1.11-.05-2.23.11-3.35h0ZM71.34,92.01c.14-1.03.39-2.02.72-2.97,3.12,1.89,6.06,4.11,8.96,6.34-.35,1-.62,2.05-.78,3.14-.15.97-.19,1.94-.16,2.9-2.84-2.22-5.74-4.42-8.81-6.3-.09-1.03-.08-2.07.06-3.11h0ZM62.48,87.71c.12-.95.35-1.87.65-2.75,2.95.86,5.71,2.17,8.35,3.72-.37,1.03-.65,2.11-.8,3.23-.13.93-.15,1.86-.1,2.77-2.57-1.52-5.26-2.8-8.14-3.67-.1-1.1-.1-2.21.05-3.32h0ZM55.04,86.87c.16-1.16.45-2.26.86-3.31,1.08.2,2.15.38,3.21.52,1.15.16,2.27.4,3.37.69-.31.91-.53,1.86-.67,2.84-.14,1.07-.16,2.14-.07,3.21-1.19-.33-2.42-.59-3.68-.76-1.03-.14-2.08-.33-3.12-.55-.05-.89-.02-1.77.1-2.65h0ZM49.43,85.93c.17-1.23.51-2.38.98-3.47,1.59.34,3.21.67,4.81.97-.4,1.06-.69,2.17-.85,3.34-.12.86-.15,1.73-.11,2.59-1.65-.37-3.31-.81-4.95-1.27,0-.73.03-1.45.13-2.17h0ZM44.86,84.56c.16-1.12.48-2.13.92-3.08,1.06.22,2.13.45,3.18.67.26.05.52.11.78.17-.46,1.1-.8,2.27-.98,3.52-.09.69-.14,1.38-.14,2.07-.61-.18-1.23-.35-1.84-.53-.69-.2-1.39-.4-2.08-.6,0-.75.05-1.49.16-2.22h0ZM28.36,81.8c.13-.74.34-1.36.6-1.91.93-.17,1.9-.26,2.92-.26h.31c.97.02,1.95.07,2.94.15-.28.62-.5,1.33-.62,2.15-.12.84-.19,1.71-.21,2.58-.88-.09-1.75-.16-2.63-.17-.12,0-.24,0-.36,0-1.13,0-2.19.11-3.2.32.02-.98.1-1.94.26-2.86h0ZM29.57,77.88c-.4.41-.76.87-1.06,1.42-1.94.4-3.71,1.13-5.35,2.07.29-.53.62-1.01.98-1.48,1.73-.84,3.52-1.54,5.43-2.01ZM27.36,76.53c1.73-.24,3.49-.48,5.25-.71-.31.16-.62.32-.92.5-1.88.39-3.73.88-5.54,1.42.1-.1.2-.19.3-.29.31-.3.62-.6.92-.92h0ZM29.35,72.78c-.58,1.19-1.4,2.17-2.31,3.11-.05,0-.09.01-.14.02-1.75.24-3.51.48-5.28.72.49-1.2.93-2.43,1.24-3.72,2.17-.01,4.34-.05,6.49-.12h0ZM30.05,66.42c.08.78.13,1.57.14,2.37.02,1.28-.19,2.37-.54,3.31-2.2.08-4.42.12-6.64.14.22-1.08.34-2.2.34-3.39,0-.78-.05-1.56-.11-2.34,2.28.01,4.55-.01,6.81-.08h0ZM35.25,57.49c1.05,2.56,1.85,5.16,2.26,7.82-2.26.2-4.55.34-6.86.42-.33-2.6-1.01-5.15-1.9-7.66,2.21-.19,4.38-.38,6.5-.58h0ZM30.52,48.12c1.63,2.86,3.19,5.76,4.45,8.71-2.1.2-4.26.39-6.47.57-1.07-2.9-2.42-5.75-3.81-8.57,1.93-.31,3.87-.57,5.82-.72h0ZM25.24,38.72c1.2,2.29,2.5,4.56,3.79,6.79.38.65.75,1.3,1.13,1.96-1.94.16-3.87.42-5.77.73-.39-.77-.78-1.54-1.17-2.31-1.02-2.01-2.05-4.05-3.02-6.11,1.64-.5,3.31-.88,5.04-1.07h0ZM21.54,30.04c.83,2.72,2.02,5.4,3.37,8.04-1.72.21-3.38.6-4.99,1.09-1.16-2.53-2.19-5.08-2.94-7.66,1.44-.69,2.94-1.22,4.57-1.48ZM24.65,22.81c1.36.16,2.72.43,4.05.77-.29,1.63-.27,3.41.19,5.4.08.33.16.66.25.99-1.14-.26-2.29-.48-3.45-.63-1.29-.17-2.51-.17-3.66-.03-.15-.52-.29-1.03-.41-1.55-.43-1.85-.47-3.49-.21-4.97,1.01-.11,2.08-.11,3.24.03h0ZM28.84,22.92c-1.35-.35-2.72-.61-4.11-.78-1.13-.14-2.18-.14-3.18-.04.4-1.64,1.17-3.09,2.18-4.43,1.04-.09,2.12-.09,3.25.04,1.31.15,2.61.38,3.9.69-.93,1.39-1.65,2.87-2.05,4.52h0ZM37.84,26.33c-2.72-1.31-5.5-2.44-8.36-3.23.39-1.65,1.13-3.14,2.09-4.53,2.73.69,5.41,1.67,8.05,2.79-.83,1.58-1.46,3.23-1.78,4.97h0ZM47.22,31.31c-.45-.25-.9-.49-1.34-.74-2.44-1.35-4.9-2.71-7.42-3.94.3-1.76.93-3.41,1.77-5.01,2.39,1.03,4.74,2.17,7.07,3.28.43.21.86.42,1.29.62-.7,1.9-1.2,3.82-1.37,5.79h0ZM56.68,36.06c-3-1.26-5.93-2.81-8.81-4.39.15-1.98.63-3.93,1.34-5.85,2.89,1.38,5.82,2.73,8.81,3.84-.65,2.03-1.19,4.23-1.34,6.4h0ZM65.39,38.69c-2.75-.45-5.43-1.29-8.05-2.36.12-2.17.66-4.39,1.31-6.44,2.65.95,5.35,1.69,8.1,2.09-.65,2.2-1.21,4.52-1.37,6.71h0ZM73.82,38.83c-1.24.13-2.49.21-3.74.22-1.35.02-2.69-.07-4.01-.26.16-2.19.72-4.54,1.37-6.72,1.2.15,2.42.23,3.64.23h.33c1.23-.01,2.46-.09,3.69-.21-.61,2.19-1.15,4.53-1.28,6.73h0ZM85.17,36.29c-3.52,1.15-7.07,2.03-10.67,2.46.15-2.19.7-4.54,1.32-6.73,3.21-.36,6.38-1.06,9.52-1.96-.21,2.11-.28,4.2-.18,6.23h0ZM98.52,30.92c-4.17,1.89-8.4,3.71-12.68,5.15-.09-2.03,0-4.11.21-6.22,4.15-1.23,8.25-2.81,12.29-4.46.03,1.84.09,3.69.18,5.52ZM111.75,25.02c-3.32,1.36-6.6,2.87-9.84,4.35-.91.42-1.81.83-2.73,1.25-.09-1.82-.14-3.66-.17-5.5,1-.41,1.99-.82,2.99-1.23,2.91-1.2,5.86-2.42,8.84-3.54.35,1.53.67,3.09.91,4.67h0ZM123.91,20.95c-3.88.92-7.72,2.26-11.52,3.8-.25-1.57-.56-3.12-.91-4.64,3.71-1.38,7.45-2.58,11.21-3.4.62,1.41,1,2.81,1.23,4.24h0ZM126.75,20.36c-.72.13-1.45.28-2.17.44-.23-1.43-.61-2.83-1.21-4.24.65-.14,1.31-.26,1.96-.37,2.25-.38,4.33-.38,6.31-.12.62,1.3.97,2.65,1.18,4.11-1.85-.24-3.86-.22-6.07.18h0ZM126.84,38.21c-.55.06-1.1.12-1.65.18-.13-3.1-.24-6.21-.26-9.26.67-.14,1.33-.28,1.99-.4,2.23-.4,4.27-.41,6.17-.16.03,3.21.1,6.49.2,9.73-2.05-.26-4.2-.32-6.45-.09h0ZM133.62,60.98c-2.22-.03-4.42-.18-6.59-.51-.38-.06-.75-.12-1.12-.19.01-3.4-.08-6.81-.21-10.22.41.01.81.02,1.22.03,2.23.06,4.47.2,6.69.4.06,3.5.08,7,.01,10.48h0ZM127.05,70.1c-.5-.11-1-.24-1.51-.37.23-2.89.34-5.82.37-8.77.34.06.68.11,1.02.17,2.2.34,4.43.49,6.67.52-.08,3.03-.23,6.03-.49,8.99-2.01.06-4.03-.09-6.07-.54h0ZM121.85,84.67c-.46-.1-.92-.21-1.37-.33,1.58-2.07,2.9-4.29,3.75-6.75.65.18,1.3.34,1.95.48,1.7.36,3.37.51,5.01.51.2,0,.4,0,.59-.01-.84,2.41-2.15,4.6-3.73,6.66-2.06.05-4.13-.1-6.21-.56h0ZM95.75,95.2c2.81,1.77,5.73,3.33,8.82,4.45-1.81,2.15-3.37,4.44-4.41,6.97-3.07-1.09-5.94-2.64-8.7-4.42.96-2.55,2.49-4.85,4.29-7h0ZM86.02,88.38c.45.33.9.66,1.35.99,2.55,1.87,5.13,3.75,7.8,5.47-1.8,2.15-3.32,4.44-4.3,6.99-2.83-1.87-5.55-3.97-8.22-6.04-.27-.21-.55-.43-.82-.64.95-2.46,2.44-4.68,4.2-6.77h0ZM76.38,81.98c3.15,1.76,6.15,3.86,9.09,6-1.75,2.07-3.24,4.28-4.21,6.73-2.89-2.23-5.85-4.44-8.96-6.32.93-2.32,2.38-4.43,4.08-6.41h0ZM67.16,78.2c3.02.75,5.88,1.96,8.62,3.44-1.68,1.97-3.12,4.07-4.06,6.39-2.64-1.55-5.41-2.85-8.36-3.72.86-2.21,2.21-4.22,3.8-6.12h0ZM59.88,77.22c1.22.09,2.43.19,3.63.32.99.11,1.96.27,2.91.48-1.56,1.89-2.87,3.9-3.72,6.1-1.14-.31-2.31-.55-3.51-.72-1-.14-2.01-.31-3.03-.49.9-2.05,2.21-3.93,3.72-5.7h0ZM54.14,76.96c1.65.04,3.28.11,4.91.21-1.46,1.75-2.71,3.6-3.57,5.63-1.58-.29-3.19-.63-4.77-.96.86-1.77,2.07-3.37,3.44-4.88h0ZM49.11,76.91c1.38,0,2.76,0,4.13.03-1.28,1.47-2.41,3.03-3.23,4.75-.31-.06-.61-.13-.92-.2-1-.21-2-.43-3.01-.64.78-1.46,1.84-2.75,3.03-3.95h0ZM44.09,76.97c1.35-.03,2.71-.05,4.07-.06-1.09,1.15-2.05,2.39-2.77,3.8-1.3-.27-2.59-.52-3.9-.75.67-1.16,1.57-2.12,2.6-2.99h0ZM38.37,77.12c1.56-.04,3.13-.09,4.7-.12-.89.83-1.67,1.75-2.27,2.85-1.54-.26-3.07-.48-4.59-.63.57-.86,1.32-1.52,2.16-2.09h0ZM30.95,77.58c1.1-.2,2.24-.32,3.43-.35.93-.02,1.88-.05,2.82-.08-.67.55-1.27,1.19-1.74,1.99-1.09-.1-2.18-.16-3.26-.18h-.31c-.86,0-1.69.07-2.49.19.44-.63.96-1.14,1.55-1.56h0ZM40.19,74.91c.27-.03.54-.06.81-.1-.2.11-.41.23-.61.34-1.03.15-2.06.27-3.09.35-1.14.09-2.27.23-3.38.41.21-.11.42-.22.63-.34,1.89-.24,3.78-.47,5.65-.67h0ZM37.05,72.35c-.64,1.19-1.62,1.94-2.73,2.57-2.08.27-4.17.55-6.22.83.79-.88,1.5-1.84,2-2.99,2.34-.09,4.66-.22,6.95-.41h0ZM37.79,68.81c.01,1.15-.15,2.07-.43,2.84-2.31.2-4.65.33-7,.43.32-.96.51-2.03.5-3.29-.01-.8-.06-1.59-.14-2.38,2.31-.08,4.61-.22,6.88-.42.12.94.19,1.88.2,2.83h0ZM41.76,65.52c1.13-.15,2.25-.38,3.35-.67.15,1,.24,2.02.25,3.05.02,1.06-.11,1.94-.36,2.69-1.02.26-2.05.46-3.09.59-1.26.16-2.53.29-3.81.4.24-.77.37-1.68.36-2.78,0-.97-.08-1.93-.2-2.89,1.17-.11,2.34-.24,3.49-.4h0ZM38.73,57.16c1.3-.13,2.6-.31,3.9-.54,1.07,2.46,1.92,4.97,2.38,7.55-1.1.29-2.21.52-3.33.68-1.16.16-2.32.29-3.49.4-.4-2.67-1.19-5.27-2.23-7.82.94-.09,1.87-.18,2.77-.26h0ZM34.07,47.97c1.3-.01,2.63-.02,3.96-.02,1.55,2.63,3.07,5.3,4.31,8.04-1.23.21-2.46.39-3.68.51-.98.09-1.98.19-2.98.28-1.25-2.96-2.8-5.85-4.41-8.7.93-.06,1.87-.1,2.8-.1h0ZM29.23,38.67c1.23.1,2.46.25,3.69.43,1.23,2.31,2.58,4.58,3.91,6.82.27.45.54.9.8,1.35-1.2,0-2.39.01-3.56.02-1.06,0-2.12.05-3.17.12-.43-.75-.86-1.49-1.29-2.24-1.24-2.15-2.49-4.32-3.65-6.52,1.06-.08,2.15-.08,3.26.01ZM32.53,38.37c-1.08-.15-2.17-.28-3.25-.37-1.25-.1-2.46-.08-3.65.02-1.36-2.65-2.57-5.34-3.41-8.06,1.06-.11,2.19-.1,3.39.05,1.26.16,2.5.41,3.75.71.77,2.61,1.89,5.16,3.18,7.66h0ZM38.43,33.86c.67,2.15,1.66,4.23,2.8,6.26-2.6-.65-5.23-1.22-7.87-1.63-1.3-2.48-2.44-5-3.24-7.58,2.81.74,5.58,1.78,8.31,2.96h0ZM47.57,36.57c.07.33.17.65.26.97-.55-.26-1.09-.53-1.64-.79-2.37-1.15-4.77-2.31-7.21-3.37-.12-.41-.24-.82-.33-1.24-.4-1.69-.47-3.28-.29-4.79,2.44,1.2,4.83,2.52,7.19,3.83.54.3,1.08.59,1.62.9-.07,1.48.04,2.98.4,4.51h0ZM57.07,40.71c.1.36.22.7.35,1.03-2.96-1.09-5.88-2.43-8.75-3.8-.17-.5-.32-1-.44-1.52-.31-1.35-.43-2.68-.39-3.99,2.88,1.57,5.81,3.11,8.81,4.36-.04,1.35.08,2.68.43,3.93h0ZM65.95,43.58c.06.15.12.3.19.44-2.66-.36-5.27-1.07-7.85-1.97-.23-.48-.42-.98-.57-1.52-.31-1.11-.43-2.28-.41-3.48,2.62,1.05,5.29,1.87,8.04,2.31-.05,1.52.11,2.95.59,4.21h0ZM74.36,43.48c.07.2.16.4.24.58-1.34.14-2.68.22-4.02.24-1.22.02-2.43-.05-3.64-.18-.13-.24-.25-.5-.36-.78-.44-1.14-.58-2.46-.54-3.87,1.23.17,2.48.26,3.75.26h.31c1.24-.01,2.47-.09,3.7-.22-.03,1.42.13,2.77.56,3.96h0ZM85.63,40.22c.1.53.23,1.04.38,1.54-3.55,1.02-7.12,1.81-10.69,2.22-.11-.23-.22-.47-.32-.73-.41-1.13-.56-2.43-.52-3.81,3.63-.43,7.21-1.3,10.74-2.45.08,1.09.21,2.17.41,3.23h0ZM98.83,35.56c.05.56.11,1.12.19,1.68-4.08,1.58-8.21,3.1-12.37,4.32-.15-.48-.27-.97-.36-1.47-.2-1.09-.33-2.2-.41-3.32,4.29-1.43,8.51-3.25,12.68-5.13.07,1.31.16,2.62.27,3.92h0ZM112.28,30.74c.01.47.03.94.05,1.41-3.19,1.14-6.37,2.39-9.49,3.61-1.05.41-2.1.82-3.16,1.24-.06-.5-.12-.99-.16-1.49-.12-1.38-.21-2.76-.28-4.16.99-.45,1.98-.91,2.97-1.36,3.18-1.46,6.4-2.93,9.66-4.28.23,1.65.39,3.32.43,5.03h0ZM113.59,40.22c-.25-2.54-.46-5.1-.57-7.61,3.74-1.32,7.5-2.5,11.24-3.34.03,3.03.13,6.13.26,9.2-3.64.45-7.29,1.05-10.93,1.74h0ZM115.34,65.84c.11-2.45.08-4.92-.04-7.4,3.3.96,6.63,1.8,9.95,2.41-.02,2.93-.13,5.84-.36,8.71-3.22-.91-6.41-2.22-9.55-3.72h0ZM114.38,72.83c.32-1.05.55-2.14.68-3.27.11-.99.19-1.98.25-2.98,3.13,1.48,6.3,2.77,9.53,3.67-.1,1.16-.22,2.31-.36,3.46-.14,1.06-.36,2.08-.67,3.07-3.21-.94-6.35-2.33-9.41-3.94h0ZM110.43,80.15c1.58-2.05,2.9-4.24,3.73-6.67,3.06,1.6,6.19,2.99,9.41,3.93-.85,2.44-2.19,4.65-3.8,6.72-3.21-.93-6.31-2.34-9.35-3.99h0ZM103.51,87.42c2.29-2.15,4.57-4.35,6.49-6.74,3.02,1.65,6.11,3.06,9.32,4.02-1.99,2.45-4.34,4.71-6.71,6.92-3.15-1.01-6.17-2.49-9.1-4.21h0ZM102.58,88.3c.14-.13.28-.26.42-.39,2.91,1.71,5.91,3.21,9.05,4.25-.11.1-.22.21-.33.31-2.3,2.14-4.63,4.31-6.67,6.64-3.09-1.1-6.02-2.66-8.85-4.43,1.95-2.24,4.18-4.33,6.39-6.39h0ZM92.3,82c.23-.22.46-.43.69-.65.46.31.92.63,1.38.94,2.63,1.8,5.29,3.62,8.03,5.26-.09.08-.18.17-.27.25-2.25,2.1-4.52,4.23-6.5,6.51-2.69-1.72-5.28-3.62-7.85-5.49-.44-.32-.87-.64-1.31-.96,1.79-2.05,3.82-3.97,5.83-5.87h0ZM82.16,76.14c.32-.3.65-.61.97-.92,3.19,1.67,6.27,3.69,9.29,5.74-.19.18-.39.36-.58.55-2.04,1.93-4.1,3.88-5.92,5.96-2.94-2.13-5.93-4.23-9.08-6,1.65-1.85,3.49-3.6,5.32-5.33h0ZM72.92,72.3c.24-.22.47-.45.71-.68,3.08.67,6.02,1.82,8.86,3.27-.27.25-.53.5-.8.76-1.88,1.77-3.77,3.57-5.46,5.48-2.73-1.49-5.56-2.71-8.58-3.49,1.62-1.85,3.46-3.61,5.27-5.34h0ZM65.25,71.76c.26-.25.51-.49.77-.74,1.14-.05,2.28-.04,3.42.02,1.15.07,2.27.21,3.38.42-.12.11-.24.23-.36.35-1.91,1.82-3.85,3.67-5.54,5.64-1.08-.25-2.19-.45-3.32-.57-1.04-.11-2.09-.21-3.15-.29,1.5-1.67,3.16-3.26,4.81-4.83h0ZM58.71,72.51c.27-.25.54-.49.8-.74,1.82-.32,3.64-.57,5.47-.69-.07.06-.13.13-.2.19-1.78,1.7-3.59,3.43-5.19,5.26-1.6-.11-3.21-.18-4.83-.23,1.25-1.31,2.61-2.56,3.96-3.79h0ZM52.72,73.69c.25-.21.51-.43.76-.65,1.58-.37,3.18-.73,4.78-1.04,0,0,0,0-.01.01-1.51,1.38-3.03,2.78-4.41,4.27-1.34-.03-2.69-.04-4.04-.04.94-.88,1.93-1.72,2.92-2.55h0ZM46.81,74.92c.2-.14.4-.28.59-.43,1.2-.28,2.4-.56,3.58-.85.35-.08.7-.17,1.05-.25-1.09.92-2.19,1.85-3.2,2.85-1.29,0-2.59.02-3.88.05.6-.47,1.22-.92,1.86-1.37h0ZM48.28,72.99c-.38.29-.77.58-1.17.87-1.62.37-3.24.71-4.87,1,.17-.11.34-.22.51-.34,1.87-.37,3.71-.9,5.52-1.53h0ZM52.61,62.01c.15.96.22,1.94.21,2.93-.01,1.07-.18,2.01-.46,2.85-2.14,1.04-4.33,1.95-6.58,2.59.18-.72.28-1.55.26-2.5-.02-1.09-.11-2.16-.27-3.22,2.33-.67,4.61-1.6,6.84-2.66ZM50.24,54.86c1.02,2.08,1.82,4.22,2.25,6.45-2.23,1.06-4.51,2.01-6.83,2.68-.46-2.57-1.29-5.06-2.34-7.49,2.32-.44,4.64-1.01,6.93-1.64h0ZM46.16,47.93c1.35,2.06,2.67,4.16,3.78,6.31-2.29.63-4.59,1.19-6.9,1.62-1.22-2.7-2.69-5.33-4.22-7.92,2.39-.01,4.83-.02,7.34-.02h0ZM45.19,46.47c.18.26.35.53.52.79-2.49,0-4.92,0-7.29.02-.33-.57-.67-1.13-1.01-1.69-1.24-2.08-2.5-4.19-3.66-6.34,2.66.43,5.31,1.03,7.94,1.7,1.1,1.88,2.31,3.71,3.5,5.52h0ZM48.73,42.86c.7.2,1.41.4,2.11.59.91,1.31,1.91,2.57,2.9,3.81-2.47,0-4.88-.01-7.22-.01-.26-.39-.51-.78-.77-1.17-1.07-1.62-2.15-3.25-3.14-4.91,2.05.54,4.09,1.11,6.12,1.68h0ZM50.26,42.59c-.45-.12-.9-.25-1.35-.38-2.24-.63-4.5-1.27-6.78-1.85-1.15-1.99-2.16-4.02-2.88-6.12,2.24.99,4.45,2.06,6.64,3.12.74.36,1.49.72,2.23,1.08.54,1.47,1.28,2.84,2.14,4.16h0ZM59.37,44.95c-2.73-.61-5.43-1.33-8.11-2.07-.87-1.28-1.65-2.6-2.24-4.01,2.88,1.37,5.8,2.68,8.78,3.74.44.86.97,1.63,1.57,2.34h0ZM67.81,46.34c-2.45-.23-4.9-.64-7.33-1.15-.65-.69-1.24-1.44-1.73-2.26,2.55.85,5.13,1.5,7.76,1.83.38.62.82,1.14,1.3,1.58h0ZM76.28,46.43c-1.27.07-2.53.11-3.8.11h-.29c-1.06,0-2.13-.04-3.19-.12-.6-.43-1.16-.93-1.62-1.58.92.09,1.84.14,2.77.14h.43c1.45-.02,2.9-.12,4.35-.27.39.68.85,1.24,1.36,1.72h0ZM87.45,45.25c-3.4.51-6.8.91-10.2,1.13-.59-.48-1.13-1.04-1.58-1.75,3.53-.43,7.04-1.22,10.54-2.22.34.99.77,1.93,1.24,2.84ZM100.09,42.95c-3.95.8-7.94,1.57-11.94,2.2-.5-.94-.95-1.91-1.3-2.92,4.13-1.22,8.22-2.72,12.26-4.28.25,1.67.59,3.34.98,5.01h0ZM104.06,42.14c-1.1.23-2.2.45-3.3.68-.4-1.71-.75-3.43-.99-5.13,1.1-.43,2.21-.86,3.31-1.29,3.06-1.2,6.16-2.41,9.28-3.53.11,2.48.32,4.99.57,7.49-2.97.57-5.93,1.18-8.86,1.78h0ZM106.02,54.84c-.86-.28-1.73-.56-2.59-.84-.32-1.66-.71-3.31-1.12-4.95.66.03,1.33.07,1.99.1,3.16.16,6.38.32,9.6.47.27,2.63.52,5.27.67,7.91-2.87-.85-5.73-1.78-8.54-2.69h0ZM105.53,67.74c-.63-.38-1.26-.76-1.9-1.14.22-.86.39-1.74.48-2.67.1-1.04.13-2.08.11-3.12.62.33,1.24.67,1.86,1,2.81,1.52,5.66,3.06,8.55,4.45-.05,1.08-.14,2.16-.25,3.23-.11,1.05-.33,2.05-.61,3.02-2.79-1.49-5.53-3.14-8.23-4.77h0ZM101.31,74.65c-.43-.27-.86-.55-1.29-.82,1.49-2.01,2.7-4.17,3.43-6.55.58.35,1.16.7,1.74,1.05,2.75,1.66,5.53,3.34,8.38,4.85-.82,2.42-2.14,4.61-3.73,6.66-2.9-1.6-5.73-3.41-8.52-5.18h0ZM99.61,74.37c.45.28.9.57,1.34.85,2.77,1.76,5.58,3.55,8.45,5.15-1.93,2.38-4.21,4.56-6.49,6.71-2.78-1.66-5.49-3.51-8.17-5.34-.42-.28-.83-.57-1.25-.86,2.18-2.07,4.32-4.2,6.12-6.51h0ZM89.42,68.46c3.29,1.61,6.48,3.56,9.62,5.54-1.79,2.3-3.94,4.42-6.12,6.49-3.01-2.05-6.09-4.06-9.27-5.75,2.08-1.99,4.11-4.05,5.77-6.28h0ZM79.76,65.06c3.11.61,6.11,1.71,9.03,3.1-1.66,2.22-3.7,4.26-5.78,6.25-2.82-1.45-5.74-2.62-8.8-3.33,1.99-1.92,3.94-3.89,5.55-6.01h0ZM71.94,64.68c1.05-.11,2.11-.17,3.18-.14,1.32.03,2.61.17,3.89.39-1.63,2.1-3.59,4.06-5.59,5.98-1.29-.26-2.6-.44-3.94-.52-.91-.05-1.82-.06-2.73-.04,1.86-1.8,3.68-3.66,5.19-5.66h0ZM64.78,66.3c2.03-.68,4.1-1.21,6.21-1.51-1.55,1.97-3.39,3.79-5.25,5.58-1.78.08-3.55.29-5.32.57,1.57-1.47,3.08-2.99,4.36-4.64h0ZM57.56,69.17c1.99-.87,4-1.72,6.04-2.46-1.3,1.54-2.81,2.98-4.39,4.44-1.55.28-3.08.6-4.62.95,1.05-.93,2.07-1.89,2.97-2.94ZM59.12,64.94c.13-.07.27-.15.4-.23-.54,1.44-1.36,2.71-2.35,3.88-.41.18-.81.36-1.22.53-1.55.68-3.13,1.37-4.71,2.02.7-.83,1.28-1.77,1.68-2.87,2.11-1.04,4.17-2.2,6.2-3.34h0ZM58.81,58.84c.39-.21.79-.42,1.18-.63.17.9.26,1.84.23,2.84-.03.98-.17,1.88-.4,2.73-.34.19-.69.39-1.04.58-1.84,1.03-3.7,2.08-5.6,3.04.19-.74.29-1.55.31-2.44.01-1.1-.07-2.19-.25-3.25,1.88-.91,3.73-1.9,5.56-2.87h0ZM55.86,53.24c.62-.19,1.25-.37,1.88-.55.93,1.52,1.68,3.11,2.1,4.83-.45.24-.9.48-1.35.72-1.77.94-3.55,1.9-5.37,2.78-.44-2.19-1.22-4.29-2.21-6.33,1.66-.47,3.31-.96,4.95-1.44h0ZM54.29,47.95c1.1,1.38,2.16,2.74,3.07,4.15-.56.17-1.13.33-1.69.5-1.67.5-3.36,1-5.06,1.47-1.07-2.1-2.33-4.13-3.64-6.13,2.38,0,4.81,0,7.32.01h0ZM69.18,47.36c-2.22-.02-4.37-.03-6.48-.04-.46-.41-.91-.83-1.36-1.26,2.46.49,4.94.85,7.44,1.04.13.09.27.18.4.26h0ZM77.53,47.44c-.82-.01-1.64-.03-2.46-.03-1.54-.01-3.04-.03-4.52-.04-.11-.06-.23-.12-.34-.19.67.03,1.33.05,2,.05h.29c1.51-.01,3.02-.07,4.53-.16.17.13.33.25.5.37h0ZM88.86,47.76c-3.36-.13-6.73-.24-10.09-.3-.23-.15-.46-.3-.69-.46,3.24-.23,6.48-.62,9.71-1.11.34.64.71,1.26,1.07,1.88h0ZM89.66,47.8c-.39-.66-.78-1.33-1.16-2.01,3.94-.62,7.87-1.38,11.75-2.17.28,1.18.58,2.36.88,3.52.1.4.2.8.3,1.2-3.89-.2-7.83-.39-11.77-.54h0ZM91.17,50.45c-.35-.66-.73-1.31-1.1-1.96,3.87.16,7.73.34,11.54.53.39,1.57.77,3.16,1.09,4.75-3.8-1.22-7.65-2.39-11.52-3.32h0ZM92.86,54.55c-.31-1.16-.76-2.25-1.28-3.31,3.79.94,7.55,2.09,11.26,3.29.32,1.71.56,3.42.66,5.13-3.49-1.86-7.03-3.66-10.64-5.11h0ZM92.87,61.52c3.41,1.54,6.72,3.44,9.98,5.39-.7,2.38-1.91,4.54-3.4,6.55-3.14-1.99-6.33-3.94-9.62-5.56,1.38-1.96,2.47-4.06,3.04-6.39h0ZM83.16,58.41c3.11.53,6.13,1.54,9.08,2.83-.56,2.31-1.64,4.41-3.03,6.37-2.91-1.39-5.89-2.5-9-3.14,1.33-1.87,2.38-3.86,2.96-6.06h0ZM75.25,58.25c1.07-.16,2.16-.25,3.26-.25h.3c1.24.02,2.47.12,3.68.3-.58,2.18-1.66,4.16-3.02,6.02-1.42-.26-2.86-.42-4.33-.45-.9-.02-1.79.01-2.68.08,1.23-1.76,2.21-3.64,2.78-5.71h0ZM67.83,60.45c2.17-.93,4.39-1.67,6.68-2.08-.61,2.05-1.65,3.92-2.94,5.68-2.07.24-4.11.72-6.1,1.34,1.04-1.51,1.88-3.13,2.36-4.93h0ZM67.03,60.8c-.56,1.8-1.49,3.42-2.64,4.93-2.01.68-3.99,1.48-5.94,2.32.83-1.15,1.51-2.41,1.94-3.82,2.17-1.22,4.38-2.42,6.64-3.43h0ZM65.18,50.67c.84.97,1.54,2.03,1.97,3.29-2.28.95-4.51,2.08-6.71,3.24-.44-1.68-1.16-3.23-2.05-4.7,2.24-.66,4.51-1.29,6.78-1.83h0ZM70.82,48.29c.32.17.64.33.94.5-2.13.26-4.24.66-6.35,1.14-.62-.68-1.29-1.31-1.97-1.93,2.24.01,4.55.03,6.93.05.15.08.3.16.45.24h0ZM78.87,48.33c.12.08.24.16.36.23-.56-.03-1.13-.06-1.7-.07-1.55-.04-3.11.03-4.66.18-.33-.22-.68-.42-1.03-.61,1.06.01,2.13.02,3.22.03,1.17.01,2.34.03,3.51.05.1.06.2.13.3.19h0ZM83.15,51.78c-.38-.98-.95-1.73-1.61-2.34,3.07.31,6.13.89,9.18,1.61.54,1.04,1.02,2.1,1.36,3.21-2.92-1.12-5.9-2-8.93-2.47h0ZM75.54,52.27c1.18-.16,2.37-.23,3.58-.19,1.19.03,2.37.14,3.54.31.22.7.33,1.53.31,2.54-.02.94-.13,1.84-.32,2.72-1.26-.19-2.53-.3-3.83-.32h-.31c-1.05,0-2.07.08-3.08.22.19-.88.32-1.78.35-2.73.03-.99-.05-1.83-.23-2.55h0ZM74.87,52.36c.18.67.26,1.47.23,2.43-.03.99-.18,1.94-.4,2.86-2.3.39-4.52,1.09-6.68,1.99.15-.74.25-1.51.28-2.31.04-1.1-.08-2.07-.32-2.96,2.25-.91,4.54-1.62,6.89-2h0ZM74.66,51.71c-2.35.39-4.64,1.1-6.89,2-.43-1.22-1.08-2.26-1.85-3.2,2.25-.51,4.51-.91,6.78-1.14.84.58,1.54,1.28,1.96,2.34h0ZM82.38,51.67c-1.07-.14-2.15-.24-3.24-.27-1.29-.04-2.55.04-3.8.21-.37-1.01-.96-1.75-1.65-2.33,1.27-.1,2.55-.14,3.83-.11.95.02,1.89.08,2.84.16.84.62,1.55,1.33,2.02,2.34h0ZM92.64,58.48c-.03.72-.12,1.41-.25,2.09-2.94-1.28-5.95-2.28-9.07-2.82.19-.9.31-1.83.32-2.81.02-.94-.08-1.74-.26-2.44,3.03.5,6,1.41,8.92,2.56.26,1.07.39,2.2.33,3.42h0ZM89.27,48.47c.35.59.7,1.19,1.02,1.78-3.21-.74-6.45-1.3-9.7-1.57-.24-.17-.48-.34-.73-.5,3.13.07,6.27.17,9.4.29h0ZM62.44,48c.77.7,1.53,1.39,2.23,2.11-2.23.53-4.44,1.16-6.64,1.8-.87-1.36-1.87-2.67-2.88-3.95,2.36,0,4.79.02,7.28.03ZM60.61,57.89c2.21-1.17,4.46-2.31,6.74-3.27.21.81.31,1.69.28,2.68-.03.94-.16,1.82-.36,2.66-2.26.99-4.47,2.16-6.64,3.37.16-.71.25-1.46.27-2.26.03-1.11-.08-2.17-.29-3.18h0ZM103.44,63.88c-.08.81-.22,1.6-.41,2.37-3.27-1.95-6.59-3.85-10.01-5.39.15-.76.25-1.53.29-2.34.05-1.11-.05-2.15-.25-3.15,3.55,1.45,7.04,3.24,10.48,5.08.04,1.15.02,2.29-.09,3.43h0ZM54.37,46.98c-.84-1.05-1.69-2.12-2.49-3.22,2.73.75,5.48,1.48,8.26,2.06.5.52,1.02,1.01,1.54,1.49-2.42-.01-4.78-.02-7.07-.03-.08-.1-.17-.21-.25-.31ZM50.83,73.01c-.69.17-1.39.33-2.08.5.48-.37.94-.76,1.38-1.17,2-.77,3.96-1.63,5.91-2.48-.88.89-1.85,1.74-2.85,2.59-.79.19-1.57.38-2.35.56h0ZM114.67,65.55c-2.79-1.35-5.54-2.84-8.26-4.31-.74-.4-1.47-.8-2.21-1.19-.08-1.75-.31-3.51-.63-5.26.75.24,1.5.49,2.25.73,2.9.94,5.83,1.9,8.79,2.77.13,2.44.16,4.87.07,7.27h0ZM113.49,45.76c.11,1.06.23,2.13.34,3.2-3.19-.15-6.37-.31-9.5-.46-.73-.04-1.46-.07-2.19-.11-.12-.47-.24-.94-.35-1.41-.29-1.16-.59-2.32-.87-3.49,1.1-.22,2.19-.45,3.28-.68,2.9-.6,5.84-1.2,8.79-1.77.16,1.58.33,3.15.5,4.71h0ZM45.54,71.18c2.22-.59,4.37-1.45,6.47-2.44-.54,1.17-1.32,2.14-2.24,3.01-1.92.74-3.87,1.38-5.84,1.85.67-.65,1.24-1.43,1.62-2.42h0ZM42.49,73.91c-.78.15-1.57.27-2.36.35-1.41.15-2.83.32-4.26.49.81-.61,1.51-1.38,1.98-2.44,1.4-.12,2.78-.27,4.15-.44.92-.11,1.82-.28,2.71-.49-.52,1.08-1.31,1.87-2.23,2.53h0ZM40.5,75.89s.07-.04.11-.06c1.71-.25,3.42-.58,5.12-.95-.64.47-1.27.94-1.88,1.45-1.45.03-2.9.07-4.33.11.32-.19.65-.36.98-.55h0ZM37.89,76.49c-1.19.03-2.36.07-3.52.09-.08,0-.16,0-.24.01,1.07-.17,2.15-.3,3.23-.39.49-.04.98-.09,1.47-.15-.23.14-.45.27-.67.42-.09,0-.19,0-.28,0h0ZM125.25,60.19c-3.33-.61-6.67-1.46-9.99-2.43-.15-2.7-.4-5.4-.67-8.09,3.48.16,6.97.3,10.45.4.13,3.37.22,6.75.21,10.12h0ZM124.75,43.56c.09,1.94.18,3.88.26,5.84-3.49-.1-7-.25-10.49-.4-.11-1.1-.24-2.21-.35-3.31-.17-1.57-.34-3.17-.5-4.76,3.63-.68,7.27-1.29,10.89-1.74.06,1.47.13,2.93.2,4.37ZM124.26,27.04v1.57c-3.76.83-7.52,2-11.26,3.32-.01-.4-.03-.79-.04-1.18-.04-1.79-.21-3.55-.46-5.28,3.8-1.55,7.65-2.9,11.52-3.82.22,1.72.25,3.49.24,5.39h0ZM29.56,28.86c-.43-1.87-.47-3.54-.21-5.07,2.86.79,5.65,1.94,8.38,3.26-.23,1.66-.17,3.4.26,5.26.06.25.13.5.19.74-2.72-1.16-5.48-2.17-8.29-2.88-.12-.44-.24-.88-.34-1.32h0ZM108.24,108.13c-1.94-.02-3.86-.25-5.73-.75-.57-.15-1.14-.33-1.7-.51,1.05-2.52,2.62-4.8,4.45-6.95.79.27,1.6.52,2.42.73,1.58.4,3.16.61,4.75.69-1.73,2.1-3.2,4.34-4.2,6.8h0ZM112.98,100.68c-1.73-.04-3.44-.25-5.14-.69-.71-.18-1.41-.4-2.1-.62,1.98-2.23,4.22-4.32,6.43-6.38.21-.19.41-.39.62-.57.68.21,1.36.4,2.05.56,1.69.4,3.4.62,5.12.7-.03.03-.06.05-.08.08-2.38,2.23-4.8,4.48-6.89,6.92ZM120.66,93.03c-1.91-.05-3.8-.27-5.67-.71-.55-.13-1.09-.28-1.63-.44,2.37-2.21,4.7-4.48,6.68-6.95.55.15,1.11.3,1.68.42,1.88.41,3.74.59,5.6.59.07,0,.14,0,.21,0-2.03,2.51-4.44,4.82-6.86,7.09h0ZM132.01,77.93c-1.85.05-3.74-.09-5.68-.5-.63-.13-1.26-.29-1.88-.46.31-1.01.55-2.07.69-3.17.14-1.11.26-2.23.36-3.36.47.12.94.24,1.42.34,1.82.4,3.63.57,5.42.57.24,0,.49,0,.73-.01-.11,1.21-.24,2.4-.4,3.59-.13,1.03-.35,2.02-.65,2.98h0ZM133.38,41.25c.08,2.84.17,5.72.23,8.59-2.21-.19-4.44-.33-6.66-.39-.42-.01-.84-.02-1.26-.04-.08-1.97-.17-3.94-.26-5.89-.07-1.46-.14-2.94-.2-4.42.56-.07,1.13-.13,1.69-.19,2.25-.23,4.37-.17,6.4.1.02.75.04,1.49.07,2.24h0ZM133.09,25.83v2.09c-1.93-.25-4.01-.23-6.28.18-.63.11-1.25.24-1.88.37,0-.48,0-.95,0-1.42.01-1.95-.02-3.77-.25-5.54.73-.16,1.46-.32,2.19-.45,2.2-.39,4.19-.41,6.04-.14.16,1.5.18,3.11.18,4.91h0ZM16.38,29.21c-.36-1.68-.42-3.21-.23-4.65,1.4-.77,2.88-1.37,4.56-1.65-.23,1.5-.17,3.16.27,5.02.11.5.25,1,.39,1.49-1.63.27-3.14.79-4.56,1.47-.15-.56-.29-1.13-.42-1.69h0ZM21.75,58.64c2.13-.15,4.23-.31,6.3-.48.9,2.5,1.58,5.04,1.92,7.63-2.25.07-4.52.09-6.8.08-.25-2.44-.76-4.85-1.42-7.22h0ZM14.82,59.07c2.09-.11,4.18-.24,6.25-.39.67,2.36,1.18,4.75,1.43,7.17-2.26-.02-4.53-.06-6.79-.11-.17-2.24-.49-4.47-.89-6.67ZM7.91,59.37c2.08-.07,4.16-.16,6.22-.27.4,2.19.72,4.4.89,6.62-1.39-.04-2.78-.07-4.17-.11-.86-.02-1.74-.05-2.61-.07-.07-2.06-.19-4.12-.34-6.16h0ZM.74,59.51c2.15-.01,4.32-.05,6.49-.12.15,2.03.27,4.08.34,6.13-2.29-.06-4.59-.11-6.83-.14v-5.87h0ZM21.99,87.32c.01-.95.06-1.89.18-2.81.1-.76.27-1.43.51-2.05,1.68-1.07,3.48-1.9,5.48-2.37-.19.48-.35,1.02-.46,1.63-.18,1.01-.26,2.06-.28,3.13-2.01.5-3.79,1.37-5.43,2.47h0ZM34.97,84.63c.02-.87.08-1.73.21-2.56.13-.85.36-1.56.67-2.18,1.54.15,3.09.36,4.65.62-.35.77-.61,1.61-.75,2.56-.11.79-.18,1.58-.2,2.39-1.52-.35-3.05-.64-4.58-.83h0ZM40.22,85.61c.01-.83.07-1.65.19-2.45.14-.95.41-1.78.77-2.54,1.31.23,2.62.48,3.93.75-.43.96-.75,1.99-.91,3.12-.1.7-.15,1.41-.16,2.12-1.26-.35-2.53-.7-3.81-1ZM116.56,113.69c-2.97.64-5.95,1.12-8.88,1.16-.07-.88-.03-1.8.13-2.78.19-1.14.5-2.23.89-3.28,2.88-.02,5.79-.44,8.65-1.02-.29.91-.52,1.84-.67,2.8-.18,1.07-.21,2.11-.12,3.11h0ZM138.09,77.14c-1.77.39-3.55.66-5.36.76.27-.92.48-1.88.6-2.87.16-1.23.29-2.46.41-3.7,1.79-.08,3.58-.32,5.35-.66-.1,1.16-.23,2.32-.37,3.46-.13,1.04-.34,2.04-.63,3.01h0ZM139.62,60.82c-1.77.12-3.54.2-5.31.2.07-3.46.06-6.95,0-10.43,1.78.16,3.55.35,5.31.55.06,3.23.07,6.47,0,9.68h0ZM139.39,42.1c.08,2.77.16,5.56.21,8.35-1.76-.2-3.53-.39-5.31-.55-.06-2.9-.15-5.8-.23-8.67-.02-.7-.04-1.41-.06-2.12,1.83.28,3.6.71,5.34,1.24.02.58.03,1.16.05,1.74h0ZM139.12,27.56c0,.69,0,1.39,0,2.09-1.7-.74-3.46-1.31-5.36-1.63,0-.73,0-1.47,0-2.19,0-1.63.01-3.23-.15-4.8,1.91.35,3.65,1,5.33,1.82.15,1.53.18,3.09.17,4.71h0ZM136.21,14.54c.5.79.92,1.58,1.26,2.37-1.73-.65-3.51-1.15-5.39-1.43-.45-.89-1.03-1.76-1.76-2.63-.04-.04-.07-.09-.11-.13,1.87.23,3.7.61,5.52,1.08.16.24.32.48.48.74ZM12.95,31.76c-.28-1.75-.29-3.41-.1-5.01.85-.63,1.7-1.23,2.58-1.77-.13,1.36-.05,2.81.29,4.37.14.62.29,1.23.46,1.85-1.04.53-2.04,1.13-3.02,1.75-.08-.4-.15-.8-.21-1.2h0ZM17.91,47.72c-.8-2.04-1.6-4.12-2.34-6.21,1.32-.54,2.65-1.05,3.98-1.48.97,2.09,2.02,4.16,3.06,6.21.36.71.72,1.41,1.07,2.12-1.73.3-3.45.64-5.14.99-.21-.54-.42-1.08-.63-1.63h0ZM17.58,86.52c1.36-1.26,2.74-2.44,4.19-3.46-.12.43-.21.88-.27,1.36-.14,1.1-.19,2.22-.18,3.37-1.54,1.12-2.95,2.44-4.31,3.83.02-.74.05-1.48.1-2.22.07-1,.24-1.95.47-2.88ZM16.98,92.61c1.4-1.47,2.82-2.85,4.35-4.02.1,2.67.53,5.42,1.08,8.12-1.77,1.07-3.44,2.33-5.06,3.65-.26-2.59-.4-5.18-.37-7.74ZM127.65,111.02c-.61.15-1.23.29-1.84.44-1.13.27-2.25.55-3.45.85-1.71.43-3.42.86-5.15,1.24-.07-.92-.03-1.87.13-2.86.17-1.06.43-2.08.77-3.07,2.01-.43,3.99-.93,5.9-1.42,1.02-.26,2.02-.51,3.01-.75.43-.1.85-.21,1.28-.31-.24.95-.43,1.91-.54,2.9-.12,1.01-.15,2-.1,2.98h0ZM135.51,90.81c-2.21.59-4.42,1.12-6.63,1.52,2.1-2.32,4.2-4.68,5.97-7.21,1.65-.34,3.29-.76,4.93-1.21-1.26,2.3-2.71,4.53-4.14,6.72-.04.06-.08.12-.12.19h0ZM143,75.85c-1.39.41-2.78.8-4.16,1.12.24-.89.43-1.81.55-2.75.15-1.22.28-2.45.39-3.68,1.33-.27,2.65-.59,3.97-.93-.06,1.02-.14,2.04-.23,3.06-.09,1.09-.28,2.15-.52,3.18h0ZM143.95,43.76c.05,2.39.09,4.8.13,7.22-.27-.03-.55-.06-.82-.1-.99-.12-1.98-.23-2.98-.35-.05-2.83-.14-5.65-.22-8.45-.01-.5-.03-1.01-.04-1.51,1.3.41,2.6.88,3.9,1.35.01.61.02,1.23.03,1.84h0ZM143.79,30.56c0,.5,0,1,0,1.5-1.32-.76-2.64-1.48-3.99-2.11,0-.8-.01-1.6,0-2.39,0-1.49-.01-2.93-.13-4.35,1.26.67,2.49,1.42,3.71,2.22.27,1.66.43,3.37.42,5.13ZM46.93,11.35c-.49.62-.99,1.23-1.49,1.84-.66.82-1.33,1.64-1.98,2.47-2.47-.77-4.97-1.45-7.51-1.93.49-.46.98-.92,1.48-1.39.71-.66,1.42-1.32,2.11-1.99,2.47.22,4.94.57,7.38,1h0ZM10.05,34.63c-.15-1.96-.1-3.9.07-5.81.42-.32.84-.64,1.26-.96.25-.19.5-.38.74-.57-.13,1.47-.09,2.98.16,4.56.08.5.17,1,.27,1.49-.43.28-.86.57-1.29.85-.39.26-.78.52-1.18.78-.01-.12-.02-.24-.03-.35h0ZM12.38,94.94c.03-1.24.13-2.47.27-3.69.76-.72,1.52-1.45,2.26-2.18.6-.58,1.19-1.16,1.79-1.73-.12.65-.22,1.32-.27,2.01-.07.99-.1,1.99-.12,2.98-.68.72-1.35,1.45-2.02,2.18-.64.7-1.28,1.4-1.94,2.1,0-.56.01-1.11.02-1.67h0ZM104.04,123.64c.75.86,1.53,1.7,2.3,2.53.26.28.53.57.79.86-2.36-.39-4.7-.93-7.01-1.53-.49-.62-.99-1.23-1.49-1.84-.71-.87-1.4-1.73-2.08-2.59,2.43,1.02,4.92,1.92,7.48,2.57h0ZM95.71,119.96c-1.03-1.36-1.99-2.72-2.79-4.11,2.53,1.4,5.16,2.61,7.92,3.49.7,1.17,1.53,2.29,2.43,3.38-2.58-.72-5.1-1.68-7.56-2.77h0ZM139.24,108.19c-2.2.52-4.39,1.06-6.55,1.59-1.43.35-2.9.71-4.37,1.07-.03-.9,0-1.81.1-2.74.13-1.08.34-2.13.62-3.16,1.45-.36,2.9-.72,4.31-1.08,2.05-.52,4.12-1.04,6.21-1.54-.14.94-.24,1.88-.29,2.83-.06,1.02-.06,2.03-.03,3.03h0ZM143.53,88.48c-.52.16-1.04.31-1.56.47-1.82.54-3.65,1.09-5.48,1.59,1.46-2.24,2.93-4.52,4.19-6.9,1.28-.37,2.56-.76,3.83-1.14.42-.13.84-.25,1.26-.38-.66,2.08-1.41,4.12-2.15,6.14-.03.07-.05.15-.08.22ZM148.07,33.94v.66c-.66-.39-1.31-.77-1.96-1.16-.55-.33-1.09-.66-1.64-.98,0-.63,0-1.26,0-1.89,0-1.59-.12-3.13-.33-4.63.45.3.9.6,1.35.91.77.52,1.55,1.04,2.34,1.56.16,1.83.25,3.67.25,5.52h0ZM146.08,16.02c.02.12.04.24.06.36-.64-.22-1.28-.43-1.92-.65-1.04-.35-2.08-.71-3.14-1.05-.11-.31-.22-.62-.32-.93-.3-.85-.59-1.71-.89-2.57.77.13,1.53.26,2.29.4,1.08.19,2.18.38,3.27.56.21,1.3.43,2.59.65,3.88h0ZM59.54,6.99c2.38.18,4.79.35,7.22.51-.67,2.25-1.48,4.43-2.37,6.61-2.72-.46-5.41-1.02-8.07-1.57,1.06-1.83,2.07-3.68,2.92-5.56.09,0,.19.01.29.02h0ZM5.83,30.85c-1.53.83-3.2,1.47-5.1,1.76,0-1.95,0-3.9,0-5.86,1.92-.27,3.71-.82,5.42-1.53-.13,1.87-.24,3.74-.32,5.63h0ZM6.85,24.93c1.18-.52,2.32-1.11,3.44-1.72-.35,1.73-.64,3.48-.82,5.26-.95.7-1.92,1.39-2.95,1.99.08-1.85.2-3.7.32-5.53h0ZM6.39,37.05c-.01-1.92.03-3.85.1-5.78,1.02-.57,1.98-1.22,2.91-1.9-.14,1.75-.16,3.52-.02,5.32.02.24.04.48.06.72-.99.64-2,1.25-3.05,1.79v-.16h0ZM6.5,101.84c-1.73,1.18-3.63,2.1-5.78,2.64,0-1.95,0-3.9,0-5.85,2.13-.52,4.05-1.4,5.82-2.49-.03,1.15-.05,2.29-.05,3.43,0,.76,0,1.51,0,2.27ZM7.17,99.57c0-1.29.03-2.58.06-3.88,1.66-1.1,3.19-2.38,4.66-3.73-.09.99-.16,1.98-.19,2.97-.02.8-.03,1.6-.02,2.4-1.41,1.46-2.89,2.85-4.5,4.03,0-.6,0-1.2,0-1.8h0ZM7.72,118.52c-.03-.71-.06-1.42-.09-2.13,1.79-.69,3.53-1.5,5.24-2.36.19,1.64.39,3.26.59,4.88.13,1.01.25,2.02.37,3.04-1.94.49-3.91.95-5.89,1.32-.07-1.59-.14-3.18-.21-4.75h0ZM150.94,120.16c.1,1.5.21,3.02.31,4.54-2.79.25-5.57.56-8.33.9-.19-.81-.37-1.63-.56-2.43-.16-.7-.33-1.41-.49-2.12,2.99-.61,6.02-1.2,9.01-1.68.02.26.04.53.05.79h0ZM159.98,66.45c-.02-21.67-.04-44.07,0-66.1v-.34h-.34C111.33.09,59.23.09.34,0h-.34v.34c.11,47.07.06,93.62,0,137.28v.34h.34c13.65.04,27.41.06,41.13.06,15.79,0,31.53-.02,46.98-.04,23.33-.03,47.46-.06,71.19-.02h.34v-.34c.05-23.73.03-47.85,0-71.17h0Z"/>
  </g>
</svg>